<?xml version="1.0" standalone="no"?>
<!DOCTYPE svg PUBLIC "-//W3C//DTD SVG 1.1//EN" "http://www.w3.org/Graphics/SVG/1.1/DTD/svg11.dtd" >
<svg>
<metadata>
Created by FontForge 20090914 at Thu Feb 18 13:33:43 2021
 By www-data
Copyright 2018 Bombastype. All rights reserved.
</metadata>
<defs>
<font id="Headster-Regular" horiz-adv-x="426" >
  <font-face 
    font-family="Headster"
    font-weight="400"
    font-stretch="normal"
    units-per-em="1000"
    panose-1="0 0 0 0 0 0 0 0 0 0"
    ascent="750"
    descent="-250"
    x-height="432"
    cap-height="896"
    bbox="-304.63 -493.142 3831.73 909"
    underline-thickness="50"
    underline-position="-75"
    unicode-range="U+000D-U+E03C"
  />
<missing-glyph horiz-adv-x="333" 
 />
    <glyph glyph-name="t_t" unicode="Headster" horiz-adv-x="3935" 
d="M2699 806c28 0 51.002 -6 69.002 -18s29.167 -27.333 33.5 -46s0.666016 -39.5 -11 -62.5c-11.667 -23 -33 -45.333 -64 -67s-72.833 -41.667 -125.5 -60s-118 -32.166 -196 -41.499c-25.333 -40 -48.666 -81.5 -70 -124.5c-21.333 -43 -40 -83.667 -56 -122
s-28.5 -72.666 -37.5 -102.999s-13.5 -52.833 -13.5 -67.5c0.666992 -14 3.16699 -25 7.5 -33s11.833 -12 22.5 -12c8.66699 0 18.667 4.66699 30 14s23 21.166 35 35.499s24.167 30.166 36.5 47.499s23.5 34 33.5 50l26.5 43l15.5 26c0.666992 2.66699 2.66699 4 6 4h5
c3.33301 0 5.66602 -1.16699 7 -3.5c1.33301 -2.33301 1.33301 -4.83301 0 -7.5c-5.33301 -9.33301 -13.333 -24.166 -24 -44.499s-23.334 -42.666 -38 -66.999c-14.667 -24.333 -30.667 -49.5 -48 -75.5s-35.166 -49.833 -53.5 -71.5
c-18.333 -21.667 -36.5 -39.334 -54.5 -53.001s-34.667 -20.5 -50 -20.5c-19.333 0 -34.666 4.33301 -46 13c-11.333 8.66699 -19.833 18.834 -25.5 30.501s-9.33398 23.667 -11.001 36s-2.5 22.5 -2.5 30.5v18c-24 -36.667 -49.833 -67.167 -77.5 -91.5
s-53.834 -36.5 -78.501 -36.5c-27.333 0 -49.5 7.16699 -66.5 21.5s-29.333 33.5 -37 57.5s-11 51.167 -10 81.5s5.83301 61.166 14.5 92.499s21 62.166 37 92.499s34.833 57.5 56.5 81.5s46 43.167 73 57.5s56.167 21.5 87.5 21.5c30.667 0 53.667 -8 69 -24
s24.666 -36.667 28 -62c12.667 26 26 52 40 78s29 51.667 45 77c-13.333 -0.666992 -26.666 -1.16699 -40 -1.5c-13.333 -0.333008 -27 -0.5 -41 -0.5c-38 0 -83 1.5 -135 4.5s-104.5 7.5 -157.5 13.5s-102.833 13.667 -149.5 23s-83.667 20 -111 32
c-12.667 5.33301 -18.334 14 -17.001 26c4.66699 24.667 4 49.834 -2 75.501s-12.667 49.167 -20 70.5s-13.166 39.5 -17.499 54.5s-2.5 23.833 5.5 26.5c2 1.33301 4 1 6 -1c4 -4.66699 14 -14.334 30 -29.001s37.833 -31.667 65.5 -51s61.167 -39.833 100.5 -61.5
s84.333 -41.5 135 -59.5s107 -32.833 169 -44.5s129.667 -17.5 203 -17.5h16c24.667 34 51 66 79 96s57.167 56 87.5 78s62 39.333 95 52s66.833 19 101.5 19h6h9zM2453 583c46 13.333 87.167 30.666 123.5 51.999s66.166 42.333 89.5 63
c23.333 20.667 39.5 38.334 48.5 53.001s9.16699 22 0.5 22c-14.667 0 -29.667 -2.66699 -45 -8s-30.5 -12.5 -45.5 -21.5s-29.5 -19 -43.5 -30s-27.333 -22.5 -40 -34.5c-14.667 -13.333 -29.167 -28 -43.5 -44s-28.5 -32.667 -42.5 -50zM2021 53
c8 0 16.8311 3.5 26.498 10.5s19.334 16.5 29 28.5c9.66699 12 19.167 26 28.5 42s18 32.667 26 50c4 13.333 8.66699 26.833 14 40.5l16 42.5c4.66699 17.333 7.83398 33.833 9.5 49.5c1.66699 15.667 1.5 29.5 -0.5 41.5s-6.5 21.5 -13.5 28.5s-16.5 10.5 -28.5 10.5
c-19.333 0 -38.833 -8.5 -58.5 -25.5s-37.5 -38.167 -53.5 -63.5s-29.5 -53 -40.5 -83s-17.167 -57.667 -18.5 -83s2.83398 -46.5 12.501 -63.5s26.834 -25.5 51.501 -25.5zM3256 737c-24 0 -48.833 -8.66699 -74.5 -26s-51.334 -40.166 -77 -68.499
c-25.667 -28.333 -50.667 -61 -75 -98s-47.166 -75.167 -68.5 -114.5l33.5 4c11 1.33301 21.167 3.33301 30.5 6c3.33301 0.666992 6 -0.333008 8 -3s1.66699 -5 -1 -7c-14 -11.333 -24.5 -23 -31.5 -35s-12.5 -23.333 -16.5 -34l-10.5 -28c-3 -8 -7.83301 -14 -14.5 -18
c-1.33301 -1.33301 -3.16602 -1.33301 -5.5 0c-2.33301 1.33301 -3.16602 3 -2.5 5c1.33301 6.66699 1.83301 16.167 1.5 28.5s-6.5 22.833 -18.5 31.5c-15.333 -31.333 -29.333 -61.833 -42 -91.5s-23.667 -57 -33 -82s-16.5 -47.333 -21.5 -67s-7.5 -35.167 -7.5 -46.5
c0 -14 2.16699 -25 6.5 -33s12.166 -12 23.5 -12c8.66699 0 18.667 4.66699 30 14s23 21.166 35 35.499s24 30.166 36 47.499l33.5 50l27 43l15.5 26c0.666992 2.66699 2.66699 4 6 4h5c3.33301 0 5.66602 -1.16699 7 -3.5c1.33301 -2.33301 1.33301 -4.83301 0 -7.5
l-24.5 -44l-38.5 -67c-14.667 -24.667 -30.667 -50 -48 -76s-35 -49.667 -53 -71s-36 -38.833 -54 -52.5s-35 -20.5 -51 -20.5c-19.333 0 -34.666 4.16699 -46 12.5c-11.333 8.33301 -19.833 18.5 -25.5 30.5s-9.33398 24.167 -11 36.5c-1.66699 12.333 -2.5 22.5 -2.5 30.5
c0 16 2.66699 36.667 8 62s13.166 53.666 23.5 84.999c10.333 31.333 22.833 64.666 37.5 99.999s31.334 71.333 50 108c-13.333 -1.33301 -24.166 -2.66602 -32.5 -3.99902c-8.33301 -1.33301 -15.166 -2.66602 -20.5 -3.99902c-2 -0.666992 -3.66699 0 -5 2
s-1.33301 4 0 6l26 47c3.33301 3.33301 6 4.66602 8 3.99902c5.33301 -2 12 -3.83301 20 -5.5s17 -3.16699 27 -4.5c26.667 48 56.334 94.333 89 139c32.667 44.667 67.834 84.167 105.5 118.5c37.667 34.333 77.5 62 119.5 83s85.667 31.5 131 31.5
c32.667 0 59.167 -6.16699 79.5 -18.5s35.333 -27.833 45 -46.5s14.334 -39.167 14 -61.5c-0.333008 -22.333 -4.5 -43.833 -12.5 -64.5c-1.33301 -5.33301 -4 -5.66602 -8 -0.999023c-9.33301 11.333 -22.833 21.333 -40.5 30s-39.167 11 -64.5 7
c-3.33301 -1.33301 -4.33301 0 -3 4c9.33301 22.667 10 42.334 2 59.001s-22.667 25 -44 25zM3817 318c8 0 12.665 -2.83594 13.998 -8.50293s0.833008 -12.5 -1.5 -20.5s-5.5 -16.167 -9.5 -24.5l-10 -21.5c-6 -22 -11.333 -47 -16 -75s-10.5 -57.667 -17.5 -89
s-16.333 -63.5 -28 -96.5s-27.167 -65 -46.5 -96s-43.666 -60.167 -73 -87.5c-29.333 -27.333 -65.5 -51.166 -108.5 -71.499s-93.667 -36.5 -152 -48.5s-126.166 -18 -203.499 -18c-24 0 -60.667 2.5 -110 7.5l-173.5 18.5l-218.5 23.5
c-79.333 8.33301 -161.333 16.166 -246 23.499s-170 13.5 -256 18.5s-168.333 7.5 -247 7.5c-73.333 0 -138 -2.83301 -194 -8.5s-104.167 -13.5 -144.5 -23.5s-72.833 -21.667 -97.5 -35s-42 -27.333 -52 -42c-4.66699 -8 -10 -10.667 -16 -8s-12.833 6.66699 -20.5 12
s-16.667 11.166 -27 17.499s-22.5 13 -36.5 20s-31 13.833 -51 20.5c-24.667 8 -47.167 12.833 -67.5 14.5s-38.333 1.5 -54 -0.5s-29.167 -5.16699 -40.5 -9.5s-20 -8.5 -26 -12.5c-3.33301 -1.33301 -6.16602 -1.16602 -8.49902 0.500977s-2.83301 4.16699 -1.5 7.5
c2 8.66699 9.66699 19.334 23 32.001s31.833 26.167 55.5 40.5s52 28.5 85 42.5s70 26.667 111 38s85.667 20.5 134 27.5s99.5 10.5 153.5 10.5c104.667 0 208.5 -4 311.5 -12s203.5 -17.833 301.5 -29.5s192.667 -24.5 284 -38.5l260.5 -38.5
c82.333 -11.667 159.166 -21.5 230.5 -29.5c71.333 -8 136 -12 194 -12c68.667 0 128.5 6.33301 179.5 19s95.167 29.667 132.5 51s68.833 46.166 94.5 74.499s47 57.833 64 88.5s31 61.834 42 93.501s20.5 61.834 28.5 90.501l27 88c1.33301 4.66699 2 10.834 2 18.501
s0.666992 15.167 2 22.5s3.66602 13.833 7 19.5c3.33301 5.66699 9 8.5 17 8.5zM3407 268.997c0.666992 0 1 -0.329102 1 -0.996094v-4c-2.66699 -6.66699 -8.33398 -19.5 -17 -38.5c-8.66699 -19 -19.834 -41 -33.5 -66c-13.667 -25 -29.334 -51.167 -47 -78.5
c-17.667 -27.333 -37 -52.333 -58 -75s-43.167 -41.5 -66.5 -56.5s-47.333 -22.5 -72 -22.5c-34.667 0 -62.5 7.16699 -83.5 21.5s-36.167 33.333 -45.5 57s-13.166 50.667 -11.5 81c1.66699 30.333 7.33398 61.333 17 93c9.66699 31.667 23.334 62.667 41 93
c17.667 30.333 37.834 57.333 60.5 81c22.667 23.667 47.5 42.667 74.5 57s55.167 21.5 84.5 21.5s51 -7.33301 65 -22s21.5 -32.834 22.5 -54.501s-3.66699 -45.167 -14 -70.5s-24.833 -48.833 -43.5 -70.5s-41 -39.834 -67 -54.501s-54 -22 -84 -22
c-18 0 -33.667 3.66699 -47 11c-2 -14.667 -2.33301 -28.5 -1 -41.5s4.83301 -24.333 10.5 -34s13.334 -17.334 23 -23.001c9.66699 -5.66699 21.834 -8.5 36.5 -8.5c15.333 0 31.166 4.5 47.5 13.5c16.333 9 32.5 20.333 48.5 34s31.333 29.167 46 46.5l41 50.5
c12.667 16.333 23.834 31.666 33.5 45.999l22.5 33.5c2 2 3.66699 3 5 3h11zM3248 369.001c-14 0 -28.333 -4.33398 -43 -13.001s-28.5 -20.167 -41.5 -34.5s-25 -30.666 -36 -48.999s-20.167 -37.5 -27.5 -57.5c2 -6 5.16699 -11 9.5 -15s10.166 -6 17.5 -6
c15.333 0 30.166 4.33301 44.5 13c14.333 8.66699 27.333 19.5 39 32.5s21.667 27 30 42s14.333 29 18 42s4.83398 23.833 3.5 32.5c-1.33301 8.66699 -6 13 -14 13zM1015 -202c4 -0.666992 6.67188 -2.66895 8.00488 -6.00195s0.333008 -6.66602 -3 -9.99902
c-8.66699 -7.33301 -19.167 -17.666 -31.5 -30.999s-24.666 -29.833 -36.999 -49.5s-23.5 -42.167 -33.5 -67.5s-17 -53.666 -21 -84.999c-0.666992 -5.33301 -3.16699 -9 -7.5 -11s-8.83301 -1.66699 -13.5 1c-12 6.66699 -27.333 18 -46 34s-37 38.5 -55 67.5
s-33.5 64.833 -46.5 107.5s-19.5 93.667 -19.5 153c0 48.667 8.83301 105.167 26.5 169.5s42.5 131.833 74.5 202.5c-2 3.33301 -5.66699 8.66602 -11 15.999s-12.833 15.166 -22.5 23.499s-21.5 16.5 -35.5 24.5s-30.667 14.667 -50 20l-77.5 -170
c-26.333 -57.333 -53.5 -112.833 -81.5 -166.5s-56.833 -104.167 -86.5 -151.5s-60.5 -88.833 -92.5 -124.5s-65.333 -64.167 -100 -85.5s-71 -33 -109 -35c-2.66699 -0.666992 -4.83398 0 -6.50098 2s-2.5 4.33301 -2.5 7c2.66699 18.667 3 38.5 1 59.5
s-6.16699 41.333 -12.5 61s-14.833 38.167 -25.5 55.5s-23.334 32 -38.001 44c-10 8 -18.667 17.5 -26 28.5s-13.333 22.167 -18 33.5s-8.33398 22.5 -11.001 33.5s-4.33398 20.5 -5.00098 28.5c-0.666992 3.33301 0.666016 6 3.99902 8s6.66602 2.33301 9.99902 1
c8 -5.33301 21.167 -9.83301 39.5 -13.5s44.833 -5.5 79.5 -5.5s69.667 10.667 105 32s70.5 50 105.5 86s69.833 77.5 104.5 124.5l104 147.5c-29.333 -6 -58.333 -15.667 -87 -29s-56.167 -30.666 -82.5 -51.999s-51.333 -47.333 -75 -78s-44.5 -66 -62.5 -106
c-2.66699 -5.33301 -6.66699 -7.83301 -12 -7.5s-8.66602 3.16602 -9.99902 8.49902c-2.66699 10 -6.33398 21.5 -11.001 34.5s-10.834 26 -18.501 39s-16.667 25.5 -27 37.5s-22.5 22.333 -36.5 31c-4 2.66699 -6.33301 6 -7 10s0.333008 7.66699 3 11
c8.66699 10 23.667 24.5 45 43.5s49.333 37.667 84 56s76.667 34.333 126 48s106.666 20.5 171.999 20.5c7.33301 0 14.5 -0.166992 21.5 -0.5s14.167 -0.833008 21.5 -1.5l119.5 175.5c39.667 56.333 78.834 106.5 117.501 150.5c-23.333 0.666992 -47.333 1.66699 -72 3
s-48.167 2.5 -70.5 3.5s-43.166 1.83301 -62.499 2.5s-35.333 1 -48 1c-30.667 0 -61 -5.16699 -91 -15.5s-56.833 -24 -80.5 -41s-42.834 -36.5 -57.501 -58.5s-22 -44.667 -22 -68c0 -28 4.83301 -52 14.5 -72s19.5 -36 29.5 -48
c2.66699 -3.33301 2.83398 -6.66602 0.500977 -9.99902s-5.5 -4.33301 -9.5 -3c-24 8 -47 12.167 -69 12.5s-42 -1.5 -60 -5.5s-33.833 -8.83301 -47.5 -14.5s-24.167 -10.5 -31.5 -14.5c-8.66699 -4.66699 -16.667 -3.33398 -24 3.99902
c-4.66699 4.66699 -9.83398 11.167 -15.501 19.5s-11.167 18.666 -16.5 30.999s-9.83301 26.5 -13.5 42.5s-5.5 33.667 -5.5 53c0 26.667 7.83301 55.667 23.5 87s38.667 60.5 69 87.5s68 49.5 113 67.5s96.833 27 155.5 27c42.667 0 83.167 -2.33301 121.5 -7
s74.666 -10 108.999 -16s67.5 -12.167 99.5 -18.5s63.333 -11.166 94 -14.499c28 28 55.667 49.833 83 65.5s54.333 23.5 81 23.5c27.333 0 45.333 -6.5 54 -19.5s8.83398 -27.5 0.500977 -43.5s-25.333 -30.5 -51 -43.5s-58.834 -19.5 -99.501 -19.5h-33
c-32 -42 -63.833 -93 -95.5 -153s-63.5 -125 -95.5 -195c32 -11.333 57.5 -24.333 76.5 -39s33.833 -28 44.5 -40c22 46 46.333 91.5 73 136.5s55.167 88 85.5 129s62 79 95 114s66.667 65.333 101 91s68.833 45.667 103.5 60s69 21.5 103 21.5
c19.333 0 36 -2.16699 50 -6.5s26 -9.66602 36 -15.999s18.167 -13.5 24.5 -21.5s11.5 -15.667 15.5 -23c1.33301 -3.33301 0.833008 -6 -1.5 -8s-4.83301 -1.66699 -7.5 1c-9.33301 7.33301 -22.166 14.5 -38.499 21.5s-37.833 10.5 -64.5 10.5
c-33.333 0 -69.333 -13.167 -108 -39.5s-77.167 -61.333 -115.5 -105s-75.166 -93.667 -110.499 -150s-66.5 -114.333 -93.5 -174s-48.667 -118.667 -65 -177s-24.5 -111.5 -24.5 -159.5c0 -74 11.5 -128.833 34.5 -164.5s53.5 -56.167 91.5 -61.5zM1054 847.998
c-21.333 0 -42.5 -5.99805 -63.5 -17.998s-41.5 -29 -61.5 -51h7c24 0 45.167 3.66699 63.5 11s32.833 15.166 43.5 23.499s17.167 16.166 19.5 23.499s-0.5 11 -8.5 11zM1405 269c0.666992 0 0.99707 -0.329102 0.99707 -0.996094v-4
c-2.66699 -6.66699 -8.33398 -19.5 -17.001 -38.5s-19.834 -41 -33.501 -66s-29.334 -51.167 -47.001 -78.5s-37 -52.333 -58 -75s-43.167 -41.5 -66.5 -56.5s-47.333 -22.5 -72 -22.5c-34.667 0 -62.5 7.16699 -83.5 21.5s-36.167 33.333 -45.5 57
s-13.166 50.667 -11.499 81s7.33398 61.333 17.001 93s23.334 62.667 41.001 93s37.834 57.333 60.501 81s47.5 42.667 74.5 57s55.167 21.5 84.5 21.5s51 -7.33301 65 -22s21.5 -32.834 22.5 -54.501s-3.66699 -45.167 -14 -70.5s-24.833 -48.833 -43.5 -70.5
s-41 -39.834 -67 -54.501s-54 -22 -84 -22c-18 0 -33.667 3.66699 -47 11c-2 -14.667 -2.33301 -28.5 -1 -41.5s4.83301 -24.333 10.5 -34s13.334 -17.334 23.001 -23.001s21.834 -8.5 36.501 -8.5c15.333 0 31.166 4.5 47.499 13.5s32.5 20.333 48.5 34
s31.333 29.167 46 46.5l41 50.5c12.667 16.333 23.834 31.666 33.501 45.999l22.5 33.5c2 2 3.66699 3 5 3h11zM1246 369.004c-14 0 -28.332 -4.33398 -42.999 -13.001s-28.5 -20.167 -41.5 -34.5s-25 -30.666 -36 -48.999s-20.167 -37.5 -27.5 -57.5
c2 -6 5.16699 -11 9.5 -15s10.166 -6 17.499 -6c15.333 0 30.166 4.33301 44.499 13s27.333 19.5 39 32.5s21.667 27 30 42s14.333 29 18 42s4.83398 23.833 3.50098 32.5s-6 13 -14 13zM1916 269.003c2.66699 0 4.66797 -1.16406 6.00098 -3.49707s1.33301 -4.5 0 -6.5
l-23 -44c-10.667 -20 -23.334 -42.333 -38.001 -67s-30.834 -50 -48.501 -76s-35.667 -49.833 -54 -71.5s-36.666 -39.334 -54.999 -53.001s-35.166 -20.5 -50.499 -20.5c-16.667 0 -30.334 3.16699 -41.001 9.5s-19.167 14.166 -25.5 23.499s-10.833 19.333 -13.5 30
s-4.33398 20.667 -5.00098 30c-21.333 -28 -43.5 -50.5 -66.5 -67.5s-44.5 -25.5 -64.5 -25.5c-36.667 0 -64.167 12.5 -82.5 37.5s-28.666 56.167 -30.999 93.5s2.5 77.833 14.5 121.5s29.833 84.167 53.5 121.5s52.5 68.5 86.5 93.5s72 37.5 114 37.5
c28 0 49.333 -6.33301 64 -19s24.667 -29.667 30 -51c8.66699 24 12 44.333 10 61c0 3.33301 1.16699 6 3.5 8s5.16602 2.33301 8.49902 1c8.66699 -3.33301 18.334 -7.33301 29.001 -12s22.667 -7 36 -7c6 0 13.167 0.833008 21.5 2.5s16.666 3.66699 24.999 6
s16.166 4.66602 23.499 6.99902s13.333 4.16602 18 5.49902s8.33398 0 11.001 -4s2.33398 -7.33301 -0.999023 -10c-6 -4.66699 -14.5 -14 -25.5 -28s-23 -30.667 -36 -50s-26.167 -40.5 -39.5 -63.5s-25.5 -45.833 -36.5 -68.5s-20 -44.167 -27 -64.5
s-10.5 -37.5 -10.5 -51.5c0 -13.333 2.33301 -24.166 7 -32.499s12.334 -12.5 23.001 -12.5c8.66699 0 18.667 4.66699 30 14s23 21 35 35s24 29.667 36 47l33.5 49.5c10.333 15.667 19.166 29.667 26.499 42l15 25.5c1.33301 4.66699 6 7 14 7zM1662 302.006
c4.66699 28 4.16699 50.999 -1.5 68.999s-18.5 27 -38.5 27s-39.833 -8.5 -59.5 -25.5s-37.667 -38.167 -54 -63.5s-29.833 -53 -40.5 -83s-16.667 -57.667 -18 -83s2.83398 -46.5 12.501 -63.5s26.834 -25.5 51.501 -25.5c9.33301 0 19.666 4.83301 30.999 14.5
s22.666 22.167 33.999 37.5c9.33301 32.667 22 65.834 38 99.501zM2613 434.005c24 0 43 -5.67383 57 -17.0068s23.833 -25.666 29.5 -42.999s8 -36 7 -56s-4.33301 -39 -10 -57s-13 -33.333 -22 -46s-18.167 -20 -27.5 -22c-2 -0.666992 -4.16699 -0.5 -6.5 0.5
s-3.5 2.5 -3.5 4.5c-1.33301 10.667 -4.66602 19.5 -10 26.5c-5.33301 7 -11.5 13 -18.5 18s-14.5 9.83301 -22.5 14.5s-15.333 10.334 -22 17.001c-2 2 -2.83301 4.33301 -2.5 7s1.83301 4.33398 4.5 5.00098c14 4 25.333 12.333 34 25s14.5 26 17.5 40
s2.83301 26.333 -0.5 37s-10 16 -20 16c-9.33301 0 -19.666 -2.16699 -31 -6.5c-11.333 -4.33301 -22 -10.5 -32 -18.5s-18.333 -17.5 -25 -28.5s-10 -23.167 -10 -36.5c0 -16 4 -29.833 12 -41.5s18.167 -22.834 30.5 -33.501s25.5 -21.334 39.5 -32.001
s27.167 -22.667 39.5 -36s22.5 -29 30.5 -47s12 -39.333 12 -64c0 -9.33301 -2.16699 -21.5 -6.5 -36.5s-12.5 -29.5 -24.5 -43.5s-29 -26 -51 -36s-50.667 -15 -86 -15c-31.333 0 -59.166 5.16699 -83.5 15.5c-24.333 10.333 -45 22.5 -62 36.5s-30.5 27.833 -40.5 41.5
s-16 23.834 -18 30.501c-3.33301 6 -1.33301 9.66699 6 11c14.667 4 27 12.333 37 25s18.5 26.334 25.5 41.001l19.5 42.5c6 13.667 12.667 23.167 20 28.5c2.66699 2 5.33398 2 8 0c2.66699 -2 3.33398 -4.66699 2 -8c-10.667 -22.667 -15.5 -43 -14.5 -61
s5.66699 -33.167 14 -45.5s19.333 -21.833 33 -28.5s27.834 -10 42.5 -10c4 0 9.16699 0.833008 15.5 2.5s12.666 4.33398 19 8.00098c6.33301 3.66699 11.666 8.83398 16 15.501c4.33301 6.66699 6.5 15 6.5 25s-5.83301 21.167 -17.5 33.5l-39 41
c-14.333 15 -27.333 30.833 -39 47.5s-17.5 34.334 -17.5 53.001c0 18 3.66699 36.5 11 55.5s18.5 36.333 33.5 52s34.167 28.334 57.5 38.001s51 14.5 83 14.5zM3430 421.998c-0.666992 3.33301 0.5 6.16895 3.5 8.50195s6.16699 2.83301 9.5 1.5
c8 -3.33301 16.667 -7.33301 26 -12s20.666 -7 34 -7c17.333 0 34.666 2.83301 52 8.5c17.333 5.66699 30.666 9.83398 40 12.501c4 1.33301 7.5 0.166016 10.5 -3.50098s2.83301 -7.16699 -0.5 -10.5c-19.333 -18 -38 -40.167 -56 -66.5s-35.333 -54.5 -52 -84.5
c0.666992 0.666992 3.66699 5.16699 9 13.5l20.5 31c8.33301 12.333 18.333 25.333 30 39s24.334 26.5 38 38.5c13.667 12 28.167 21.833 43.5 29.5s31.333 11.5 48 11.5c26.667 0 43.834 -6.16699 51.5 -18.5c7.66699 -12.333 10 -27.833 7 -46.5s-9.33301 -39 -19 -61
l-27 -61c-8.33301 -18.667 -14.166 -34.167 -17.5 -46.5c-3.33301 -12.333 0.333984 -18.5 11 -18.5c10.667 0 21.5 3.5 32.5 10.5s21 15.167 30 24.5s17 18.666 24 27.999l15.5 21c2 3.33301 5 5 9 5s7 -1.83301 9 -5.5s2 -7.16699 0 -10.5
c-5.33301 -10 -13 -22.833 -23 -38.5s-21.5 -31 -34.5 -46s-26.833 -27.833 -41.5 -38.5s-29.334 -16 -44 -16c-11.333 0 -21 3.5 -29 10.5l-26 23.5c-9.33301 8.66699 -20.166 17.167 -32.5 25.5c-12.333 8.33301 -28.166 13.833 -47.5 16.5
c-4 0.666992 -6.33301 2.83398 -7 6.50098s0.666016 6.5 4 8.5c18 11.333 36.333 26.333 55 45s34.334 36.834 47 54.501c12.667 17.667 20.834 33 24.5 46c3.66699 13 -0.5 19.5 -12.5 19.5c-8.66699 0 -19.334 -5.16699 -32 -15.5
c-12.667 -10.333 -26.5 -23.833 -41.5 -40.5s-30.167 -35 -45.5 -55l-43 -58.5c-13.333 -19 -24.833 -36.5 -34.5 -52.5s-16.167 -28 -19.5 -36c-10.667 -34 -18.334 -65.667 -23 -95c-4.66699 -29.333 -5 -54 -1 -74c1.33301 -4 0.5 -7.83301 -2.5 -11.5
s-6.5 -5.5 -10.5 -5.5c-14 0 -27.167 1.16699 -39.5 3.5s-24.5 4.33301 -36.5 6s-24.167 1.66699 -36.5 0s-25.833 -6.5 -40.5 -14.5c-4 -2 -7.5 -1.66699 -10.5 1s-3.83301 5.66699 -2.5 9l42 88l46.5 95l45 95c14.333 31.333 27 60.666 38 87.999s19.5 51.666 25.5 72.999
s8.33301 38.666 7 51.999z" />
    <glyph glyph-name="uniE038" unicode="s&#x31;" 
d="M100 745h228v-995h-228v995zM153 -197h38h84v38h-84v46h84v38h-84h-38v-38v-46v-38zM153 -57h38h46h38v39v45v39h-38h-46h-38v-39v-45v-39zM237 27v-45h-46v45h46zM153 83h38h46h38v39v46v38h-38h-23v-38h23v-46h-46v84h-38v-84v-39zM153 373h27v-54h-27v-39h27h39v39v54
h56v39h-122v-39zM153 224h84h38v39v83h-38v-83h-84v-39zM153 430h38h22h38h24v38h-24v46v38h-38h-22h-38v-38v-46v-38zM213 514v-46h-22v46h22zM153 570h42h38h42v39h-42v45h42v38h-42h-38h-42v-38h42v-45h-42v-39z" />
    <glyph glyph-name="uniE039" unicode="s&#x32;" 
d="M100 745h228v-995h-228v995zM153 -197h38h84v38h-84v46h84v38h-84h-38v-38v-46v-38zM153 -57h38h46h38v39v45v39h-38h-46h-38v-39v-45v-39zM237 27v-45h-46v45h46zM153 83h38h46h38v39v46v38h-38h-23v-38h23v-46h-46v84h-38v-84v-39zM153 373h27v-54h-27v-39h27h39v39v54
h56v39h-122v-39zM153 224h84h38v39v83h-38v-83h-84v-39zM153 430h38h22h38h24v38h-24v46v38h-38h-22h-38v-38v-46v-38zM213 514v-46h-22v46h22zM153 570h42h38h42v39h-42v45h42v38h-42h-38h-42v-38h42v-45h-42v-39z" />
    <glyph glyph-name="uniE03A" unicode="s&#x33;" 
d="M100 745h228v-995h-228v995zM153 -197h38h84v38h-84v46h84v38h-84h-38v-38v-46v-38zM153 -57h38h46h38v39v45v39h-38h-46h-38v-39v-45v-39zM237 27v-45h-46v45h46zM153 83h38h46h38v39v46v38h-38h-23v-38h23v-46h-46v84h-38v-84v-39zM153 373h27v-54h-27v-39h27h39v39v54
h56v39h-122v-39zM153 224h84h38v39v83h-38v-83h-84v-39zM153 430h38h22h38h24v38h-24v46v38h-38h-22h-38v-38v-46v-38zM213 514v-46h-22v46h22zM153 570h42h38h42v39h-42v45h42v38h-42h-38h-42v-38h42v-45h-42v-39z" />
    <glyph glyph-name="uniE03B" unicode="s&#x34;" 
d="M100 745h228v-995h-228v995zM153 -197h38h84v38h-84v46h84v38h-84h-38v-38v-46v-38zM153 -57h38h46h38v39v45v39h-38h-46h-38v-39v-45v-39zM237 27v-45h-46v45h46zM153 83h38h46h38v39v46v38h-38h-23v-38h23v-46h-46v84h-38v-84v-39zM153 373h27v-54h-27v-39h27h39v39v54
h56v39h-122v-39zM153 224h84h38v39v83h-38v-83h-84v-39zM153 430h38h22h38h24v38h-24v46v38h-38h-22h-38v-38v-46v-38zM213 514v-46h-22v46h22zM153 570h42h38h42v39h-42v45h42v38h-42h-38h-42v-38h42v-45h-42v-39z" />
    <glyph glyph-name="uniE03C" unicode="s&#x35;" 
d="M100 745h228v-995h-228v995zM153 -197h38h84v38h-84v46h84v38h-84h-38v-38v-46v-38zM153 -57h38h46h38v39v45v39h-38h-46h-38v-39v-45v-39zM237 27v-45h-46v45h46zM153 83h38h46h38v39v46v38h-38h-23v-38h23v-46h-46v84h-38v-84v-39zM153 373h27v-54h-27v-39h27h39v39v54
h56v39h-122v-39zM153 224h84h38v39v83h-38v-83h-84v-39zM153 430h38h22h38h24v38h-24v46v38h-38h-22h-38v-38v-46v-38zM213 514v-46h-22v46h22zM153 570h42h38h42v39h-42v45h42v38h-42h-38h-42v-38h42v-45h-42v-39z" />
    <glyph glyph-name=".notdef" horiz-adv-x="333" 
 />
    <glyph glyph-name="NULL" horiz-adv-x="0" 
 />
    <glyph glyph-name="NULL" horiz-adv-x="0" 
 />
    <glyph glyph-name="nonmarkingreturn" unicode="&#xd;" horiz-adv-x="229" 
 />
    <glyph glyph-name="space" unicode=" " horiz-adv-x="229" 
 />
    <glyph glyph-name="exclam" unicode="!" 
d="M100 745h228v-995h-228v995zM153 -197h38h84v38h-84v46h84v38h-84h-38v-38v-46v-38zM153 -57h38h46h38v39v45v39h-38h-46h-38v-39v-45v-39zM237 27v-45h-46v45h46zM153 83h38h46h38v39v46v38h-38h-23v-38h23v-46h-46v84h-38v-84v-39zM153 373h27v-54h-27v-39h27h39v39v54
h56v39h-122v-39zM153 224h84h38v39v83h-38v-83h-84v-39zM153 430h38h22h38h24v38h-24v46v38h-38h-22h-38v-38v-46v-38zM213 514v-46h-22v46h22zM153 570h42h38h42v39h-42v45h42v38h-42h-38h-42v-38h42v-45h-42v-39z" />
    <glyph glyph-name="quotedbl" unicode="&#x22;" 
d="M100 745h228v-995h-228v995zM153 -197h38h84v38h-84v46h84v38h-84h-38v-38v-46v-38zM153 -57h38h46h38v39v45v39h-38h-46h-38v-39v-45v-39zM237 27v-45h-46v45h46zM153 83h38h46h38v39v46v38h-38h-23v-38h23v-46h-46v84h-38v-84v-39zM153 373h27v-54h-27v-39h27h39v39v54
h56v39h-122v-39zM153 224h84h38v39v83h-38v-83h-84v-39zM153 430h38h22h38h24v38h-24v46v38h-38h-22h-38v-38v-46v-38zM213 514v-46h-22v46h22zM153 570h42h38h42v39h-42v45h42v38h-42h-38h-42v-38h42v-45h-42v-39z" />
    <glyph glyph-name="numbersign" unicode="#" 
d="M100 745h228v-995h-228v995zM153 -197h38h84v38h-84v46h84v38h-84h-38v-38v-46v-38zM153 -57h38h46h38v39v45v39h-38h-46h-38v-39v-45v-39zM237 27v-45h-46v45h46zM153 83h38h46h38v39v46v38h-38h-23v-38h23v-46h-46v84h-38v-84v-39zM153 373h27v-54h-27v-39h27h39v39v54
h56v39h-122v-39zM153 224h84h38v39v83h-38v-83h-84v-39zM153 430h38h22h38h24v38h-24v46v38h-38h-22h-38v-38v-46v-38zM213 514v-46h-22v46h22zM153 570h42h38h42v39h-42v45h42v38h-42h-38h-42v-38h42v-45h-42v-39z" />
    <glyph glyph-name="dollar" unicode="$" 
d="M100 745h228v-995h-228v995zM153 -197h38h84v38h-84v46h84v38h-84h-38v-38v-46v-38zM153 -57h38h46h38v39v45v39h-38h-46h-38v-39v-45v-39zM237 27v-45h-46v45h46zM153 83h38h46h38v39v46v38h-38h-23v-38h23v-46h-46v84h-38v-84v-39zM153 373h27v-54h-27v-39h27h39v39v54
h56v39h-122v-39zM153 224h84h38v39v83h-38v-83h-84v-39zM153 430h38h22h38h24v38h-24v46v38h-38h-22h-38v-38v-46v-38zM213 514v-46h-22v46h22zM153 570h42h38h42v39h-42v45h42v38h-42h-38h-42v-38h42v-45h-42v-39z" />
    <glyph glyph-name="percent" unicode="%" 
d="M100 745h228v-995h-228v995zM153 -197h38h84v38h-84v46h84v38h-84h-38v-38v-46v-38zM153 -57h38h46h38v39v45v39h-38h-46h-38v-39v-45v-39zM237 27v-45h-46v45h46zM153 83h38h46h38v39v46v38h-38h-23v-38h23v-46h-46v84h-38v-84v-39zM153 373h27v-54h-27v-39h27h39v39v54
h56v39h-122v-39zM153 224h84h38v39v83h-38v-83h-84v-39zM153 430h38h22h38h24v38h-24v46v38h-38h-22h-38v-38v-46v-38zM213 514v-46h-22v46h22zM153 570h42h38h42v39h-42v45h42v38h-42h-38h-42v-38h42v-45h-42v-39z" />
    <glyph glyph-name="ampersand" unicode="&#x26;" 
d="M100 745h228v-995h-228v995zM153 -197h38h84v38h-84v46h84v38h-84h-38v-38v-46v-38zM153 -57h38h46h38v39v45v39h-38h-46h-38v-39v-45v-39zM237 27v-45h-46v45h46zM153 83h38h46h38v39v46v38h-38h-23v-38h23v-46h-46v84h-38v-84v-39zM153 373h27v-54h-27v-39h27h39v39v54
h56v39h-122v-39zM153 224h84h38v39v83h-38v-83h-84v-39zM153 430h38h22h38h24v38h-24v46v38h-38h-22h-38v-38v-46v-38zM213 514v-46h-22v46h22zM153 570h42h38h42v39h-42v45h42v38h-42h-38h-42v-38h42v-45h-42v-39z" />
    <glyph glyph-name="quotesingle" unicode="'" 
d="M100 745h228v-995h-228v995zM153 -197h38h84v38h-84v46h84v38h-84h-38v-38v-46v-38zM153 -57h38h46h38v39v45v39h-38h-46h-38v-39v-45v-39zM237 27v-45h-46v45h46zM153 83h38h46h38v39v46v38h-38h-23v-38h23v-46h-46v84h-38v-84v-39zM153 373h27v-54h-27v-39h27h39v39v54
h56v39h-122v-39zM153 224h84h38v39v83h-38v-83h-84v-39zM153 430h38h22h38h24v38h-24v46v38h-38h-22h-38v-38v-46v-38zM213 514v-46h-22v46h22zM153 570h42h38h42v39h-42v45h42v38h-42h-38h-42v-38h42v-45h-42v-39z" />
    <glyph glyph-name="parenleft" unicode="(" 
d="M100 745h228v-995h-228v995zM153 -197h38h84v38h-84v46h84v38h-84h-38v-38v-46v-38zM153 -57h38h46h38v39v45v39h-38h-46h-38v-39v-45v-39zM237 27v-45h-46v45h46zM153 83h38h46h38v39v46v38h-38h-23v-38h23v-46h-46v84h-38v-84v-39zM153 373h27v-54h-27v-39h27h39v39v54
h56v39h-122v-39zM153 224h84h38v39v83h-38v-83h-84v-39zM153 430h38h22h38h24v38h-24v46v38h-38h-22h-38v-38v-46v-38zM213 514v-46h-22v46h22zM153 570h42h38h42v39h-42v45h42v38h-42h-38h-42v-38h42v-45h-42v-39z" />
    <glyph glyph-name="parenright" unicode=")" 
d="M100 745h228v-995h-228v995zM153 -197h38h84v38h-84v46h84v38h-84h-38v-38v-46v-38zM153 -57h38h46h38v39v45v39h-38h-46h-38v-39v-45v-39zM237 27v-45h-46v45h46zM153 83h38h46h38v39v46v38h-38h-23v-38h23v-46h-46v84h-38v-84v-39zM153 373h27v-54h-27v-39h27h39v39v54
h56v39h-122v-39zM153 224h84h38v39v83h-38v-83h-84v-39zM153 430h38h22h38h24v38h-24v46v38h-38h-22h-38v-38v-46v-38zM213 514v-46h-22v46h22zM153 570h42h38h42v39h-42v45h42v38h-42h-38h-42v-38h42v-45h-42v-39z" />
    <glyph glyph-name="asterisk" unicode="*" 
d="M100 745h228v-995h-228v995zM153 -197h38h84v38h-84v46h84v38h-84h-38v-38v-46v-38zM153 -57h38h46h38v39v45v39h-38h-46h-38v-39v-45v-39zM237 27v-45h-46v45h46zM153 83h38h46h38v39v46v38h-38h-23v-38h23v-46h-46v84h-38v-84v-39zM153 373h27v-54h-27v-39h27h39v39v54
h56v39h-122v-39zM153 224h84h38v39v83h-38v-83h-84v-39zM153 430h38h22h38h24v38h-24v46v38h-38h-22h-38v-38v-46v-38zM213 514v-46h-22v46h22zM153 570h42h38h42v39h-42v45h42v38h-42h-38h-42v-38h42v-45h-42v-39z" />
    <glyph glyph-name="plus" unicode="+" 
d="M100 745h228v-995h-228v995zM153 -197h38h84v38h-84v46h84v38h-84h-38v-38v-46v-38zM153 -57h38h46h38v39v45v39h-38h-46h-38v-39v-45v-39zM237 27v-45h-46v45h46zM153 83h38h46h38v39v46v38h-38h-23v-38h23v-46h-46v84h-38v-84v-39zM153 373h27v-54h-27v-39h27h39v39v54
h56v39h-122v-39zM153 224h84h38v39v83h-38v-83h-84v-39zM153 430h38h22h38h24v38h-24v46v38h-38h-22h-38v-38v-46v-38zM213 514v-46h-22v46h22zM153 570h42h38h42v39h-42v45h42v38h-42h-38h-42v-38h42v-45h-42v-39z" />
    <glyph glyph-name="comma" unicode="," 
d="M100 745h228v-995h-228v995zM153 -197h38h84v38h-84v46h84v38h-84h-38v-38v-46v-38zM153 -57h38h46h38v39v45v39h-38h-46h-38v-39v-45v-39zM237 27v-45h-46v45h46zM153 83h38h46h38v39v46v38h-38h-23v-38h23v-46h-46v84h-38v-84v-39zM153 373h27v-54h-27v-39h27h39v39v54
h56v39h-122v-39zM153 224h84h38v39v83h-38v-83h-84v-39zM153 430h38h22h38h24v38h-24v46v38h-38h-22h-38v-38v-46v-38zM213 514v-46h-22v46h22zM153 570h42h38h42v39h-42v45h42v38h-42h-38h-42v-38h42v-45h-42v-39z" />
    <glyph glyph-name="hyphen" unicode="-" 
d="M100 745h228v-995h-228v995zM153 -197h38h84v38h-84v46h84v38h-84h-38v-38v-46v-38zM153 -57h38h46h38v39v45v39h-38h-46h-38v-39v-45v-39zM237 27v-45h-46v45h46zM153 83h38h46h38v39v46v38h-38h-23v-38h23v-46h-46v84h-38v-84v-39zM153 373h27v-54h-27v-39h27h39v39v54
h56v39h-122v-39zM153 224h84h38v39v83h-38v-83h-84v-39zM153 430h38h22h38h24v38h-24v46v38h-38h-22h-38v-38v-46v-38zM213 514v-46h-22v46h22zM153 570h42h38h42v39h-42v45h42v38h-42h-38h-42v-38h42v-45h-42v-39z" />
    <glyph glyph-name="period" unicode="." 
d="M100 745h228v-995h-228v995zM153 -197h38h84v38h-84v46h84v38h-84h-38v-38v-46v-38zM153 -57h38h46h38v39v45v39h-38h-46h-38v-39v-45v-39zM237 27v-45h-46v45h46zM153 83h38h46h38v39v46v38h-38h-23v-38h23v-46h-46v84h-38v-84v-39zM153 373h27v-54h-27v-39h27h39v39v54
h56v39h-122v-39zM153 224h84h38v39v83h-38v-83h-84v-39zM153 430h38h22h38h24v38h-24v46v38h-38h-22h-38v-38v-46v-38zM213 514v-46h-22v46h22zM153 570h42h38h42v39h-42v45h42v38h-42h-38h-42v-38h42v-45h-42v-39z" />
    <glyph glyph-name="slash" unicode="/" 
d="M100 745h228v-995h-228v995zM153 -197h38h84v38h-84v46h84v38h-84h-38v-38v-46v-38zM153 -57h38h46h38v39v45v39h-38h-46h-38v-39v-45v-39zM237 27v-45h-46v45h46zM153 83h38h46h38v39v46v38h-38h-23v-38h23v-46h-46v84h-38v-84v-39zM153 373h27v-54h-27v-39h27h39v39v54
h56v39h-122v-39zM153 224h84h38v39v83h-38v-83h-84v-39zM153 430h38h22h38h24v38h-24v46v38h-38h-22h-38v-38v-46v-38zM213 514v-46h-22v46h22zM153 570h42h38h42v39h-42v45h42v38h-42h-38h-42v-38h42v-45h-42v-39z" />
    <glyph glyph-name="zero" unicode="0" 
d="M100 745h228v-995h-228v995zM153 -197h38h84v38h-84v46h84v38h-84h-38v-38v-46v-38zM153 -57h38h46h38v39v45v39h-38h-46h-38v-39v-45v-39zM237 27v-45h-46v45h46zM153 83h38h46h38v39v46v38h-38h-23v-38h23v-46h-46v84h-38v-84v-39zM153 373h27v-54h-27v-39h27h39v39v54
h56v39h-122v-39zM153 224h84h38v39v83h-38v-83h-84v-39zM153 430h38h22h38h24v38h-24v46v38h-38h-22h-38v-38v-46v-38zM213 514v-46h-22v46h22zM153 570h42h38h42v39h-42v45h42v38h-42h-38h-42v-38h42v-45h-42v-39z" />
    <glyph glyph-name="one" unicode="1" 
d="M100 745h228v-995h-228v995zM153 -197h38h84v38h-84v46h84v38h-84h-38v-38v-46v-38zM153 -57h38h46h38v39v45v39h-38h-46h-38v-39v-45v-39zM237 27v-45h-46v45h46zM153 83h38h46h38v39v46v38h-38h-23v-38h23v-46h-46v84h-38v-84v-39zM153 373h27v-54h-27v-39h27h39v39v54
h56v39h-122v-39zM153 224h84h38v39v83h-38v-83h-84v-39zM153 430h38h22h38h24v38h-24v46v38h-38h-22h-38v-38v-46v-38zM213 514v-46h-22v46h22zM153 570h42h38h42v39h-42v45h42v38h-42h-38h-42v-38h42v-45h-42v-39z" />
    <glyph glyph-name="two" unicode="2" 
d="M100 745h228v-995h-228v995zM153 -197h38h84v38h-84v46h84v38h-84h-38v-38v-46v-38zM153 -57h38h46h38v39v45v39h-38h-46h-38v-39v-45v-39zM237 27v-45h-46v45h46zM153 83h38h46h38v39v46v38h-38h-23v-38h23v-46h-46v84h-38v-84v-39zM153 373h27v-54h-27v-39h27h39v39v54
h56v39h-122v-39zM153 224h84h38v39v83h-38v-83h-84v-39zM153 430h38h22h38h24v38h-24v46v38h-38h-22h-38v-38v-46v-38zM213 514v-46h-22v46h22zM153 570h42h38h42v39h-42v45h42v38h-42h-38h-42v-38h42v-45h-42v-39z" />
    <glyph glyph-name="three" unicode="3" 
d="M100 745h228v-995h-228v995zM153 -197h38h84v38h-84v46h84v38h-84h-38v-38v-46v-38zM153 -57h38h46h38v39v45v39h-38h-46h-38v-39v-45v-39zM237 27v-45h-46v45h46zM153 83h38h46h38v39v46v38h-38h-23v-38h23v-46h-46v84h-38v-84v-39zM153 373h27v-54h-27v-39h27h39v39v54
h56v39h-122v-39zM153 224h84h38v39v83h-38v-83h-84v-39zM153 430h38h22h38h24v38h-24v46v38h-38h-22h-38v-38v-46v-38zM213 514v-46h-22v46h22zM153 570h42h38h42v39h-42v45h42v38h-42h-38h-42v-38h42v-45h-42v-39z" />
    <glyph glyph-name="four" unicode="4" 
d="M100 745h228v-995h-228v995zM153 -197h38h84v38h-84v46h84v38h-84h-38v-38v-46v-38zM153 -57h38h46h38v39v45v39h-38h-46h-38v-39v-45v-39zM237 27v-45h-46v45h46zM153 83h38h46h38v39v46v38h-38h-23v-38h23v-46h-46v84h-38v-84v-39zM153 373h27v-54h-27v-39h27h39v39v54
h56v39h-122v-39zM153 224h84h38v39v83h-38v-83h-84v-39zM153 430h38h22h38h24v38h-24v46v38h-38h-22h-38v-38v-46v-38zM213 514v-46h-22v46h22zM153 570h42h38h42v39h-42v45h42v38h-42h-38h-42v-38h42v-45h-42v-39z" />
    <glyph glyph-name="five" unicode="5" 
d="M100 745h228v-995h-228v995zM153 -197h38h84v38h-84v46h84v38h-84h-38v-38v-46v-38zM153 -57h38h46h38v39v45v39h-38h-46h-38v-39v-45v-39zM237 27v-45h-46v45h46zM153 83h38h46h38v39v46v38h-38h-23v-38h23v-46h-46v84h-38v-84v-39zM153 373h27v-54h-27v-39h27h39v39v54
h56v39h-122v-39zM153 224h84h38v39v83h-38v-83h-84v-39zM153 430h38h22h38h24v38h-24v46v38h-38h-22h-38v-38v-46v-38zM213 514v-46h-22v46h22zM153 570h42h38h42v39h-42v45h42v38h-42h-38h-42v-38h42v-45h-42v-39z" />
    <glyph glyph-name="six" unicode="6" 
d="M100 745h228v-995h-228v995zM153 -197h38h84v38h-84v46h84v38h-84h-38v-38v-46v-38zM153 -57h38h46h38v39v45v39h-38h-46h-38v-39v-45v-39zM237 27v-45h-46v45h46zM153 83h38h46h38v39v46v38h-38h-23v-38h23v-46h-46v84h-38v-84v-39zM153 373h27v-54h-27v-39h27h39v39v54
h56v39h-122v-39zM153 224h84h38v39v83h-38v-83h-84v-39zM153 430h38h22h38h24v38h-24v46v38h-38h-22h-38v-38v-46v-38zM213 514v-46h-22v46h22zM153 570h42h38h42v39h-42v45h42v38h-42h-38h-42v-38h42v-45h-42v-39z" />
    <glyph glyph-name="seven" unicode="7" 
d="M100 745h228v-995h-228v995zM153 -197h38h84v38h-84v46h84v38h-84h-38v-38v-46v-38zM153 -57h38h46h38v39v45v39h-38h-46h-38v-39v-45v-39zM237 27v-45h-46v45h46zM153 83h38h46h38v39v46v38h-38h-23v-38h23v-46h-46v84h-38v-84v-39zM153 373h27v-54h-27v-39h27h39v39v54
h56v39h-122v-39zM153 224h84h38v39v83h-38v-83h-84v-39zM153 430h38h22h38h24v38h-24v46v38h-38h-22h-38v-38v-46v-38zM213 514v-46h-22v46h22zM153 570h42h38h42v39h-42v45h42v38h-42h-38h-42v-38h42v-45h-42v-39z" />
    <glyph glyph-name="eight" unicode="8" 
d="M100 745h228v-995h-228v995zM153 -197h38h84v38h-84v46h84v38h-84h-38v-38v-46v-38zM153 -57h38h46h38v39v45v39h-38h-46h-38v-39v-45v-39zM237 27v-45h-46v45h46zM153 83h38h46h38v39v46v38h-38h-23v-38h23v-46h-46v84h-38v-84v-39zM153 373h27v-54h-27v-39h27h39v39v54
h56v39h-122v-39zM153 224h84h38v39v83h-38v-83h-84v-39zM153 430h38h22h38h24v38h-24v46v38h-38h-22h-38v-38v-46v-38zM213 514v-46h-22v46h22zM153 570h42h38h42v39h-42v45h42v38h-42h-38h-42v-38h42v-45h-42v-39z" />
    <glyph glyph-name="nine" unicode="9" 
d="M100 745h228v-995h-228v995zM153 -197h38h84v38h-84v46h84v38h-84h-38v-38v-46v-38zM153 -57h38h46h38v39v45v39h-38h-46h-38v-39v-45v-39zM237 27v-45h-46v45h46zM153 83h38h46h38v39v46v38h-38h-23v-38h23v-46h-46v84h-38v-84v-39zM153 373h27v-54h-27v-39h27h39v39v54
h56v39h-122v-39zM153 224h84h38v39v83h-38v-83h-84v-39zM153 430h38h22h38h24v38h-24v46v38h-38h-22h-38v-38v-46v-38zM213 514v-46h-22v46h22zM153 570h42h38h42v39h-42v45h42v38h-42h-38h-42v-38h42v-45h-42v-39z" />
    <glyph glyph-name="colon" unicode=":" 
d="M100 745h228v-995h-228v995zM153 -197h38h84v38h-84v46h84v38h-84h-38v-38v-46v-38zM153 -57h38h46h38v39v45v39h-38h-46h-38v-39v-45v-39zM237 27v-45h-46v45h46zM153 83h38h46h38v39v46v38h-38h-23v-38h23v-46h-46v84h-38v-84v-39zM153 373h27v-54h-27v-39h27h39v39v54
h56v39h-122v-39zM153 224h84h38v39v83h-38v-83h-84v-39zM153 430h38h22h38h24v38h-24v46v38h-38h-22h-38v-38v-46v-38zM213 514v-46h-22v46h22zM153 570h42h38h42v39h-42v45h42v38h-42h-38h-42v-38h42v-45h-42v-39z" />
    <glyph glyph-name="semicolon" unicode=";" 
d="M100 745h228v-995h-228v995zM153 -197h38h84v38h-84v46h84v38h-84h-38v-38v-46v-38zM153 -57h38h46h38v39v45v39h-38h-46h-38v-39v-45v-39zM237 27v-45h-46v45h46zM153 83h38h46h38v39v46v38h-38h-23v-38h23v-46h-46v84h-38v-84v-39zM153 373h27v-54h-27v-39h27h39v39v54
h56v39h-122v-39zM153 224h84h38v39v83h-38v-83h-84v-39zM153 430h38h22h38h24v38h-24v46v38h-38h-22h-38v-38v-46v-38zM213 514v-46h-22v46h22zM153 570h42h38h42v39h-42v45h42v38h-42h-38h-42v-38h42v-45h-42v-39z" />
    <glyph glyph-name="less" unicode="&#x3c;" 
d="M100 745h228v-995h-228v995zM153 -197h38h84v38h-84v46h84v38h-84h-38v-38v-46v-38zM153 -57h38h46h38v39v45v39h-38h-46h-38v-39v-45v-39zM237 27v-45h-46v45h46zM153 83h38h46h38v39v46v38h-38h-23v-38h23v-46h-46v84h-38v-84v-39zM153 373h27v-54h-27v-39h27h39v39v54
h56v39h-122v-39zM153 224h84h38v39v83h-38v-83h-84v-39zM153 430h38h22h38h24v38h-24v46v38h-38h-22h-38v-38v-46v-38zM213 514v-46h-22v46h22zM153 570h42h38h42v39h-42v45h42v38h-42h-38h-42v-38h42v-45h-42v-39z" />
    <glyph glyph-name="equal" unicode="=" 
d="M100 745h228v-995h-228v995zM153 -197h38h84v38h-84v46h84v38h-84h-38v-38v-46v-38zM153 -57h38h46h38v39v45v39h-38h-46h-38v-39v-45v-39zM237 27v-45h-46v45h46zM153 83h38h46h38v39v46v38h-38h-23v-38h23v-46h-46v84h-38v-84v-39zM153 373h27v-54h-27v-39h27h39v39v54
h56v39h-122v-39zM153 224h84h38v39v83h-38v-83h-84v-39zM153 430h38h22h38h24v38h-24v46v38h-38h-22h-38v-38v-46v-38zM213 514v-46h-22v46h22zM153 570h42h38h42v39h-42v45h42v38h-42h-38h-42v-38h42v-45h-42v-39z" />
    <glyph glyph-name="greater" unicode="&#x3e;" 
d="M100 745h228v-995h-228v995zM153 -197h38h84v38h-84v46h84v38h-84h-38v-38v-46v-38zM153 -57h38h46h38v39v45v39h-38h-46h-38v-39v-45v-39zM237 27v-45h-46v45h46zM153 83h38h46h38v39v46v38h-38h-23v-38h23v-46h-46v84h-38v-84v-39zM153 373h27v-54h-27v-39h27h39v39v54
h56v39h-122v-39zM153 224h84h38v39v83h-38v-83h-84v-39zM153 430h38h22h38h24v38h-24v46v38h-38h-22h-38v-38v-46v-38zM213 514v-46h-22v46h22zM153 570h42h38h42v39h-42v45h42v38h-42h-38h-42v-38h42v-45h-42v-39z" />
    <glyph glyph-name="question" unicode="?" 
d="M100 745h228v-995h-228v995zM153 -197h38h84v38h-84v46h84v38h-84h-38v-38v-46v-38zM153 -57h38h46h38v39v45v39h-38h-46h-38v-39v-45v-39zM237 27v-45h-46v45h46zM153 83h38h46h38v39v46v38h-38h-23v-38h23v-46h-46v84h-38v-84v-39zM153 373h27v-54h-27v-39h27h39v39v54
h56v39h-122v-39zM153 224h84h38v39v83h-38v-83h-84v-39zM153 430h38h22h38h24v38h-24v46v38h-38h-22h-38v-38v-46v-38zM213 514v-46h-22v46h22zM153 570h42h38h42v39h-42v45h42v38h-42h-38h-42v-38h42v-45h-42v-39z" />
    <glyph glyph-name="at" unicode="@" 
d="M100 745h228v-995h-228v995zM153 -197h38h84v38h-84v46h84v38h-84h-38v-38v-46v-38zM153 -57h38h46h38v39v45v39h-38h-46h-38v-39v-45v-39zM237 27v-45h-46v45h46zM153 83h38h46h38v39v46v38h-38h-23v-38h23v-46h-46v84h-38v-84v-39zM153 373h27v-54h-27v-39h27h39v39v54
h56v39h-122v-39zM153 224h84h38v39v83h-38v-83h-84v-39zM153 430h38h22h38h24v38h-24v46v38h-38h-22h-38v-38v-46v-38zM213 514v-46h-22v46h22zM153 570h42h38h42v39h-42v45h42v38h-42h-38h-42v-38h42v-45h-42v-39z" />
    <glyph glyph-name="A" unicode="A" horiz-adv-x="934" 
d="M1231 753c-37.333 -5.33301 -72.666 -22.6689 -105.999 -52.002s-64.166 -65.666 -92.499 -108.999s-54 -91.5 -77 -144.5s-42.5 -105.833 -58.5 -158.5s-28.333 -102.834 -37 -150.501s-13 -88.167 -13 -121.5c0 -74 11.5 -128.833 34.5 -164.5s53.5 -56.167 91.5 -61.5
c4 -0.666992 6.66699 -2.66699 8 -6s0.333008 -6.66602 -3 -9.99902c-8.66699 -7.33301 -19.167 -17.666 -31.5 -30.999s-24.5 -29.833 -36.5 -49.5s-23.167 -42.167 -33.5 -67.5s-17.5 -53.666 -21.5 -84.999c-0.666992 -4.66699 -3.16699 -8.16699 -7.5 -10.5
s-8.83301 -2.16602 -13.5 0.500977c-12 6.66699 -27.333 18.167 -46 34.5s-36.834 38.833 -54.501 67.5s-33 64.167 -46 106.5s-19.5 93.5 -19.5 153.5c0 55.333 8.5 118.5 25.5 189.5s41.5 143.5 73.5 217.5c-6.66699 9.33301 -16.167 18.666 -28.5 27.999
s-29.166 16.666 -50.499 21.999c-30.667 -55.333 -60.167 -111.333 -88.5 -168l-84 -164c-27.667 -52.667 -55.5 -102.167 -83.5 -148.5s-57.167 -87 -87.5 -122s-62 -62.833 -95 -83.5s-68.167 -32 -105.5 -34c-2.66699 -0.666992 -4.83398 0 -6.50098 2
s-2.5 4.33301 -2.5 7c2 18.667 2.16699 38.5 0.5 59.5s-5.66699 41.333 -12 61s-14.833 38.167 -25.5 55.5s-23.334 32 -38.001 44c-10.667 8.66699 -19.5 18.334 -26.5 29.001s-12.833 21.667 -17.5 33s-8.33398 22.5 -11.001 33.5s-4.33398 20.5 -5.00098 28.5
c-0.666992 3.33301 0.666016 6 3.99902 8s6.66602 2.33301 9.99902 1c8 -5.33301 21.167 -9.83301 39.5 -13.5s44.833 -5.5 79.5 -5.5c34 0 67 10 99 30s64 47 96 81s64.5 73.167 97.5 117.5l102.5 140.5c-26.667 -7.33301 -53 -18 -79 -32s-51.167 -31.5 -75.5 -52.5
s-47 -46 -68 -75s-39.833 -61.833 -56.5 -98.5c-2.66699 -5.33301 -6.66699 -7.83301 -12 -7.5s-8.66602 3.16602 -9.99902 8.49902c-2.66699 10 -6.5 21.333 -11.5 34s-11.167 25.5 -18.5 38.5s-16.333 25.5 -27 37.5s-23 22.667 -37 32
c-3.33301 2 -5.33301 5.16699 -6 9.5s0.333008 8.16602 3 11.499c8.66699 10 23.667 24.5 45 43.5s49.333 37.667 84 56s76.667 34.333 126 48s106.666 20.5 171.999 20.5c4.66699 0 8.83398 -0.166992 12.501 -0.5s7.5 -0.5 11.5 -0.5
c46.667 63.333 96.334 125 149.001 185s110.334 112.333 173.001 157c-36 0.666992 -71.167 1.5 -105.5 2.5s-66 1.83301 -95 2.5s-54.333 1.16699 -76 1.5s-37.167 0.5 -46.5 0.5c-30.667 0 -61 -5.16699 -91 -15.5s-56.833 -24 -80.5 -41s-42.834 -36.5 -57.501 -58.5
s-22 -44.667 -22 -68c0 -28 4.83301 -52 14.5 -72s19.5 -36 29.5 -48c2 -3.33301 2 -6.66602 0 -9.99902s-5 -4.33301 -9 -3c-24 8 -47 12 -69 12s-42 -1.66699 -60 -5s-33.833 -8 -47.5 -14s-24.167 -11 -31.5 -15c-4 -2 -8.16699 -2.66699 -12.5 -2
s-8.16602 2.66699 -11.499 6c-4.66699 5.33301 -9.83398 12.333 -15.501 21s-11.167 19 -16.5 31s-9.83301 25.833 -13.5 41.5s-5.5 33.167 -5.5 52.5c0 26.667 7.66699 55.667 23 87s38.333 60.5 69 87.5s68.334 49.5 113.001 67.5s96.667 27 156 27
c32.667 0 70.167 -1.33301 112.5 -4s87 -6 134 -10s95 -8.5 144 -13.5l141.5 -14.5c42 23.333 86 41.666 132 54.999s95 20 147 20c30 0 53.5 -4 70.5 -12s27.833 -17.667 32.5 -29s3.33398 -23.166 -3.99902 -35.499s-20.333 -22.833 -39 -31.5
c-1.33301 -4 -6.83301 -7.66699 -16.5 -11s-23.5 -5 -41.5 -5h-1c-3.33301 -0.666992 -7 -1.16699 -11 -1.5s-8 -0.5 -12 -0.5zM1284 855.997c-42 0 -81.332 -5.16797 -117.999 -15.501s-72 -25.166 -106 -44.499c32 -3.33301 61.333 -5.83301 88 -7.5
s49.334 -2.5 68.001 -2.5c12.667 2 25.667 3 39 3c15.333 3.33301 26.833 8.66602 34.5 15.999s12.167 14.833 13.5 22.5s0.166016 14.334 -3.50098 20.001s-8.83398 8.5 -15.501 8.5zM785.001 341.996c20.667 44 43.3311 87 67.998 129s51.334 81 80.001 117
s58.834 68.333 90.501 97s64.5 51.667 98.5 69c-18 0.666992 -37.333 1 -58 1s-42 0.333008 -64 1c-58 -43.333 -110.333 -96.833 -157 -160.5s-91 -132.167 -133 -205.5c17.333 -7.33301 32 -15 44 -23s22.333 -16.333 31 -25z" />
    <glyph glyph-name="B" unicode="B" horiz-adv-x="1010" 
d="M1162 814c-12.667 -3.33301 -26.3203 -12.1689 -40.9873 -26.502s-26.667 -31.166 -36 -50.499c-1.33301 -3.33301 -3.83301 -5 -7.5 -5s-6.16699 1.66699 -7.5 5c-2.66699 5.33301 -6.33398 11.333 -11.001 18s-10.834 12.834 -18.501 18.501s-17 10.334 -28 14.001
s-24.5 5.5 -40.5 5.5c-22.667 0 -46.334 -13 -71.001 -39c38 -24.667 64.833 -54.5 80.5 -89.5s20.834 -71 15.501 -108s-20.666 -72.833 -45.999 -107.5s-60 -64 -104 -88c38 -28.667 67.5 -63.834 88.5 -105.501s33.833 -85.334 38.5 -131.001s1.5 -91.167 -9.5 -136.5
s-29.333 -86 -55 -122s-58.167 -65.167 -97.5 -87.5s-85 -33.5 -137 -33.5c-18.667 0 -35 1.5 -49 4.5s-26.167 6.5 -36.5 10.5s-18.833 8.5 -25.5 13.5s-12 9.5 -16 13.5c-7.33301 7.33301 -8.66602 15.666 -3.99902 24.999c6 12 9.66699 25.833 11 41.5s1.5 31.667 0.5 48
s-2.33301 32.333 -4 48s-2.83398 29.5 -3.50098 41.5c0 3.33301 1.5 5.66602 4.5 6.99902s5.16699 0.333008 6.5 -3c7.33301 -10.667 21 -21.5 41 -32.5s50.667 -16.5 92 -16.5c29.333 0 54.5 6.5 75.5 19.5s37.667 30.333 50 52s20.5 46.167 24.5 73.5
s4.16699 55.166 0.5 83.499s-11.334 56 -23.001 83s-26.834 51.167 -45.501 72.5c-15.333 -5.33301 -31.833 -9.83301 -49.5 -13.5s-36.167 -6.5 -55.5 -8.5l-71 -157.5c-24.667 -53 -50.334 -104.167 -77.001 -153.5s-54.334 -95.666 -83.001 -138.999
s-58.5 -81.166 -89.5 -113.499s-63.5 -58.333 -97.5 -78s-69.667 -30.167 -107 -31.5c-6 0 -9 3 -9 9c2.66699 18.667 3 38.5 1 59.5s-6.16699 41.5 -12.5 61.5s-14.833 38.667 -25.5 56s-23.334 32 -38.001 44c-10.667 8 -19.5 17.5 -26.5 28.5s-12.833 22 -17.5 33
s-8.33398 22 -11.001 33s-4.33398 20.5 -5.00098 28.5c-0.666992 4 0.666016 7 3.99902 9s6.66602 2 9.99902 0c8 -4.66699 21.167 -9 39.5 -13s44.833 -6 79.5 -6c32 0 64.167 9.16699 96.5 27.5s64.5 43.166 96.5 74.499s64 67.666 96 108.999s64 85 96 131
c-22 7.33301 -38.167 16.666 -48.5 27.999s-13.333 22.5 -9 33.5s17 20.833 38 29.5s51.5 14 91.5 16l112.5 165.5c37 53.667 74.167 101.834 111.5 144.501c-18.667 12.667 -41.167 22.5 -67.5 29.5s-57.5 10.5 -93.5 10.5c-57.333 0 -106.666 -11 -147.999 -33
s-75.166 -49.5 -101.499 -82.5s-45.5 -69.167 -57.5 -108.5s-17.333 -76.166 -16 -110.499s8.83301 -63.666 22.5 -87.999s33.167 -38.166 58.5 -41.499c3.33301 -0.666992 5.66602 -2.16699 6.99902 -4.5s1 -4.83301 -1 -7.5c-4.66699 -6.66699 -12.5 -15 -23.5 -25
l-46.5 -42c-14 -12 -25.167 -24.5 -33.5 -37.5s-14.833 -25.5 -19.5 -37.5s-7.83398 -22.833 -9.50098 -32.5s-2.83398 -17.167 -3.50098 -22.5c0 -3.33301 -1.16699 -5.66602 -3.5 -6.99902s-4.83301 -1.66602 -7.5 -0.999023c-12 3.33301 -25 12 -39 26s-27 32.5 -39 55.5
s-22.167 50.333 -30.5 82s-12.5 66.834 -12.5 105.501c0 28 5.33301 58.5 16 91.5s26 66 46 99s44.667 65 74 96s62.833 58.5 100.5 82.5s79.167 43.167 124.5 57.5s94.333 21.5 147 21.5c40 0 76.333 -3 109 -9s61.667 -14.333 87 -25c31.333 32 62.333 57.333 93 76
s61 28 91 28c17.333 0 33.166 -2 47.499 -6s27 -8.83301 38 -14.5s20.167 -11.834 27.5 -18.501s13 -12.667 17 -18c1.33301 -2 1.66602 -4.33301 0.999023 -7s-2.66699 -4.33398 -6 -5.00098zM781.014 397.997c24 19.333 44.334 41.668 61.001 67.001s28.667 51.5 36 78.5
s9.5 53.833 6.5 80.5s-12.167 50.667 -27.5 72c-22.667 -34.667 -45.334 -75.834 -68.001 -123.501l-71 -154.5c11.333 -2.66699 22.333 -5.5 33 -8.5s20.667 -6.83301 30 -11.5zM566.015 389.999c-21.333 -5.33301 -35 -12.333 -41 -21s-2.33301 -16 11 -22z
M687.015 348.999c16 4.66699 31 10.668 45 18.001c-5.33301 3.33301 -10.333 6.16602 -15 8.49902l-15 7.5z" />
    <glyph glyph-name="C" unicode="C" horiz-adv-x="658" 
d="M740 257c-50.667 -91.333 -104.004 -172.332 -160.004 -242.999c-24 -30.667 -49.833 -60.5 -77.5 -89.5s-56.5 -54.833 -86.5 -77.5s-60.667 -41 -92 -55s-63 -21 -95 -21c-48 0 -87.833 9.66699 -119.5 29s-56.334 45.666 -74.001 78.999s-28.667 72.166 -33 116.499
s-2.83301 91.5 4.5 141.5s19.833 101.167 37.5 153.5s40 103.5 67 153.5s58 97.167 93 141.5s73 83.166 114 116.499s84.833 59.666 131.5 78.999s95 29 145 29c38.667 0 68.834 -8 90.501 -24s36.5 -37.333 44.5 -64s10.333 -57.334 7 -92.001
s-10.666 -70.334 -21.999 -107.001s-25.666 -73 -42.999 -109s-35.666 -69 -54.999 -99s-39.166 -55.5 -59.499 -76.5s-38.833 -34.833 -55.5 -41.5c-4 -2 -8 -1.66699 -12 1s-5.66699 6.33398 -5 11.001c1.33301 30.667 -2.16699 55.834 -10.5 75.501
s-18.5 36.334 -30.5 50.001s-24 25.334 -36 35.001s-21 19.5 -27 29.5c-2 3.33301 -1.83301 6.83301 0.5 10.5s5.83301 4.83398 10.5 3.50098c22.667 -5.33301 47.334 0 74.001 16s52 37.333 76 64s44.833 56.334 62.5 89.001s29.167 63.334 34.5 92.001s2.5 52.667 -8.5 72
s-33.167 29 -66.5 29c-34.667 0 -70.167 -12 -106.5 -36s-71.333 -55.5 -105 -94.5s-64.834 -83.333 -93.501 -133s-52.834 -100.667 -72.501 -153s-33.5 -103.333 -41.5 -153s-8.16699 -94 -0.5 -133s24.334 -70.5 50.001 -94.5s62.834 -36 111.501 -36
c27.333 0 54.333 4.66699 81 14s52.5 21.666 77.5 36.999s48.667 32.666 71 51.999s43.166 39.333 62.499 60c45.333 48 87.333 102.667 126 164l16 -12v0z" />
    <glyph glyph-name="D" unicode="D" horiz-adv-x="1089" 
d="M899 748c45.333 -28.667 81.6699 -65.0049 109.003 -109.005s46.833 -92.167 58.5 -144.5s16.334 -107.333 14.001 -165s-10.666 -114.5 -24.999 -170.5s-34 -109.167 -59 -159.5s-53.667 -94.666 -86 -132.999s-68.166 -68.833 -107.499 -91.5s-80.666 -34 -123.999 -34
c-21.333 0 -40.333 2.16699 -57 6.5s-31.5 9.33301 -44.5 15s-23.833 11.5 -32.5 17.5l-20 14c-4.66699 3.33301 -7.5 7.5 -8.5 12.5s-0.5 10.167 1.5 15.5c12 30.667 19.667 61.834 23 93.501s4.66602 59.167 3.99902 82.5
c-0.666992 4.66699 1.16602 7.83398 5.49902 9.50098s8.16602 0.5 11.499 -3.5c8.66699 -9.33301 23.167 -18.666 43.5 -27.999s50.833 -14 91.5 -14c45.333 0 86.333 13.667 123 41s67.5 63 92.5 107s43.667 93.333 56 148s17 109.334 14 164.001
s-14.333 106.334 -34 155.001s-48.834 89 -87.501 121c-22.667 -33.333 -45.667 -74 -69 -122l-72 -155.5l-77 -174c-26.667 -60.333 -54.334 -119.333 -83.001 -177s-58.667 -112.667 -90 -165s-64.333 -98.333 -99 -138s-70.834 -71.667 -108.501 -96
s-77.5 -37.5 -119.5 -39.5c-2.66699 -0.666992 -4.66699 0 -6 2s-2 4.33301 -2 7c2 18.667 2.16699 38.5 0.5 59.5s-5.66699 41.333 -12 61s-14.833 38.167 -25.5 55.5s-23.334 32 -38.001 44c-10.667 8.66699 -19.5 18.334 -26.5 29.001s-12.833 21.667 -17.5 33
s-8.33398 22.5 -11.001 33.5s-4.33398 20.5 -5.00098 28.5c-0.666992 3.33301 0.666016 6.16602 3.99902 8.49902s6.66602 2.5 9.99902 0.5c8 -5.33301 21.167 -9.83301 39.5 -13.5s44.833 -5.5 79.5 -5.5c38 0 76 12.667 114 38s76 59 114 101s76 89.667 114 143
l113.5 164.5l112.5 165.5c37.333 54 74.333 102.333 111 145c-43.333 22.667 -94.666 34 -153.999 34c-60.667 0 -111.5 -10.667 -152.5 -32s-73.667 -48.166 -98 -80.499s-41.166 -67.666 -50.499 -105.999s-13.166 -74.333 -11.499 -108s8.33398 -62.667 20.001 -87
s26.5 -38.833 44.5 -43.5c6 -1.33301 7.66699 -5 5 -11c-9.33301 -14 -21.5 -26.833 -36.5 -38.5s-30 -24.5 -45 -38.5s-28.333 -30.167 -40 -48.5s-18.167 -40.833 -19.5 -67.5c0 -3.33301 -1.16699 -6 -3.5 -8s-5.16602 -2.66699 -8.49902 -2
c-22.667 3.33301 -42 16.166 -58 38.499s-27.667 50.666 -35 84.999s-10.166 72.666 -8.49902 114.999s9 85.5 22 129.5s32 86.833 57 128.5s56.833 78.667 95.5 111s84.667 58.333 138 78s115 29.5 185 29.5c38 0 72.833 -3.16699 104.5 -9.5
s60.834 -15.166 87.501 -26.499c32 32.667 63.5 58.5 94.5 77.5s61.833 28.5 92.5 28.5c17.333 0 33.166 -2 47.499 -6s27 -8.83301 38 -14.5s20.167 -11.834 27.5 -18.501s12.666 -12.334 15.999 -17.001c2 -2.66699 2.66699 -5.33398 2 -8.00098
s-2.66699 -4.33398 -6 -5.00098c-12.667 -3.33301 -26.334 -12.166 -41.001 -26.499s-26.667 -31.166 -36 -50.499c-1.33301 -3.33301 -3.83301 -5 -7.5 -5s-6.16699 1.66699 -7.5 5c-2.66699 6 -6.33398 12.167 -11.001 18.5s-10.834 12.333 -18.501 18
s-17.167 10.334 -28.5 14.001s-24.666 5.5 -39.999 5.5c-23.333 0 -47.666 -13.667 -72.999 -41z" />
    <glyph glyph-name="E" unicode="E" horiz-adv-x="658" 
d="M357 -66c22.667 0 45.332 4.84375 67.999 14.5107s44.667 22.334 66 38.001s42 33.5 62 53.5s38.667 40.667 56 62c40.667 49.333 79.334 105.666 116.001 168.999l15 -14c-45.333 -94.667 -95 -179 -149 -253c-23.333 -31.333 -48.5 -62.166 -75.5 -92.499
s-55.5 -57.333 -85.5 -81s-61.167 -42.667 -93.5 -57s-65.5 -21.5 -99.5 -21.5c-56 0 -101.833 12.667 -137.5 38s-61.667 57.666 -78 96.999s-23.5 83.166 -21.5 131.499s12.5 95.666 31.5 141.999s46 88.833 81 127.5s77.5 68.334 127.5 89.001
c-13.333 24 -21.166 50.833 -23.499 80.5s0.5 59.667 8.5 90s21 60 39 89s41 54.833 69 77.5s60.667 40.834 98 54.501s79.666 20.5 126.999 20.5c48.667 0 86 -9.83301 112 -29.5s43.5 -44.334 52.5 -74.001s11 -61.834 6 -96.501s-13.667 -66.834 -26 -96.501
s-26.833 -54.334 -43.5 -74.001s-32.667 -29.5 -48 -29.5c0 16.667 -4.16699 31.5 -12.5 44.5s-18 24.333 -29 34s-22 18 -33 25s-19.5 12.833 -25.5 17.5c22 8 40.5 18.667 55.5 32s26.167 27.5 33.5 42.5s11 30.167 11 45.5s-4 29.166 -12 41.499s-19.667 22.333 -35 30
s-34.666 11.5 -57.999 11.5c-32.667 0 -61.5 -5.33301 -86.5 -16s-46.5 -24.834 -64.5 -42.501s-32.5 -37.834 -43.5 -60.501s-18.833 -45.834 -23.5 -69.501s-6.16699 -46.834 -4.5 -69.501s6.5 -42.667 14.5 -60c26 6 53.667 9 83 9c46 0 79.833 -6 101.5 -18
s32.667 -25.167 33 -39.5s-9.16699 -27.5 -28.5 -39.5s-47 -18 -83 -18c-30 0 -56.333 4.66699 -79 14s-41.667 21.666 -57 36.999c-26 -16.667 -47.5 -38.167 -64.5 -64.5s-29.167 -54.5 -36.5 -84.5s-9.33301 -60.333 -6 -91s12.666 -58.334 27.999 -83.001
s36.833 -44.667 64.5 -60s62.167 -23 103.5 -23zM372.998 370.011c-9.33301 0 -18.666 -0.5 -27.999 -1.5s-18 -2.83301 -26 -5.5c16 -18 35.333 -27 58 -27c16 0 28 1.83301 36 5.5s11.833 7.5 11.5 11.5s-4.83301 7.83301 -13.5 11.5s-21.334 5.5 -38.001 5.5z" />
    <glyph glyph-name="F" unicode="F" horiz-adv-x="826" 
d="M985 802c-18 -6 -36.4951 -19.6689 -55.4951 -41.002s-38.333 -48.333 -58 -81s-39.834 -69.834 -60.501 -111.501l-64 -132.5c12.667 -4.66699 23.334 -7.66699 32.001 -9c15.333 16.667 31.166 28.667 47.499 36s31.166 10.833 44.499 10.5
s24.166 -3.83301 32.499 -10.5s12.5 -15.667 12.5 -27s-2.83301 -20.5 -8.5 -27.5s-13.5 -12.333 -23.5 -16s-21.667 -6 -35 -7s-27.666 -1.16699 -42.999 -0.5c-2 -8.66699 -3.5 -18.334 -4.5 -29.001s-1.33301 -22 -1 -34s1.66602 -24 3.99902 -36s5.5 -23.333 9.5 -34
c3.33301 -9.33301 1.33301 -15.666 -6 -18.999c-19.333 -8 -37.666 -19.167 -54.999 -33.5s-31.333 -26.5 -42 -36.5c-2.66699 -2.66699 -5.66699 -3.16699 -9 -1.5s-5 4.5 -5 8.5c1.33301 50 7 92.833 17 128.5s22 65.5 36 89.5c-4 0.666992 -8 1 -12 1s-8 0.333008 -12 1
l-80 -174.5c-27.333 -59.667 -56 -117.834 -86 -174.501s-60.833 -110.5 -92.5 -161.5s-64.834 -95.667 -99.501 -134s-70.667 -69.166 -108 -92.499s-76 -36 -116 -38c-3.33301 -0.666992 -5.66602 0 -6.99902 2s-2 4.33301 -2 7c2 18.667 2.16699 38.5 0.5 59.5
s-5.66699 41.333 -12 61s-14.833 38.167 -25.5 55.5s-23.334 32 -38.001 44c-10.667 8.66699 -19.5 18.334 -26.5 29.001s-12.833 21.667 -17.5 33s-8.33398 22.5 -11.001 33.5s-4.33398 20.5 -5.00098 28.5c-0.666992 3.33301 0.5 6 3.5 8s6.16699 2.33301 9.5 1
c8.66699 -5.33301 22.167 -9.83301 40.5 -13.5s44.833 -5.5 79.5 -5.5c35.333 0 71.166 11.5 107.499 34.5s72.833 53.667 109.5 92s73.5 82.333 110.5 132l111.5 155.5c-16 -6 -29.833 -12.5 -41.5 -19.5s-21.167 -13.167 -28.5 -18.5
c-2.66699 -1.33301 -5.33398 -1.33301 -8.00098 0s-4 3.66602 -4 6.99902c0.666992 23.333 -3.5 41.833 -12.5 55.5s-17.5 23.834 -25.5 30.501c-3.33301 2.66699 -4.5 5.83398 -3.5 9.50098s3.16699 6.16699 6.5 7.5c28 12.667 57.167 19.834 87.5 21.501
s60.5 0.166992 90.5 -4.5l140.5 198.5c46.333 63 92.166 115.167 137.499 156.5c-32 4 -68.333 6 -109 6c-60 0 -111.5 -8.16699 -154.5 -24.5s-79.333 -37.166 -109 -62.499s-53.667 -53 -72 -83s-32.5 -58.833 -42.5 -86.5s-16.667 -52 -20 -73s-5 -34.833 -5 -41.5
c-1.33301 -6.66699 -6.66602 -11.667 -15.999 -15s-21 -6.5 -35 -9.5s-29.5 -6.83301 -46.5 -11.5s-33.667 -12 -50 -22s-31.333 -23.5 -45 -40.5s-24.167 -39.167 -31.5 -66.5c-1.33301 -4 -4 -7 -8 -9s-8 -2 -12 0c-12.667 6.66699 -23.834 20.5 -33.501 41.5
s-15.667 46.333 -18 76s-0.166016 62.167 6.50098 97.5s19.667 70.833 39 106.5s46.166 70.5 80.499 104.5s77.666 64 129.999 90s115 46.833 188 62.5s157.833 23.5 254.5 23.5c40 0 82.167 -2.16699 126.5 -6.5l132 -13.5c43.667 -4.66699 85.5 -8.5 125.5 -11.5
s76 -3.5 108 -1.5c5.33301 0 9 -2.5 11 -7.5s0.666992 -9.16699 -4 -12.5c-12 -10 -24 -21 -36 -33s-23.167 -24 -33.5 -36s-19.666 -23.667 -27.999 -35s-15.166 -21 -20.499 -29c-3.33301 -4 -7.5 -5.83301 -12.5 -5.5s-8.83301 2.83301 -11.5 7.5
c-4 7.33301 -10.167 15.666 -18.5 24.999s-19.166 19 -32.499 29s-30.166 19.667 -50.499 29s-44.5 17.333 -72.5 24z" />
    <glyph glyph-name="G" unicode="G" horiz-adv-x="613" 
d="M618 351c11.333 0 17.499 -6.00488 18.499 -18.0049s-2.16699 -27.667 -9.5 -47s-18.333 -41.333 -33 -66s-32 -50 -52 -76l-31 -114c-11.333 -41.333 -25.166 -82.833 -41.499 -124.5s-35.166 -81.834 -56.499 -120.501s-46.333 -73 -75 -103s-61.5 -54 -98.5 -72
s-78.833 -27 -125.5 -27c-5.33301 0 -8.66602 3 -9.99902 9c-1.33301 23.333 -7 47.833 -17 73.5s-21 51.167 -33 76.5l-34 74.5c-10.667 24.333 -17.334 47.166 -20.001 68.499c-0.666992 3.33301 0.333008 5.66602 3 6.99902s5.33398 1.33301 8.00098 0
c4 -2.66699 10.167 -7.83398 18.5 -15.501s19.166 -15.667 32.499 -24s30 -15.666 50 -21.999s43.667 -9.5 71 -9.5c24.667 0 47.834 5.33301 69.501 16s42.167 25.167 61.5 43.5s37.666 39.5 54.999 63.5s33.666 49.333 48.999 76c-30 -23.333 -61.333 -42.166 -94 -56.499
s-65.667 -21.5 -99 -21.5c-53.333 0 -95.333 13.333 -126 40s-51.334 61.834 -62.001 105.501s-12.5 93.5 -5.5 149.5s21.167 113 42.5 171s49 115 83 171s72.5 105.833 115.5 149.5s89.833 78.834 140.5 105.501s103.334 40 158.001 40c38.667 0 68.334 -8 89.001 -24
s34.334 -37.333 41.001 -64s7.33398 -57.334 2.00098 -92.001s-14.5 -70.334 -27.5 -107.001s-29 -73 -48 -109s-39 -69 -60 -99s-42 -55.5 -63 -76.5s-39.833 -34.833 -56.5 -41.5c-4.66699 -2 -9 -1.66699 -13 1s-5.66699 6.33398 -5 11.001
c1.33301 30.667 -2.16699 55.834 -10.5 75.501s-18.5 36.334 -30.5 50.001s-24 25.334 -36 35.001s-21 19.5 -27 29.5c-2 3.33301 -1.83301 6.83301 0.5 10.5s5.83301 4.83398 10.5 3.50098c16.667 -4 35.334 -1.83301 56.001 6.5s41.167 20.666 61.5 36.999
s40.166 35.5 59.499 57.5s36.5 44.833 51.5 68.5s26.833 47 35.5 70s12.667 43.5 12 61.5s-6.5 32.667 -17.5 44s-29.167 17 -54.5 17c-34.667 0 -68.334 -10.333 -101.001 -31s-63.334 -48 -92.001 -82s-54.5 -72.833 -77.5 -116.5s-42.167 -88.167 -57.5 -133.5
s-25.833 -89.833 -31.5 -133.5s-5.5 -82.5 0.5 -116.5s18.667 -61.333 38 -82s46.333 -31 81 -31c15.333 0 32 2.33301 50 7s36.167 11.334 54.5 20.001s36.666 18.834 54.999 30.501s35.833 24.167 52.5 37.5l28.5 56.5c9 17.667 17.833 32.834 26.5 45.501
s17.167 22.667 25.5 30s16.5 11 24.5 11z" />
    <glyph glyph-name="H" unicode="H" horiz-adv-x="971" 
d="M1015 -202c4 -0.666992 6.67383 -2.67285 8.00684 -6.00586s0.333008 -6.66602 -3 -9.99902c-8.66699 -7.33301 -19.167 -17.666 -31.5 -30.999s-24.666 -29.833 -36.999 -49.5s-23.5 -42.167 -33.5 -67.5s-17 -53.666 -21 -84.999
c-0.666992 -5.33301 -3.16699 -9 -7.5 -11s-8.83301 -1.66699 -13.5 1c-12 6.66699 -27.333 18.167 -46 34.5s-37 38.833 -55 67.5s-33.5 64.167 -46.5 106.5s-19.5 93.5 -19.5 153.5c0 48.667 8.83301 105.167 26.5 169.5s42.5 131.833 74.5 202.5
c-2 3.33301 -5.66699 8.66602 -11 15.999s-12.833 15.166 -22.5 23.499s-21.5 16.5 -35.5 24.5s-30.667 14.667 -50 20l-78 -170c-26.667 -57.333 -53.834 -112.833 -81.501 -166.5s-56.334 -104.167 -86.001 -151.5s-60.5 -88.833 -92.5 -124.5s-65.333 -64.167 -100 -85.5
s-71 -33 -109 -35c-2.66699 -0.666992 -4.83398 0 -6.50098 2s-2.5 4.33301 -2.5 7c2.66699 18.667 3 38.5 1 59.5s-6.16699 41.333 -12.5 61s-14.833 38.167 -25.5 55.5s-23.334 32 -38.001 44c-10.667 8.66699 -19.5 18.334 -26.5 29.001s-12.833 21.667 -17.5 33
s-8.33398 22.5 -11.001 33.5s-4.33398 20.5 -5.00098 28.5c-0.666992 3.33301 0.666016 6 3.99902 8s6.66602 2.33301 9.99902 1c8 -5.33301 21.167 -9.83301 39.5 -13.5s44.833 -5.5 79.5 -5.5s69.667 10.667 105 32s70.5 50 105.5 86s69.833 77.5 104.5 124.5l104 147.5
c-28.667 -6 -57.5 -15.667 -86.5 -29s-56.833 -30.666 -83.5 -51.999s-51.667 -47.333 -75 -78s-44 -66 -62 -106c-2.66699 -5.33301 -6.66699 -7.83301 -12 -7.5s-8.66602 3.16602 -9.99902 8.49902c-2.66699 10 -6.33398 21.5 -11.001 34.5s-10.834 26 -18.501 39
s-16.667 25.5 -27 37.5s-22.5 22.333 -36.5 31c-4 2.66699 -6.33301 6 -7 10s0.333008 7.66699 3 11c8.66699 10 23.667 24.5 45 43.5s49.333 37.667 84 56s76.667 34.333 126 48s106.666 20.5 171.999 20.5c7.33301 0 14.5 -0.166992 21.5 -0.5s14.167 -0.833008 21.5 -1.5
l119.5 176c39.667 56.667 78.834 106.667 117.501 150c-23.333 0.666992 -47.333 1.66699 -72 3s-48.167 2.5 -70.5 3.5s-43.166 1.83301 -62.499 2.5s-35.333 1 -48 1c-30.667 0 -61 -5.16699 -91 -15.5s-56.833 -24 -80.5 -41s-42.834 -36.5 -57.501 -58.5
s-22 -44.667 -22 -68c0 -28 4.83301 -52 14.5 -72s19.5 -36 29.5 -48c2.66699 -3.33301 2.83398 -6.66602 0.500977 -9.99902s-5.5 -4.33301 -9.5 -3c-24 8 -47 12 -69 12s-42 -1.66699 -60 -5s-33.833 -8 -47.5 -14s-24.167 -11 -31.5 -15
c-9.33301 -4.66699 -17.333 -3.33398 -24 3.99902c-4.66699 4.66699 -9.83398 11.334 -15.501 20.001s-11.167 19 -16.5 31s-9.83301 26 -13.5 42s-5.5 33.667 -5.5 53c0 26.667 7.83301 55.667 23.5 87s38.667 60.5 69 87.5s68 49.5 113 67.5s96.833 27 155.5 27
c42.667 0 83.167 -2.33301 121.5 -7s74.666 -10 108.999 -16s67.5 -12.167 99.5 -18.5s63.333 -11.166 94 -14.499c28 28 55.667 49.833 83 65.5s54.333 23.5 81 23.5c27.333 0 45.333 -6.5 54 -19.5s8.83398 -27.5 0.500977 -43.5s-25.333 -30.5 -51 -43.5
s-58.834 -19.5 -99.501 -19.5h-33c-32 -42 -63.833 -93.167 -95.5 -153.5s-63.5 -125.166 -95.5 -194.499c31.333 -11.333 56.666 -24.333 75.999 -39s34.333 -28 45 -40c22 46 46.5 91.5 73.5 136.5s55.5 88 85.5 129s61.5 79 94.5 114s66.5 65.333 100.5 91
s68.5 45.667 103.5 60s69.5 21.5 103.5 21.5c19.333 0 36 -2.16699 50 -6.5s26 -9.66602 36 -15.999s18.167 -13.5 24.5 -21.5s11.5 -15.667 15.5 -23c1.33301 -3.33301 0.833008 -6 -1.5 -8s-4.83301 -1.66699 -7.5 1c-9.33301 7.33301 -22.166 14.5 -38.499 21.5
s-37.833 10.5 -64.5 10.5c-34 0 -70.167 -13.167 -108.5 -39.5s-76.666 -61.333 -114.999 -105s-75.166 -93.667 -110.499 -150s-66.5 -114.333 -93.5 -174s-48.667 -118.667 -65 -177s-24.5 -111.5 -24.5 -159.5c0 -74 11.5 -128.833 34.5 -164.5s53.5 -56.167 91.5 -61.5z
M1054.01 847.994c-21.333 0 -42.5 -5.99805 -63.5 -17.998s-41.5 -29 -61.5 -51h7c24 0 45.167 3.66699 63.5 11s32.833 15.166 43.5 23.499s17.167 16.166 19.5 23.499s-0.5 11 -8.5 11z" />
    <glyph glyph-name="I" unicode="I" horiz-adv-x="650" 
d="M900 770c-28 -36.667 -55.8301 -80.4941 -83.4971 -131.494s-55.334 -105.833 -83.001 -164.5l-84 -182.5l-87.5 -185.5c-30 -60.667 -60.833 -118.167 -92.5 -172.5s-64.667 -102.333 -99 -144s-70.333 -75.167 -108 -100.5s-77.167 -39 -118.5 -41c-6 0 -9 3 -9 9
c2 18.667 2.16699 38.5 0.5 59.5s-5.66699 41.5 -12 61.5s-14.833 38.667 -25.5 56s-23.334 32 -38.001 44c-10.667 8 -19.5 17.5 -26.5 28.5s-12.833 22 -17.5 33s-8.33398 22 -11.001 33s-4.33398 20.5 -5.00098 28.5c-0.666992 4 0.666016 7 3.99902 9
s6.66602 2 9.99902 0c8 -4.66699 21.167 -9 39.5 -13s44.833 -6 79.5 -6c38.667 0 77.667 13.333 117 40s78.5 61.667 117.5 105s78 92.666 117 147.999l116 169l114 167.5c37.667 54.333 75.167 102.5 112.5 144.5c-72 -6.66699 -134.333 -19.167 -187 -37.5
s-97.667 -40 -135 -65s-67.666 -52 -90.999 -81s-41.666 -57.333 -54.999 -85s-22.5 -53.334 -27.5 -77.001s-7.5 -42.834 -7.5 -57.501c0 -28 4.83301 -52 14.5 -72s19.167 -36.333 28.5 -49c2.66699 -3.33301 2.83398 -6.5 0.500977 -9.5s-5.16602 -3.83301 -8.49902 -2.5
c-24 7.33301 -47 11.166 -69 11.499s-42 -1.33398 -60 -5.00098s-33.833 -8.33398 -47.5 -14.001s-24.167 -10.5 -31.5 -14.5c-9.33301 -4.66699 -17.333 -3.33398 -24 3.99902c-4.66699 4.66699 -9.83398 11.334 -15.501 20.001s-11.167 19 -16.5 31
s-9.83301 25.833 -13.5 41.5s-5.5 33.167 -5.5 52.5c0 17.333 3.33301 39.833 10 67.5s19.667 57.5 39 89.5s46.833 64.333 82.5 97s82.5 62.667 140.5 90s129 50.333 213 69s184 29.667 300 33c28.667 29.333 57 52.333 85 69s56 25 84 25c27.333 0 45.333 -6.5 54 -19.5
s8.83398 -27.5 0.500977 -43.5s-25.333 -30.5 -51 -43.5s-58.834 -19.5 -99.501 -19.5h-34zM1054 873.006c-22 0 -43.332 -6.16699 -63.999 -18.5s-41.334 -29.5 -62.001 -51.5h7c24.667 0 46.167 3.66699 64.5 11s32.833 15.333 43.5 24s17.167 16.667 19.5 24
s-0.5 11 -8.5 11z" />
    <glyph glyph-name="J" unicode="J" horiz-adv-x="818" 
d="M1061 757c-28 -36.667 -55.4902 -80.833 -82.4902 -132.5s-54.333 -107.334 -82 -167.001l-85.5 -185c-29.333 -63.667 -59.833 -126 -91.5 -187s-65 -118.833 -100 -173.5s-72.333 -102.667 -112 -144s-81.834 -74 -126.501 -98s-92.667 -36 -144 -36
c-40.667 0 -75.334 6.33301 -104.001 19s-52.334 28.167 -71.001 46.5s-33 37.666 -43 57.999s-16.333 38.5 -19 54.5c-1.33301 10.667 1.66699 19.667 9 27c18 19.333 29.333 41.166 34 65.499s7 49.333 7 75s-0.166992 51 -0.5 76s3.5 48.167 11.5 69.5
c1.33301 3.33301 3.5 4.83301 6.5 4.5s5.16699 -2.16602 6.5 -5.49902c4 -13.333 10.667 -31 20 -53s22.166 -43.5 38.499 -64.5s36.666 -39.333 60.999 -55s53.5 -23.5 87.5 -23.5c39.333 0 79.166 14.5 119.499 43.5s80.666 67.167 120.999 114.5s80.5 101 120.5 161
l119.5 182l118 178.5c39 57.667 77.5 108.167 115.5 151.5c-24 0.666992 -48.333 1.66699 -73 3s-48.5 2.5 -71.5 3.5s-44.167 1.83301 -63.5 2.5s-35.666 1 -48.999 1c-78 0 -139.333 -16.167 -184 -48.5s-67 -77.166 -67 -134.499c0 -18 4.16699 -33.5 12.5 -46.5
s18.333 -24.333 30 -34s23.667 -17.334 36 -23.001s22.166 -9.83398 29.499 -12.501c3.33301 -1.33301 5.33301 -3.5 6 -6.5s0 -5.5 -2 -7.5c-10.667 -8 -24.834 -17.167 -42.501 -27.5s-35.167 -22.5 -52.5 -36.5s-33.166 -30.5 -47.499 -49.5
s-23.166 -40.833 -26.499 -65.5c-1.33301 -5.33301 -3.83301 -9.16602 -7.5 -11.499s-7.83398 -2.83301 -12.501 -1.5c-12 4.66699 -27.667 12.334 -47 23.001s-38.333 26.167 -57 46.5s-34.667 46 -48 77s-20 69.167 -20 114.5c0 35.333 7.83301 72.166 23.5 110.499
s38.667 73.333 69 105s68 57.834 113 78.501s96.833 31 155.5 31c43.333 0 84.166 -2.33301 122.499 -7s75 -10 110 -16s68.5 -12.167 100.5 -18.5s63.667 -11.166 95 -14.499c28 28 55.167 49.833 81.5 65.5s52.5 23.5 78.5 23.5c27.333 0 45.5 -6.5 54.5 -19.5
s9.16699 -27.5 0.5 -43.5s-25.834 -30.5 -51.501 -43.5s-58.834 -19.5 -99.501 -19.5h-30zM1211.01 860.001c-21.333 0 -42.333 -6.16699 -63 -18.5s-40.667 -29.5 -60 -51.5h5c24 0 45.167 3.66699 63.5 11s32.833 15.333 43.5 24s17.167 16.667 19.5 24s-0.5 11 -8.5 11z
" />
    <glyph glyph-name="K" unicode="K" horiz-adv-x="958" 
d="M1303 704c-15.333 -31.333 -35.665 -64.4961 -60.998 -99.4961s-54.666 -70 -87.999 -105s-70 -69.5 -110 -103.5s-82 -65.833 -126 -95.5s-89.833 -56 -137.5 -79s-95.5 -41.5 -143.5 -55.5c25.333 -26.667 50.166 -55.834 74.499 -87.501l71.5 -94
c23.333 -31 46.833 -60.5 70.5 -88.5s47.667 -51.5 72 -70.5s49.5 -32.167 75.5 -39.5s53.333 -6 82 4c3.33301 1.33301 6.33301 0.833008 9 -1.5s3.33398 -5.16602 2.00098 -8.49902c-3.33301 -12 -10.5 -23.167 -21.5 -33.5l-35.5 -35c-12.667 -13 -25 -28.833 -37 -47.5
s-20.333 -42 -25 -70c-1.33301 -6.66699 -5.33301 -10 -12 -10c-33.333 2 -63.5 12.167 -90.5 30.5s-51.833 42.166 -74.5 71.499s-43.667 62.5 -63 99.5s-37.5 75 -54.5 114l-49.5 116c-16 38.333 -32.333 73.166 -49 104.499c-31.333 -64.667 -63.5 -126.5 -96.5 -185.5
s-67.5 -111.333 -103.5 -157s-73.833 -82.334 -113.5 -110.001s-81.5 -42.5 -125.5 -44.5c-5.33301 0 -8 3 -8 9c2.66699 18.667 3 38.5 1 59.5s-6.16699 41.5 -12.5 61.5s-14.833 38.667 -25.5 56s-23.334 32 -38.001 44c-10.667 8 -19.5 17.5 -26.5 28.5
s-12.833 22 -17.5 33s-8.33398 22 -11.001 33s-4.33398 20.5 -5.00098 28.5c-0.666992 4 0.666016 7 3.99902 9s6.66602 2 9.99902 0c8 -4.66699 21.167 -9 39.5 -13s44.833 -6 79.5 -6c22 0 44.167 4.5 66.5 13.5s44.666 21.5 66.999 37.5s44.5 35 66.5 57s44 46.333 66 73
c-24.667 7.33301 -41.334 17.833 -50.001 31.5s-10.834 27.334 -6.50098 41.001s15 25.5 32 35.5s38.5 15 64.5 15c16.667 0 33 -2 49 -6l87.5 127l87 129.5l86 121.5c28.333 38.667 56.5 73.667 84.5 105c-23.333 0.666992 -47.333 1.66699 -72 3s-48.167 2.5 -70.5 3.5
s-43.166 1.83301 -62.499 2.5s-35.333 1 -48 1c-78 0 -139.333 -16.167 -184 -48.5s-67 -77.166 -67 -134.499c0 -18 4.33301 -33.5 13 -46.5s18.834 -24.333 30.501 -34s23.667 -17.334 36 -23.001s22.166 -9.83398 29.499 -12.501c3.33301 -1.33301 5.33301 -3.5 6 -6.5
s-0.333008 -5.5 -3 -7.5c-10 -8 -23.833 -17.167 -41.5 -27.5s-35.167 -22.5 -52.5 -36.5s-33 -30.333 -47 -49s-23 -40.334 -27 -65.001c-1.33301 -5.33301 -3.83301 -9.33301 -7.5 -12s-8.16699 -3 -13.5 -1c-12 4 -27.667 11.333 -47 22s-38.166 26.167 -56.499 46.5
s-34.166 46 -47.499 77s-20 69.167 -20 114.5c0 35.333 7.83301 72.166 23.5 110.499s38.667 73.333 69 105s68 57.834 113 78.501s96.833 31 155.5 31c42.667 0 83.167 -2.33301 121.5 -7s74.833 -10 109.5 -16s67.834 -12.167 99.501 -18.5s62.834 -11.166 93.501 -14.499
c28 28 55.667 49.833 83 65.5s54.333 23.5 81 23.5c27.333 0 45.333 -6.5 54 -19.5s8.83398 -27.5 0.500977 -43.5s-25.333 -30.5 -51 -43.5s-58.834 -19.5 -99.501 -19.5h-33c-22.667 -29.333 -45 -63.166 -67 -101.499s-44 -79.833 -66 -124.5l-67 -140.5l-68 -148.5
c50.667 18 98.667 43.333 144 76s87.666 68.834 126.999 108.501s75 81.167 107 124.5s59.833 85.166 83.5 125.499s42.667 77.166 57 110.499s23.166 60 26.499 80c1.33301 4 3.83301 6.33301 7.5 7s6.83398 -0.666016 9.50098 -3.99902
c4.66699 -8.66699 9.83398 -19.834 15.501 -33.501s12.334 -27.667 20.001 -42s16.667 -27.333 27 -39s23.166 -19.834 38.499 -24.501c8.66699 -2.66699 11 -7.66699 7 -15zM1054 848.004c-22 0 -43.333 -6.16699 -64 -18.5s-41 -29.5 -61 -51.5h6
c24.667 0 46.167 3.66699 64.5 11s32.833 15.333 43.5 24s17.167 16.667 19.5 24s-0.5 11 -8.5 11zM448.001 247.004c-12.667 0 -23.167 -1.83105 -31.5 -5.49805s-13.166 -7.83398 -14.499 -12.501s1.16699 -9.33398 7.5 -14.001s18.166 -8 35.499 -10
c4.66699 6 9.16699 12.167 13.5 18.5s9.16602 12.833 14.499 19.5c-7.33301 2.66699 -15.666 4 -24.999 4z" />
    <glyph glyph-name="L" unicode="L" horiz-adv-x="739" 
d="M1072 909c27.333 0 45.5 -6.50195 54.5 -19.502s9.16699 -27.333 0.5 -43s-25.834 -30 -51.501 -43s-58.834 -19.5 -99.501 -19.5c-4 0 -8 -0.166992 -12 -0.5s-8.33301 -0.5 -13 -0.5c-22.667 -32.667 -45 -71.667 -67 -117s-44.167 -94 -66.5 -146l-67.5 -163
c-22.667 -56.667 -46.5 -113 -71.5 -169s-51.167 -110.333 -78.5 -163s-56.666 -101 -87.999 -145l140.5 -26.5c46.333 -8.33301 89.333 -15.166 129 -20.499s74.834 -8.33301 105.501 -9s53.667 2.33301 69 9c3.33301 1.33301 6.16602 0.833008 8.49902 -1.5
s2.83301 -5.16602 1.5 -8.49902c-5.33301 -14 -13.833 -27 -25.5 -39s-24.5 -24.5 -38.5 -37.5s-27.5 -27.5 -40.5 -43.5s-22.833 -35.333 -29.5 -58c-2 -7.33301 -7 -11 -15 -11c-18.667 0 -41.5 4.83301 -68.5 14.5s-57 22.334 -90 38.001l-105 51.5
c-37 18.667 -74.5 36.667 -112.5 54c-38 -40 -78.667 -71.667 -122 -95s-91 -35 -143 -35c-40.667 0 -74 6.66699 -100 20s-45.333 30 -58 50s-18.834 41.667 -18.501 65s6.5 45 18.5 65s29.667 36.667 53 50s52 20 86 20c19.333 0 41.166 -1.33301 65.499 -4
s50.5 -6 78.5 -10c32 32 64.5 70.5 97.5 115.5s66 93.333 99 145l99 160.5l98 162.5l96 151.5c31.667 48 62.834 90.333 93.501 127c-74 -6 -138.167 -18 -192.5 -36s-100.666 -39.5 -138.999 -64.5s-69.5 -52.167 -93.5 -81.5s-42.833 -58 -56.5 -86s-23 -54.167 -28 -78.5
s-7.5 -43.833 -7.5 -58.5c0 -28 4.66699 -52 14 -72s19 -36 29 -48c2.66699 -3.33301 2.83398 -6.66602 0.500977 -9.99902s-5.5 -4.33301 -9.5 -3c-24 8 -47 12 -69 12s-42 -1.66699 -60 -5s-33.833 -8 -47.5 -14s-24.167 -11 -31.5 -15c-8 -4 -16 -2.66699 -24 4
c-4.66699 5.33301 -9.83398 12.333 -15.501 21s-11.167 19 -16.5 31s-9.83301 25.833 -13.5 41.5s-5.5 33.167 -5.5 52.5c0 17.333 3.33301 40 10 68s19.834 58 39.501 90s47.667 64.5 84 97.5s84 63 143 90s131.167 49.667 216.5 68s187 29.166 305 32.499
c27.333 29.333 54 52.166 80 68.499s51.333 24.5 76 24.5zM978 816.998c24 0 45.168 3.66895 63.501 11.002s32.833 15.166 43.5 23.499s17.167 16.166 19.5 23.499s-0.5 11 -8.5 11c-21.333 0 -41.833 -6 -61.5 -18s-38.834 -29 -57.501 -51h1zM130.001 -176
c34 0 70 13.332 108 39.999c-13.333 2.66699 -26.5 4.83398 -39.5 6.50098s-25.5 2.5 -37.5 2.5c-24 0 -42.167 -2.5 -54.5 -7.5s-19.333 -10.667 -21 -17s1.33301 -12 9 -17s19.5 -7.5 35.5 -7.5z" />
    <glyph glyph-name="M" unicode="M" horiz-adv-x="1184" 
d="M1726 808c1.33301 -3.33301 0.671875 -6.00293 -1.99512 -8.00293s-5.33398 -1.66699 -8.00098 1c-8.66699 7.33301 -21.167 14.5 -37.5 21.5s-37.833 10.5 -64.5 10.5c-33.333 0 -69.5 -13.167 -108.5 -39.5s-77.667 -61.333 -116 -105s-75.166 -93.667 -110.499 -150
s-66.5 -114.333 -93.5 -174s-48.667 -118.667 -65 -177s-24.5 -111.5 -24.5 -159.5c0 -74 11.667 -128.833 35 -164.5s54 -56.167 92 -61.5c3.33301 -0.666992 5.66602 -2.83398 6.99902 -6.50098s0.666016 -6.83398 -2.00098 -9.50098
c-8.66699 -7.33301 -19.167 -17.666 -31.5 -30.999s-24.666 -29.833 -36.999 -49.5s-23.5 -42.167 -33.5 -67.5s-17 -53.666 -21 -84.999c-0.666992 -5.33301 -3.33398 -9 -8.00098 -11s-9 -1.66699 -13 1c-12 6.66699 -27.333 18.167 -46 34.5s-37 38.833 -55 67.5
s-33.5 64.167 -46.5 106.5s-19.5 93.5 -19.5 153.5c0 44 7.5 95.333 22.5 154s35.833 119.834 62.5 183.501s58.334 127.5 95.001 191.5s76.334 123.667 119.001 179c-50.667 -37.333 -95.834 -79 -135.501 -125s-74.667 -93.833 -105 -143.5s-56.5 -100 -78.5 -151
s-40.667 -100.5 -56 -148.5c-36 -112 -60 -227 -72 -345c-29.333 44.667 -57.166 79.834 -83.499 105.501s-50.166 45.167 -71.499 58.5c-24.667 15.333 -47.667 25.666 -69 30.999c14 6.66699 27 19.167 39 37.5s23.167 41.333 33.5 69s20 58.667 29 93
s17.667 70.666 26 108.999l24.5 118l24 119.5l-82.5 -179.5c-27.667 -61.667 -56.167 -121.667 -85.5 -180s-59.666 -113.666 -90.999 -165.999s-63.833 -98.333 -97.5 -138s-68.834 -71.5 -105.501 -95.5s-75 -37 -115 -39c-3.33301 -0.666992 -5.66602 0 -6.99902 2
s-2 4.33301 -2 7c2.66699 18.667 3 38.5 1 59.5s-6.16699 41.333 -12.5 61s-14.833 38.167 -25.5 55.5s-23.334 32 -38.001 44c-10.667 8.66699 -19.5 18.334 -26.5 29.001s-12.833 21.667 -17.5 33s-8.33398 22.5 -11.001 33.5s-4.33398 20.5 -5.00098 28.5
c-0.666992 3.33301 0.666016 6.16602 3.99902 8.49902s6.66602 2.5 9.99902 0.5c8 -5.33301 21.167 -9.83301 39.5 -13.5s44.833 -5.5 79.5 -5.5c38.667 0 77.667 13.333 117 40s78.5 61.667 117.5 105s77.833 92.5 116.5 147.5l115.5 168.5l114.5 167.5
c38 54.333 75.333 102.5 112 144.5c0.666992 1.33301 2 3 4 5l3 3c-23.333 0.666992 -47.166 1.66699 -71.499 3s-47.833 2.5 -70.5 3.5s-43.5 1.83301 -62.5 2.5s-35.167 1 -48.5 1c-78 0 -139.333 -16.167 -184 -48.5s-67 -77.166 -67 -134.499
c0 -18 4.33301 -33.5 13 -46.5s18.834 -24.333 30.501 -34s23.667 -17.334 36 -23.001s22.166 -9.83398 29.499 -12.501c3.33301 -1.33301 5.33301 -3.5 6 -6.5s-0.333008 -5.5 -3 -7.5c-10 -8 -23.833 -17.167 -41.5 -27.5s-35.167 -22.5 -52.5 -36.5s-33 -30.5 -47 -49.5
s-23 -40.833 -27 -65.5c-1.33301 -5.33301 -3.83301 -9.16602 -7.5 -11.499s-7.83398 -2.83301 -12.501 -1.5c-12 4.66699 -27.667 12.334 -47 23.001s-38.333 26.167 -57 46.5s-34.667 46 -48 77s-20 69.167 -20 114.5c0 35.333 7.83301 72.166 23.5 110.499
s38.667 73.333 69 105s68 57.834 113 78.501s96.833 31 155.5 31c42.667 0 83.167 -2.33301 121.5 -7s74.666 -10 108.999 -16s67.5 -12.167 99.5 -18.5s63.333 -11.166 94 -14.499c28 28 55.667 49.833 83 65.5s54.333 23.5 81 23.5c27.333 0 45.333 -6.5 54 -19.5
s8.83398 -27.5 0.500977 -43.5s-25.333 -30.5 -51 -43.5s-58.834 -19.5 -99.501 -19.5h-33c-3.33301 -4 -6.5 -8.16699 -9.5 -12.5l-9.5 -13.5l-1 -1c-3.33301 -4.66699 -6.5 -9.33398 -9.5 -14.001s-6.16699 -9.33398 -9.5 -14.001
c-15.333 -26.667 -27.666 -56 -36.999 -88s-16.166 -64.833 -20.499 -98.5s-7 -67.334 -8 -101.001s-1.33301 -66 -1 -97s1.16602 -59.5 2.49902 -85.5s2 -48 2 -66c17.333 54.667 42.666 108.167 75.999 160.5s71.166 102.166 113.499 149.499s87.833 91.833 136.5 133.5
s96.834 78.834 144.501 111.501s93.167 60.334 136.5 83.001s81.333 39.334 114 50.001l4 2c22 6.66699 41.333 10 58 10c3.33301 0.666992 6.16602 1 8.49902 1h8.5c19.333 0 36 -2.16699 50 -6.5s26 -9.66602 36 -15.999s18.167 -13.5 24.5 -21.5s11.5 -15.667 15.5 -23z
M1054.01 866.997c-22 0 -43.333 -5.99805 -64 -17.998s-41 -29 -61 -51h7c24 0 45.167 3.66699 63.5 11s32.833 15.166 43.5 23.499s17.167 16.166 19.5 23.499s-0.5 11 -8.5 11z" />
    <glyph glyph-name="N" unicode="N" horiz-adv-x="1079" 
d="M1104 -231c4 -0.666992 6.66992 -2.84375 8.00293 -6.51074s0.333008 -6.83398 -3 -9.50098c-8.66699 -7.33301 -19.167 -17.666 -31.5 -30.999s-24.5 -29.833 -36.5 -49.5s-23.167 -42.167 -33.5 -67.5s-17.5 -53.666 -21.5 -84.999
c-0.666992 -5.33301 -3.16699 -9.16602 -7.5 -11.499s-8.83301 -2.16602 -13.5 0.500977c-11.333 6.66699 -25.5 17.334 -42.5 32.001s-34 34.334 -51 59.001s-32.167 55.334 -45.5 92.001s-22 80.334 -26 131.001c-13.333 10.667 -27.166 24.334 -41.499 41.001
s-27.166 37.334 -38.499 62.001s-20.5 54 -27.5 88s-10 73.333 -9 118s6.66699 95.167 17 151.5s27.5 119.5 51.5 189.5l-87 -187l-90 -193c-30.667 -63.333 -62.334 -123.666 -95.001 -180.999s-66.834 -108.166 -102.501 -152.499s-72.834 -80 -111.501 -107
s-79.667 -41.5 -123 -43.5c-5.33301 0 -8 3.33301 -8 10c2.66699 18.667 3 38.334 1 59.001s-6.16699 41 -12.5 61s-14.833 38.667 -25.5 56s-23.334 32 -38.001 44c-10.667 8.66699 -19.5 18.334 -26.5 29.001s-12.833 21.667 -17.5 33s-8.33398 22.333 -11.001 33
s-4.33398 20 -5.00098 28c-0.666992 4 0.666016 7 3.99902 9s6.66602 2 9.99902 0c8 -4.66699 21.167 -9 39.5 -13s44.833 -6 79.5 -6c39.333 0 78.833 13.5 118.5 40.5s79.167 62.667 118.5 107s78.666 94.5 117.999 150.5l117 171l115 169
c38 54.667 75.667 102.667 113 144c-23.333 0.666992 -47.333 1.5 -72 2.5s-48.167 2 -70.5 3s-43.166 1.83301 -62.499 2.5s-35.333 1 -48 1c-38.667 0 -73.5 -4.16699 -104.5 -12.5s-57.333 -20.333 -79 -36s-38.334 -34.834 -50.001 -57.501s-17.5 -48 -17.5 -76
c0 -18 4.33301 -33.667 13 -47s18.834 -24.833 30.501 -34.5s23.667 -17.334 36 -23.001s22.166 -9.83398 29.499 -12.501c3.33301 -1.33301 5.33301 -3.33301 6 -6s-0.333008 -5 -3 -7c-10 -8 -23.833 -17.167 -41.5 -27.5s-35.167 -22.5 -52.5 -36.5s-33 -30.5 -47 -49.5
s-23 -40.833 -27 -65.5c-1.33301 -5.33301 -3.83301 -9.16602 -7.5 -11.499s-8.16699 -2.83301 -13.5 -1.5c-12 4 -27.667 11.333 -47 22s-38.166 26.167 -56.499 46.5s-34.166 46.166 -47.499 77.499s-20 69.666 -20 114.999c0 34.667 7.83301 71.167 23.5 109.5
s38.667 73.333 69 105s68 57.834 113 78.501s96.833 31 155.5 31c42.667 0 83.167 -2.33301 121.5 -7s74.666 -10 108.999 -16s67.5 -12.167 99.5 -18.5s63.333 -11.166 94 -14.499c28 28 55.5 49.833 82.5 65.5s54.167 23.5 81.5 23.5s45.333 -6.5 54 -19.5
s8.83398 -27.5 0.500977 -43.5s-25.333 -30.5 -51 -43.5s-58.834 -19.5 -99.501 -19.5h-16.5c-5.66699 0 -11.167 0.333008 -16.5 1l-18 -25l-18 -27c-16 -39.333 -31.333 -87 -46 -143s-25.667 -114.667 -33 -176s-9 -122 -5 -182s16.667 -113.333 38 -160
c14 54.667 33.5 113 58.5 175s54.5 123.5 88.5 184.5s71.333 119.333 112 175s83.167 105 127.5 148s89.833 77.167 136.5 102.5s93 38 139 38c19.333 0 36 -2.16699 50 -6.5s26 -9.83301 36 -16.5s18.167 -14 24.5 -22s11.5 -15.667 15.5 -23
c1.33301 -3.33301 0.833008 -5.83301 -1.5 -7.5s-4.83301 -1.5 -7.5 0.5c-9.33301 8 -22.166 15.5 -38.499 22.5s-37.833 10.5 -64.5 10.5c-25.333 0 -52.166 -7.66699 -80.499 -23s-56.833 -36.166 -85.5 -62.499s-57.334 -57.5 -86.001 -93.5s-56 -74.667 -82 -116
s-50.167 -84.333 -72.5 -129s-41.666 -89.334 -57.999 -134.001s-29.166 -88 -38.499 -130s-14 -81 -14 -117c0 -74 11.5 -128.833 34.5 -164.5s53.5 -56.167 91.5 -61.5zM1054 833.99c-22 0 -43.332 -6.16699 -63.999 -18.5s-41.334 -29.5 -62.001 -51.5h7
c24.667 0 46.167 3.66699 64.5 11s32.833 15.333 43.5 24s17.167 16.667 19.5 24s-0.5 11 -8.5 11z" />
    <glyph glyph-name="O" unicode="O" horiz-adv-x="897" 
d="M662 792c61.333 0 111.011 -14.5088 149.011 -43.5088s65.833 -67.167 83.5 -114.5s26 -101.166 25 -161.499s-9.33301 -122.166 -25 -185.499s-38 -125.166 -67 -185.499s-62.833 -114.166 -101.5 -161.499s-81.334 -85.5 -128.001 -114.5s-95.667 -43.5 -147 -43.5
c-54 0 -98.833 12.167 -134.5 36.5s-62.834 56.5 -81.501 96.5s-29.334 85.667 -32.001 137s1.5 103.666 12.5 156.999s28.333 105.666 52 156.999s52.667 97 87 137s73.666 72.167 117.999 96.5s92.5 36.5 144.5 36.5c38 0 68.333 -7.83301 91 -23.5
s39.167 -36.5 49.5 -62.5s15.166 -55.667 14.499 -89s-5.16699 -67.5 -13.5 -102.5s-19.833 -69.667 -34.5 -104s-30.834 -65.333 -48.501 -93s-36.334 -50.834 -56.001 -69.501s-38.834 -29.667 -57.501 -33c-3.33301 -0.666992 -6 0 -8 2s-2.66699 4.66699 -2 8
c1.33301 12.667 2.5 29.334 3.5 50.001s1.33301 42 1 64s-1.33301 43.333 -3 64s-4.83398 37.667 -9.50098 51c-1.33301 5.33301 -1 10.333 1 15s5.33301 8 10 10c14.667 6 28.834 17 42.501 33s25.834 34 36.501 54s19.167 40.833 25.5 62.5s9.16602 41.334 8.49902 59.001
s-5.33398 32.334 -14.001 44.001s-22.334 17.5 -41.001 17.5c-24.667 0 -50.167 -9.16699 -76.5 -27.5s-51.666 -42.5 -75.999 -72.5s-46.666 -64.167 -66.999 -102.5s-37 -77.666 -50 -117.999s-21.333 -79.666 -25 -117.999s-1 -72.5 8 -102.5s25.333 -54.167 49 -72.5
s56.5 -27.5 98.5 -27.5s81.5 11.5 118.5 34.5s70.833 53.167 101.5 90.5s57.334 79.833 80.001 127.5s40.167 96.5 52.5 146.5s19.166 98.833 20.499 146.5s-4.16699 90.167 -16.5 127.5s-32 67.5 -59 90.5s-62.5 34.5 -106.5 34.5c-60 0 -114 -12 -162 -36
s-90.833 -55.167 -128.5 -93.5s-70.334 -81.666 -98.001 -129.999s-50.5 -96.666 -68.5 -144.999s-31.833 -94.333 -41.5 -138s-15.167 -80.5 -16.5 -110.5c0 -4 -1.83301 -6.83301 -5.5 -8.5s-6.83398 -1.16699 -9.50098 1.5l-50.5 42.5
c-18.333 15 -43.833 26.833 -76.5 35.5c-5.33301 2.66699 -8 6.33398 -8 11.001c1.33301 34 9.33301 72.833 24 116.5s35.667 88.167 63 133.5s60.166 89.833 98.499 133.5s81.833 82.5 130.5 116.5s102 61.333 160 82s120 31 186 31z" />
    <glyph glyph-name="P" unicode="P" horiz-adv-x="952" 
d="M1166 827c4.66699 -6 3.33691 -10.334 -3.99609 -13.001c-12.667 -3.33301 -26.334 -12.166 -41.001 -26.499s-26.667 -31.166 -36 -50.499c-1.33301 -3.33301 -3.83301 -4.83301 -7.5 -4.5s-6.16699 2.16602 -7.5 5.49902
c-2.66699 5.33301 -6.33398 11.166 -11.001 17.499s-10.834 12.333 -18.501 18s-17.167 10.334 -28.5 14.001s-24.666 5.5 -39.999 5.5c-27.333 0 -55.333 -18 -84 -54c37.333 -30.667 65.5 -68.167 84.5 -112.5s29.5 -90.833 31.5 -139.5s-3.83301 -97.167 -17.5 -145.5
s-34.167 -91.833 -61.5 -130.5s-61.333 -70.5 -102 -95.5s-87 -38.5 -139 -40.5c-7.33301 0 -11.666 3.66699 -12.999 11c-4.66699 17.333 -14.167 32 -28.5 44s-27.166 23.333 -38.499 34c-31.333 -66.667 -64.166 -131.334 -98.499 -194.001s-70.5 -118.5 -108.5 -167.5
s-78 -88.667 -120 -119s-86.667 -46.5 -134 -48.5c-5.33301 0 -8 3.33301 -8 10c2 18.667 2.16699 38.334 0.5 59.001s-5.66699 41 -12 61s-14.833 38.667 -25.5 56s-23.334 32 -38.001 44c-10.667 8.66699 -19.5 18.334 -26.5 29.001s-12.833 21.667 -17.5 33
s-8.33398 22.333 -11.001 33s-4.33398 20 -5.00098 28c-0.666992 4 0.666016 7 3.99902 9s6.66602 2 9.99902 0c8 -4.66699 21.167 -9 39.5 -13s44.833 -6 79.5 -6c38 0 76 12.667 114 38s75.833 58.666 113.5 99.999s75.5 88.666 113.5 141.999l113 164l111.5 164.5
c37 53.667 73.833 102.167 110.5 145.5c-19.333 14 -42 25 -68 33s-55.333 12 -88 12c-57.333 0 -106.666 -11 -147.999 -33s-75.166 -49.5 -101.499 -82.5s-45.5 -69 -57.5 -108s-17.333 -75.667 -16 -110s8.83301 -63.666 22.5 -87.999s33.167 -38.166 58.5 -41.499
c3.33301 -0.666992 5.5 -2.33398 6.5 -5.00098s0.833008 -5.33398 -0.5 -8.00098c-4.66699 -6.66699 -12.5 -14.834 -23.5 -24.501l-46.5 -41.5c-14 -12.667 -25.167 -25.5 -33.5 -38.5s-14.833 -25.333 -19.5 -37s-7.83398 -22.334 -9.50098 -32.001
s-2.83398 -17.5 -3.50098 -23.5c0 -2.66699 -1.16699 -4.66699 -3.5 -6s-4.83301 -1.66602 -7.5 -0.999023c-12 3.33301 -25 12 -39 26s-27.167 32.5 -39.5 55.5s-22.666 50.333 -30.999 82s-12.5 66.834 -12.5 105.501c0 28 5.33301 58.333 16 91s26 65.667 46 99
s44.667 65.333 74 96s63 58 101 82s79.667 43.167 125 57.5s94.333 21.5 147 21.5c38 0 72.333 -3.83301 103 -11.5s58.334 -18.167 83.001 -31.5c33.333 34.667 66 62.167 98 82.5s64 30.5 96 30.5c17.333 0 33.166 -2 47.499 -6s27 -8.83301 38 -14.5
s20.167 -11.667 27.5 -18s12.666 -12.166 15.999 -17.499zM621.003 200.999c42.667 4 81 15.499 115 34.499s63 42.333 87 70s42.833 58.334 56.5 92.001s22 68 25 103s0.166992 68.833 -8.5 101.5s-23 62 -43 88c-18 -28 -36.167 -60.5 -54.5 -97.5l-56.5 -119l-59 -133z
" />
    <glyph glyph-name="Q" unicode="Q" horiz-adv-x="895" 
d="M1000 -315c4 -2.66699 6.16406 -6.17285 6.49707 -10.5059s-1.16699 -7.83301 -4.5 -10.5c-4 -3.33301 -10.167 -6.66602 -18.5 -9.99902s-19.166 -6.5 -32.499 -9.5s-29.833 -5.5 -49.5 -7.5s-43.167 -3 -70.5 -3c-25.333 0 -51.833 3.16699 -79.5 9.5s-55 16 -82 29
s-53 29.5 -78 49.5s-47.5 44 -67.5 72c-22.667 -6.66699 -47.334 -10 -74.001 -10c-54 0 -98.667 12.167 -134 36.5s-62.333 56.5 -81 96.5s-29.5 85.5 -32.5 136.5s1 103.167 12 156.5s28.333 105.5 52 156.5s52.667 96.5 87 136.5s73.666 72.167 117.999 96.5
s92.5 36.5 144.5 36.5c38 0 68.333 -7.83301 91 -23.5s39.167 -36.5 49.5 -62.5s15.166 -55.5 14.499 -88.5s-5.16699 -67.167 -13.5 -102.5s-19.666 -70 -33.999 -104s-30.5 -64.833 -48.5 -92.5s-36.833 -50.834 -56.5 -69.501s-38.5 -29.667 -56.5 -33
c-3.33301 -1.33301 -6 -1 -8 1s-3 4.66699 -3 8c1.33301 12.667 2.66602 29.334 3.99902 50.001s1.83301 42 1.5 64s-1.33301 43.5 -3 64.5s-4.83398 38.167 -9.50098 51.5c-2 5.33301 -2 10.333 0 15s5.66699 8 11 10c14.667 6 28.834 17 42.501 33s25.834 34 36.501 54
s19 40.833 25 62.5s8.83301 41.334 8.5 59.001s-4.83301 32.334 -13.5 44.001s-22.334 17.5 -41.001 17.5c-24.667 0 -50 -8.83301 -76 -26.5s-50.833 -41.167 -74.5 -70.5s-45.667 -62.666 -66 -99.999s-37.166 -75.833 -50.499 -115.5s-22.333 -78.5 -27 -116.5
s-3.16699 -72.167 4.5 -102.5s22.334 -55.333 44.001 -75s51.834 -30.834 90.501 -33.501c-6 32 -8.83301 66.5 -8.5 103.5s4.83301 76.833 13.5 119.5h36c0 -12 0.666992 -26.167 2 -42.5s3.66602 -33.833 6.99902 -52.5s8.16602 -38 14.499 -58s14.166 -39.333 23.499 -58
c36 12.667 69.833 33.667 101.5 63s60 63.5 85 102.5s46.333 81.5 64 127.5s30.834 92 39.501 138s12.167 90.167 10.5 132.5s-9.16699 80 -22.5 113s-33 59.333 -59 79s-59.333 29.5 -100 29.5c-60 0 -114.167 -12 -162.5 -36s-91.333 -55.167 -129 -93.5
s-70.167 -81.666 -97.5 -129.999s-50 -96.666 -68 -144.999s-31.833 -94.333 -41.5 -138s-15.167 -80.5 -16.5 -110.5c0 -4 -1.66699 -6.83301 -5 -8.5s-6.66602 -1.16699 -9.99902 1.5l-50.5 42.5c-18.333 15 -43.833 26.833 -76.5 35.5c-5.33301 1.33301 -8 5 -8 11
c1.33301 34 9.33301 72.833 24 116.5s35.667 88.167 63 133.5s60.166 89.833 98.499 133.5s81.833 82.5 130.5 116.5s102 61.333 160 82s120 31 186 31c51.333 0 94.333 -10.167 129 -30.5s62 -47.833 82 -82.5s33.333 -75 40 -121s7.66699 -94.5 3 -145.5
s-14.667 -103 -30 -156s-34.833 -104.167 -58.5 -153.5s-51.167 -95.166 -82.5 -137.499s-65.333 -78.166 -102 -107.499c28 -16 60.833 -26.167 98.5 -30.5s82.5 0.5 134.5 14.5c4 1.33301 7.83301 0.666016 11.5 -2.00098s5.83398 -6.33398 6.50098 -11.001
c0.666992 -9.33301 2.33398 -19.833 5.00098 -31.5s7.83398 -24 15.501 -37s18.334 -26.167 32.001 -39.5s31.5 -25.666 53.5 -36.999z" />
    <glyph glyph-name="R" unicode="R" horiz-adv-x="953" 
d="M1122 -316c4 -2.66699 6.1709 -6.16309 6.50391 -10.4961s-1.16699 -8.16602 -4.5 -11.499c-4.66699 -3.33301 -11 -6.66602 -19 -9.99902s-18.833 -6.33301 -32.5 -9s-30.167 -5 -49.5 -7s-42.666 -3 -69.999 -3c-28 0 -57.5 3.83301 -88.5 11.5s-61.333 19.667 -91 36
s-57.834 37.166 -84.501 62.499s-49.334 55.5 -68.001 90.5s-32.5 75 -41.5 120s-10.833 95.833 -5.5 152.5c-29.333 -60.667 -60.166 -118.667 -92.499 -174s-66.166 -104.333 -101.499 -147s-72.666 -77 -111.999 -103s-80.666 -40 -123.999 -42c-6 0 -9 3 -9 9
c2.66699 18.667 3 38.5 1 59.5s-6.16699 41.5 -12.5 61.5s-14.833 38.667 -25.5 56s-23.334 32 -38.001 44c-10.667 8 -19.5 17.5 -26.5 28.5s-12.833 22 -17.5 33s-8.33398 22 -11.001 33s-4.33398 20.5 -5.00098 28.5c-0.666992 4 0.666016 7 3.99902 9
s6.66602 2 9.99902 0c8 -4.66699 21.167 -9 39.5 -13s44.833 -6 79.5 -6c38 0 76 12.667 114 38s75.833 58.666 113.5 99.999s75.5 88.666 113.5 141.999l113 164l111.5 164.5c37 53.667 73.833 102.167 110.5 145.5c-19.333 14 -42 25 -68 33s-55.333 12 -88 12
c-57.333 0 -106.666 -11 -147.999 -33s-75.166 -49.5 -101.499 -82.5s-45.5 -69 -57.5 -108s-17.333 -75.667 -16 -110s8.83301 -63.666 22.5 -87.999s33.167 -38.166 58.5 -41.499c3.33301 -0.666992 5.66602 -2.33398 6.99902 -5.00098s1 -5.33398 -1 -8.00098
c-4.66699 -6.66699 -12.5 -15 -23.5 -25l-46.5 -41c-14 -12.667 -25.167 -25.5 -33.5 -38.5s-14.833 -25.5 -19.5 -37.5s-7.83398 -22.833 -9.50098 -32.5s-2.83398 -17.167 -3.50098 -22.5c0 -2.66699 -1.16699 -4.83398 -3.5 -6.50098s-4.83301 -1.83398 -7.5 -0.500977
c-12 3.33301 -25 12 -39 26s-27 32.5 -39 55.5s-22.167 50.167 -30.5 81.5s-12.5 66.333 -12.5 105c0 28 5.33301 58.5 16 91.5s26 66 46 99s44.667 65 74 96s62.833 58.5 100.5 82.5s79.167 43.167 124.5 57.5s94.333 21.5 147 21.5c38 0 72.333 -3.83301 103 -11.5
s58.334 -18.167 83.001 -31.5c33.333 34.667 66 62.167 98 82.5s64 30.5 96 30.5c17.333 0 33.166 -2 47.499 -6s27 -8.83301 38 -14.5s20.167 -11.834 27.5 -18.501s13 -12.334 17 -17.001c1.33301 -2.66699 1.66602 -5.33398 0.999023 -8.00098
s-2.66699 -4.33398 -6 -5.00098c-12.667 -3.33301 -26.334 -12.166 -41.001 -26.499s-26.667 -31.166 -36 -50.499c-1.33301 -3.33301 -3.83301 -5 -7.5 -5s-6.16699 1.66699 -7.5 5c-2.66699 6 -6.33398 12.167 -11.001 18.5s-10.834 12.333 -18.501 18
s-17.167 10.334 -28.5 14.001s-24.666 5.5 -39.999 5.5c-14 0 -28 -4.66699 -42 -14s-28 -22.666 -42 -39.999c37.333 -30.667 65.5 -68.167 84.5 -112.5s29.5 -90.833 31.5 -139.5s-3.83301 -97.167 -17.5 -145.5s-34.167 -91.833 -61.5 -130.5s-61.333 -70.5 -102 -95.5
s-87 -38.5 -139 -40.5c-3.33301 -0.666992 -6.16602 0 -8.49902 2s-3.83301 4.66699 -4.5 8c-3.33301 13.333 -9.83301 25 -19.5 35s-19.834 19.333 -30.501 28c1.33301 -20.667 4.33301 -44.667 9 -72s12.5 -54.833 23.5 -82.5s25.5 -54 43.5 -79s40.667 -45.5 68 -61.5
s60.166 -26.167 98.499 -30.5s83.166 0.5 134.499 14.5c4 1.33301 7.83301 0.666016 11.5 -2.00098s5.83398 -6.33398 6.50098 -11.001c0.666992 -9.33301 2.33398 -19.833 5.00098 -31.5s7.83398 -24 15.501 -37s18.334 -26.167 32.001 -39.5s31.5 -25.666 53.5 -36.999z
M621.004 205.004c43.333 4.66699 81.833 16.332 115.5 34.999s62.5 41.834 86.5 69.501s42.833 58.5 56.5 92.5s22 68.5 25 103.5s0.166992 68.833 -8.5 101.5s-23 62 -43 88c-18 -28 -36.167 -60.5 -54.5 -97.5l-56.5 -119l-59 -133.5z" />
    <glyph glyph-name="S" unicode="S" horiz-adv-x="797" 
d="M858 840c22.667 0 38.6729 -6.16797 48.0059 -18.501s12.833 -28.5 10.5 -48.5s-10.333 -42.667 -24 -68s-32.334 -51.333 -56.001 -78s-52 -52.667 -85 -78s-70.167 -47.666 -111.5 -66.999c7.33301 -30.667 16.666 -61.667 27.999 -93s22.333 -64.833 33 -100.5
s19.834 -74.334 27.501 -116.001s11.5 -87.5 11.5 -137.5c0 -33.333 -7.16699 -71 -21.5 -113s-37.5 -81.833 -69.5 -119.5s-73.667 -69.334 -125 -95.001s-114 -38.5 -188 -38.5c-56 0 -105 9.83301 -147 29.5s-76.833 45.5 -104.5 77.5s-48.5 68.5 -62.5 109.5
s-21.333 82.833 -22 125.5s5.16602 84.5 17.499 125.5s31.166 77.5 56.499 109.5s56.666 57.833 93.999 77.5s80.666 29.5 129.999 29.5c34 0 63 -3.83301 87 -11.5s44 -17 60 -28s28.5 -22.5 37.5 -34.5s15.5 -22.333 19.5 -31c1.33301 -3.33301 1.5 -6.66602 0.5 -9.99902
s-3.16699 -5.66602 -6.5 -6.99902c-30.667 -13.333 -57 -33.666 -79 -60.999s-35.667 -58 -41 -92c-0.666992 -4.66699 -3.33398 -7 -8.00098 -7s-8.33398 1.66699 -11.001 5c-5.33301 9.33301 -13 19 -23 29s-21.667 15 -35 15c-34.667 0 -63.667 -9.16699 -87 -27.5
s-40.333 -41.166 -51 -68.499s-15 -57 -13 -89s10.333 -61.667 25 -89s35.667 -50.166 63 -68.499s61.666 -27.5 102.999 -27.5c42 0 78 7.5 108 22.5s54.5 34.5 73.5 58.5s33 51.167 42 81.5s13.5 60.833 13.5 91.5c0 40.667 -3.33301 78 -10 112
s-14.334 67.5 -23.001 100.5s-17 67 -25 102s-13 73.5 -15 115.5c-22.667 -5.33301 -46 -9.33301 -70 -12s-48.667 -4 -74 -4c-40 0 -74.833 5.5 -104.5 16.5s-54.667 24.167 -75 39.5s-36.666 30.833 -48.999 46.5s-21.166 28.167 -26.499 37.5
c-2 3.33301 -2.33301 6.66602 -1 9.99902s4 5.66602 8 6.99902c18 6 35.667 14.833 53 26.5s33.5 24.167 48.5 37.5s28.5 26.666 40.5 39.999s21.667 24.666 29 33.999c2.66699 3.33301 5.66699 4.33301 9 3s5.33301 -4 6 -8c0 -13.333 1.83301 -30.333 5.5 -51
s10.834 -40.667 21.501 -60s26 -35.833 46 -49.5s46.667 -20.5 80 -20.5c19.333 0 38.666 1 57.999 3c8 42.667 23.833 82.834 47.5 120.501s51.834 70.5 84.501 98.5s68 50.167 106 66.5s75.333 24.5 112 24.5zM629.006 558.999
c49.333 18.667 91.666 42.335 126.999 71.002s62.333 56.5 81 83.5s28.334 50.167 29.001 69.5s-9 29 -29 29c-19.333 0 -41 -6.5 -65 -19.5s-46.667 -30.333 -68 -52s-39.333 -46.834 -54 -75.501s-22 -58.667 -22 -90v-8c0 -2.66699 0.333008 -5.33398 1 -8.00098z" />
    <glyph glyph-name="T" unicode="T" horiz-adv-x="703" 
d="M802 864c30 0 65.1641 -1.33496 105.497 -4.00195s82.5 -5.66699 126.5 -9l134 -10.5c45.333 -3.66699 88.166 -6.5 128.499 -8.5s77 -2.83301 110 -2.5s59.167 2.83301 78.5 7.5c-20 -10 -40.167 -25 -60.5 -45s-38.833 -40 -55.5 -60c-19.333 -23.333 -38 -48 -56 -74
c-22 17.333 -49 34.333 -81 51c-27.333 14 -60.833 28.5 -100.5 43.5s-85.834 27.5 -138.501 37.5c-26 -5.33301 -52.667 -26.333 -80 -63s-55.666 -83 -84.999 -139s-59.666 -119 -90.999 -189l-98.5 -213.5c-34.333 -72.333 -70.166 -143 -107.499 -212
s-76.5 -130.667 -117.5 -185s-84 -98.5 -129 -132.5s-92.167 -52.333 -141.5 -55c-2.66699 -0.666992 -4.83398 0 -6.50098 2s-2.16699 4.33301 -1.5 7c2 18.667 2.16699 38.5 0.5 59.5s-5.66699 41.333 -12 61s-14.833 38.167 -25.5 55.5s-23.334 32 -38.001 44
c-10.667 8.66699 -19.667 18.334 -27 29.001s-13.166 21.667 -17.499 33s-7.83301 22.5 -10.5 33.5s-4.33398 20.5 -5.00098 28.5c-0.666992 3.33301 0.5 6 3.5 8s6.16699 2.33301 9.5 1c8.66699 -5.33301 22 -10 40 -14s44.667 -6 80 -6
c31.333 0 63.166 9.16699 95.499 27.5s64.833 43.166 97.5 74.499s65.334 67.833 98.001 109.5s65.5 85.834 98.5 132.501l99 143.5l98 141.5c32.333 45.333 64.5 87.833 96.5 127.5s63.667 73.834 95 102.501c-17.333 1.33301 -35 2.5 -53 3.5s-36.667 1.5 -56 1.5
c-60 0 -111.5 -8.16699 -154.5 -24.5s-79.5 -37.166 -109.5 -62.499s-54 -53 -72 -83s-32 -58.667 -42 -86s-16.667 -51.666 -20 -72.999s-5 -35.333 -5 -42c-1.33301 -6.66699 -6.66602 -11.667 -15.999 -15s-21 -6.5 -35 -9.5s-29.5 -6.83301 -46.5 -11.5
s-33.667 -12 -50 -22s-31.333 -23.333 -45 -40s-24.167 -38.667 -31.5 -66c-1.33301 -4.66699 -4 -7.83398 -8 -9.50098s-8 -1.5 -12 0.5c-12.667 6.66699 -23.834 20.5 -33.501 41.5s-15.667 46.167 -18 75.5s-0.166016 61.666 6.50098 96.999s19.834 71 39.501 107
s46.5 70.833 80.5 104.5s77.333 63.5 130 89.5s115.334 46.833 188.001 62.5s157.334 23.5 254.001 23.5z" />
    <glyph glyph-name="U" unicode="U" horiz-adv-x="821" 
d="M1353 797c1.33301 -3.33301 0.830078 -5.83594 -1.50293 -7.50293s-4.83301 -1.5 -7.5 0.5c-9.33301 7.33301 -22.166 14.5 -38.499 21.5s-37.833 10.5 -64.5 10.5c-34 0 -70.167 -13.167 -108.5 -39.5s-76.666 -61.333 -114.999 -105s-75.166 -93.667 -110.499 -150
s-66.5 -114.333 -93.5 -174s-48.667 -118.667 -65 -177s-24.5 -111.5 -24.5 -159.5c0 -74 11.5 -128.833 34.5 -164.5s53.5 -56.167 91.5 -61.5c4 -0.666992 6.66699 -2.66699 8 -6s0.333008 -6.66602 -3 -9.99902c-8.66699 -7.33301 -19.167 -17.666 -31.5 -30.999
s-24.666 -29.833 -36.999 -49.5s-23.5 -42.167 -33.5 -67.5s-17 -53.666 -21 -84.999c-0.666992 -4.66699 -3.16699 -8.16699 -7.5 -10.5s-8.83301 -2.16602 -13.5 0.500977c-12 6.66699 -27.333 18.167 -46 34.5s-37 38.833 -55 67.5s-33.5 64.167 -46.5 106.5
s-19.5 93.5 -19.5 153.5c0 9.33301 0.333008 19.166 1 29.499s1.66699 20.833 3 31.5c-15.333 -25.333 -31.333 -49.166 -48 -71.499s-34 -42 -52 -59s-36.5 -30.5 -55.5 -40.5s-38.5 -15 -58.5 -15c-31.333 0 -57.5 5.33301 -78.5 16s-37.833 24.834 -50.5 42.501
s-21.5 37.334 -26.5 59.001s-7.5 43.5 -7.5 65.5c0 38.667 9.33301 79.5 28 122.5s42.167 86.833 70.5 131.5s59 89.334 92 134.001l92 129.5c28.333 41.667 51.833 81 70.5 118s28 70.167 28 99.5c0 24.667 -3 45.834 -9 63.501s-14.333 32 -25 43
s-23.167 19.167 -37.5 24.5s-29.833 8 -46.5 8c-40 0 -74.5 -9.5 -103.5 -28.5s-52.667 -43 -71 -72s-31.5 -60.5 -39.5 -94.5s-11 -66 -9 -96s8.83301 -55.667 20.5 -77s27.834 -33.666 48.501 -36.999c3.33301 -0.666992 5.66602 -2.33398 6.99902 -5.00098
s1.33301 -5.33398 0 -8.00098c-6 -12.667 -14 -22.334 -24 -29.001s-21.167 -12.334 -33.5 -17.001l-38 -14c-13 -4.66699 -25.667 -11.334 -38 -20.001s-23.5 -20.334 -33.5 -35.001s-18 -34 -24 -58c-1.33301 -5.33301 -4.16602 -9.33301 -8.49902 -12
s-8.83301 -3.33398 -13.5 -2.00098c-18 6 -33 19.833 -45 41.5s-20.333 48.167 -25 79.5s-5.33398 66 -2.00098 104s11.333 76.333 24 115s30.167 76.167 52.5 112.5s50.166 68.666 83.499 96.999s72.5 51 117.5 68s96.5 25.5 154.5 25.5c31.333 0 58.5 -4.83301 81.5 -14.5
s42 -23 57 -40s26 -37.167 33 -60.5s10.5 -48.333 10.5 -75c0 -33.333 -6.33301 -69 -19 -107s-28.5 -76.667 -47.5 -116s-39.5 -78.666 -61.5 -117.999l-61.5 -113c-19 -36 -34.833 -69.333 -47.5 -100s-19 -57 -19 -79c0 -20.667 5 -38.167 15 -52.5
s24.333 -21.5 43 -21.5c12 0 25.5 6.5 40.5 19.5s30.5 29.5 46.5 49.5s31.667 42.5 47 67.5l43.5 73c13.667 23.667 25.667 45.667 36 66s18.166 36.166 23.499 47.499c22 47.333 46.5 94.333 73.5 141s55.833 91.334 86.5 134.001s62.834 82.167 96.501 118.5
s68 67.833 103 94.5s70.333 47.667 106 63s71.167 23 106.5 23c19.333 0 36 -2.16699 50 -6.5s26 -9.66602 36 -15.999s18.167 -13.5 24.5 -21.5s11.5 -15.667 15.5 -23z" />
    <glyph glyph-name="V" unicode="V" horiz-adv-x="896" 
d="M1095 853c6 -58 0.661133 -118.156 -16.0059 -180.489s-41 -125.333 -73 -189s-69.833 -126.667 -113.5 -189s-89.167 -122.333 -136.5 -180s-94.666 -111.834 -141.999 -162.501l-130 -136l-101.5 -100.5c-28.333 -27 -46.833 -45.833 -55.5 -56.5
c-2.66699 -3.33301 -8 -5 -16 -5c-18.667 -28 -33.667 -42 -45 -42c-10 0 -15.5 5 -16.5 15s-3.16699 23.833 -6.5 41.5s-11 38.5 -23 62.5s-34.333 50 -67 78c-3.33301 2 -4.5 4.66699 -3.5 8s3.16699 5.66602 6.5 6.99902c27.333 6 55.333 24.333 84 55
s56.334 69.5 83.001 116.5s51.834 100 75.501 159s44.334 120 62.001 183s31.667 125.5 42 187.5s15.5 119.333 15.5 172c0 24.667 -3 46 -9 64s-14.333 32.5 -25 43.5s-23.167 19.167 -37.5 24.5s-29.833 8 -46.5 8c-44 0 -80.167 -11 -108.5 -33s-50 -49.833 -65 -83.5
s-23.833 -70.167 -26.5 -109.5s-0.666992 -76.333 6 -111s17.5 -64.334 32.5 -89.001s33.167 -38.667 54.5 -42c7.33301 -1.33301 9.66602 -5.66602 6.99902 -12.999c-6 -12.667 -14 -22.334 -24 -29.001s-21.167 -12.334 -33.5 -17.001l-38.5 -14
c-13.333 -4.66699 -26 -11.334 -38 -20.001s-23.167 -20.334 -33.5 -35.001s-18.166 -34 -23.499 -58c-1.33301 -5.33301 -4.33301 -9.33301 -9 -12s-9.66699 -3 -15 -1c-18 6.66699 -33.5 21.834 -46.5 45.501s-22.833 52.5 -29.5 86.5s-9.66699 71.833 -9 113.5
s5.83398 83.667 15.501 126s24.334 83.5 44.001 123.5s45 75.5 76 106.5s68.333 55.833 112 74.5s94.5 28 152.5 28c31.333 0 58.5 -5.33301 81.5 -16s42 -25.334 57 -44.001s26 -40.834 33 -66.501s10.5 -53.834 10.5 -84.501c0 -62 -5 -128.167 -15 -198.5
s-23 -140.833 -39 -211.5s-34.333 -139.5 -55 -206.5s-41.667 -128.5 -63 -184.5c42 40 85.167 84.167 129.5 132.5s86.333 98.333 126 150s75.5 103.834 107.5 156.501s56.667 103.5 74 152.5s25.5 94.667 24.5 137s-14.5 79.166 -40.5 110.499
c-2.66699 2.66699 -3.33398 5.66699 -2.00098 9s3.66602 5.66602 6.99902 6.99902c24.667 7.33301 49.834 17.166 75.501 29.499s49.834 25.166 72.501 38.499s42.5 26.5 59.5 39.5s28.833 24.167 35.5 33.5c2.66699 3.33301 6 4.33301 10 3s6 -4 6 -8z" />
    <glyph glyph-name="W" unicode="W" horiz-adv-x="995" 
d="M1100 835c6 -58 4.83496 -117.828 -3.49805 -179.495s-21.666 -123.834 -39.999 -186.501s-40.666 -124.834 -66.999 -186.501s-54.5 -121 -84.5 -178s-60.333 -111 -91 -162s-59.834 -97.333 -87.501 -139l-74 -107.5c-21.667 -30 -38.5 -52.667 -50.5 -68
c-4.66699 -5.33301 -10.334 -8 -17.001 -8s-12 2.66699 -16 8c-30 40 -56.833 69.833 -80.5 89.5s-41.167 33.167 -52.5 40.5c-2 1.33301 -3 3.33301 -3 6s1.33301 4.66699 4 6c24.667 13.333 45.5 31.833 62.5 55.5s31.5 50.834 43.5 81.501s22 63.667 30 99
s15 71.333 21 108c-36 -49.333 -74.333 -98.833 -115 -148.5s-81 -96.5 -121 -140.5s-78.167 -83.5 -114.5 -118.5s-68.5 -62.833 -96.5 -83.5c-13.333 -11.333 -23.333 -17 -30 -17c-10 0 -15.5 5 -16.5 15s-3.33301 23.833 -7 41.5s-11.5 38.5 -23.5 62.5
s-34.333 50 -67 78c-2.66699 2.66699 -3.5 5.5 -2.5 8.5s3.16699 5.16699 6.5 6.5c20.667 4.66699 44 16.167 70 34.5s53.333 42 82 71s57.834 62.333 87.501 100s58.5 78 86.5 121s54.167 87.667 78.5 134s45.666 92.833 63.999 139.5s32.833 92.5 43.5 137.5
s16 87.167 16 126.5c0 50 -11.333 85.833 -34 107.5s-51 32.5 -85 32.5c-44 0 -80.167 -11 -108.5 -33s-49.833 -49.833 -64.5 -83.5s-23.5 -70.167 -26.5 -109.5s-1 -76.333 6 -111s18 -64.334 33 -89.001s32.833 -38.667 53.5 -42c8 -1.33301 10.667 -5.66602 8 -12.999
c-6 -12.667 -14 -22.334 -24 -29.001s-21.167 -12.334 -33.5 -17.001l-38.5 -14c-13.333 -4.66699 -26 -11.334 -38 -20.001s-23.167 -20.167 -33.5 -34.5s-18.166 -33.833 -23.499 -58.5c-1.33301 -5.33301 -4.33301 -9.33301 -9 -12s-9.66699 -3 -15 -1
c-18 6.66699 -33.5 21.834 -46.5 45.501s-22.833 52.5 -29.5 86.5s-9.66699 71.833 -9 113.5s5.83398 83.834 15.501 126.501s24.167 84 43.5 124s44.666 75.5 75.999 106.5s68.666 55.833 111.999 74.5s94 28 152 28c32 0 59.5 -5.33301 82.5 -16s42 -25.5 57 -44.5
s26 -41.333 33 -67s10.5 -53.834 10.5 -84.501c0 -58.667 -7.5 -120.667 -22.5 -186s-34.5 -131 -58.5 -197s-51.333 -130.833 -82 -194.5s-61.667 -122.834 -93 -177.501c12 9.33301 28.167 24.5 48.5 45.5s42.5 45.5 66.5 73.5l75 90l74 95
c6 41.333 12.5 81.166 19.5 119.499s15.667 72 26 101s23.666 52.167 39.999 69.5s37.166 26 62.499 26c21.333 0 33.5 -8.66699 36.5 -26s-1.16699 -40.666 -12.5 -69.999s-28.5 -63.833 -51.5 -103.5s-49.833 -81.5 -80.5 -125.5c1.33301 -32 4.5 -65.667 9.5 -101
l14.5 -101.5c4.66699 -32.333 8.33398 -61.5 11.001 -87.5s2.66699 -45.333 0 -58c54.667 87.333 99.167 167.333 133.5 240s60.833 138.167 79.5 196.5s30.834 110.166 36.501 155.499s7 84.833 4 118.5s-9 61.5 -18 83.5s-18.5 39.333 -28.5 52
c-2.66699 2.66699 -3.33398 5.66699 -2.00098 9s3.66602 5.66602 6.99902 6.99902c24.667 7.33301 47.167 17 67.5 29s38.333 24.667 54 38s29.167 26.333 40.5 39s20.333 23.334 27 32.001c2.66699 3.33301 6 4.5 10 3.5s6.33301 -3.83301 7 -8.5zM721.002 412.005
c-17.333 0 -33 -13.666 -47 -40.999s-22.667 -66.666 -26 -117.999c16 22 30 42.667 42 62s21.5 36.166 28.5 50.499s11 25.666 12 33.999s-2.16699 12.5 -9.5 12.5z" />
    <glyph glyph-name="X" unicode="X" horiz-adv-x="1019" 
d="M1177 757c-41.333 0 -81 -10.835 -119 -32.502s-75 -51 -111 -88s-71.167 -80.333 -105.5 -130s-67.833 -102.167 -100.5 -157.5c4 -50.667 7.33301 -99.5 10 -146.5s6.83398 -88.5 12.501 -124.5s13.667 -64.667 24 -86s24.833 -32 43.5 -32c12.667 0 27 6.33301 43 19
s32.667 29 50 49s34.5 42 51.5 66s32.667 47.333 47 70l37.5 61.5l23 39.5l18 -8c-44.667 -102.667 -88.667 -194.334 -132 -275.001c-18.667 -34.667 -38.167 -68.5 -58.5 -101.5s-40.5 -62.333 -60.5 -88s-39.667 -46.334 -59 -62.001s-37 -23.5 -53 -23.5
c-32 0 -57.167 11 -75.5 33s-31.833 51.667 -40.5 89s-13.667 81 -15 131s-0.666016 102.667 2.00098 158l-110.5 -188.5c-37 -60.333 -74.667 -114.166 -113 -161.499s-77.666 -85.5 -117.999 -114.5s-82.166 -44.5 -125.499 -46.5c-2.66699 -0.666992 -4.66699 0 -6 2
s-2 4.33301 -2 7c5.33301 40 2.83301 76.5 -7.5 109.5s-23.5 62.833 -39.5 89.5s-32.333 50.167 -49 70.5s-29 38.166 -37 53.499c-2.66699 4.66699 -2.16699 8.66699 1.5 12s7.83398 3.66602 12.501 0.999023c8 -4 17.667 -8.5 29 -13.5s24.166 -9.83301 38.499 -14.5
s29.833 -8.5 46.5 -11.5s33.667 -4.5 51 -4.5c36.667 0 73 10.5 109 31.5s72.333 49.333 109 85s73.334 76.834 110.001 123.501l112 147c4 66.667 7.16699 131.5 9.5 194.5s0.666016 118.833 -5.00098 167.5s-17.167 87.667 -34.5 117s-43.333 44 -78 44
c-33.333 0 -62 -6.5 -86 -19.5s-44 -30 -60 -51s-28.333 -45 -37 -72s-14.167 -54.833 -16.5 -83.5s-1.66602 -57 2.00098 -85s9.5 -53.167 17.5 -75.5s18.333 -41 31 -56s26.667 -23.833 42 -26.5c3.33301 -0.666992 5.66602 -2.16699 6.99902 -4.5
s1.33301 -5.16602 0 -8.49902c-6 -12.667 -14 -22.334 -24 -29.001s-21.167 -12.167 -33.5 -16.5l-38 -14c-13 -5 -25.667 -11.667 -38 -20s-23.5 -19.833 -33.5 -34.5s-18 -34.334 -24 -59.001c-1.33301 -5.33301 -4.33301 -9.33301 -9 -12s-9.66699 -3 -15 -1
c-18 6.66699 -33.167 21.834 -45.5 45.501s-21.666 52.5 -27.999 86.5s-9 71.833 -8 113.5s6.16699 83.834 15.5 126.501s23.333 84 42 124s42.334 75.5 71.001 106.5s63 55.833 103 74.5s86 28 138 28c43.333 0 79.666 -11.333 108.999 -34s53.166 -53 71.499 -91
s32.666 -81.5 42.999 -130.5s18.166 -99.833 23.499 -152.5c40.667 54 82.167 105.833 124.5 155.5s85.666 93.5 129.999 131.5s90.166 68.5 137.499 91.5s96 34.5 146 34.5c35.333 0 61.333 -3.16699 78 -9.5s28.334 -12.5 35.001 -18.5c3.33301 -3.33301 4.5 -7 3.5 -11
s-3.5 -6.66699 -7.5 -8c-16.667 -6.66699 -33.167 -19.667 -49.5 -39s-30.833 -41.666 -43.5 -66.999c-2.66699 -5.33301 -7 -8.16602 -13 -8.49902s-10.333 2.16699 -13 7.5c-5.33301 12.667 -14.333 24.334 -27 35.001s-31.334 16 -56.001 16z" />
    <glyph glyph-name="Y" unicode="Y" horiz-adv-x="863" 
d="M1410 790c-9.33301 7.33301 -22.1572 14.5 -38.4902 21.5s-37.833 10.5 -64.5 10.5c-42 0 -88.667 -19.167 -140 -57.5s-102.166 -92.166 -152.499 -161.499s-97.833 -152.5 -142.5 -249.5s-81 -204.5 -109 -322.5c-21.333 -89.333 -46.833 -162.5 -76.5 -219.5
s-61.834 -102.167 -96.501 -135.5s-70.834 -57 -108.501 -71s-75.167 -22.667 -112.5 -26c-3.33301 0 -6 1 -8 3s-2.66699 4.66699 -2 8c0.666992 8 1 19.833 1 35.5s-2.16699 33.5 -6.5 53.5s-11.833 41.5 -22.5 64.5s-26.334 46.167 -47.001 69.5
c-2.66699 2.66699 -3.16699 5.66699 -1.5 9s4.5 5 8.5 5c47.333 -4 89.333 -0.666992 126 10s68.667 27.167 96 49.5s50.666 49.5 69.999 81.5s35.666 67.667 48.999 107c3.33301 10.667 6.66602 20.334 9.99902 29.001c-31.333 -39.333 -63.333 -71.666 -96 -96.999
s-65.334 -38 -98.001 -38c-31.333 0 -57.5 5.33301 -78.5 16s-37.667 24.834 -50 42.501s-21 37.334 -26 59.001s-7.5 43.5 -7.5 65.5c0 38 6.5 73.667 19.5 107s29.5 65 49.5 95s41.333 58.667 64 86s44 54.333 64 81s36.5 53.667 49.5 81s19.5 55.666 19.5 84.999
c0 24.667 -3 45.834 -9 63.501s-14.333 32 -25 43s-23.167 19.167 -37.5 24.5s-29.833 8 -46.5 8c-40 0 -74.5 -9.5 -103.5 -28.5s-52.667 -43 -71 -72s-31.5 -60.5 -39.5 -94.5s-11 -66 -9 -96s8.83301 -55.667 20.5 -77s27.834 -33.666 48.501 -36.999
c3.33301 -0.666992 5.66602 -2.33398 6.99902 -5.00098s1.33301 -5.33398 0 -8.00098c-6 -12.667 -14 -22.334 -24 -29.001s-21.167 -12.334 -33.5 -17.001l-38 -14c-13 -4.66699 -25.667 -11.334 -38 -20.001s-23.5 -20.334 -33.5 -35.001s-18 -34 -24 -58
c-1.33301 -5.33301 -4.16602 -9.33301 -8.49902 -12s-8.83301 -3.33398 -13.5 -2.00098c-18 6 -33 19.833 -45 41.5s-20.333 48.167 -25 79.5s-5.33398 66 -2.00098 104s11.333 76.333 24 115s30.167 76.167 52.5 112.5s50.166 68.666 83.499 96.999s72.5 51 117.5 68
s96.5 25.5 154.5 25.5c31.333 0 58.5 -4.83301 81.5 -14.5s42 -23 57 -40s26 -37.167 33 -60.5s10.5 -48.333 10.5 -75c0 -50 -7.33301 -94.333 -22 -133s-31 -74.667 -49 -108s-34.333 -65.333 -49 -96s-22 -62.667 -22 -96c0 -20.667 5 -38 15 -52s24.667 -21 44 -21
c16 0 33.833 6.83301 53.5 20.5s40 31.334 61 53.001s42.167 46.167 63.5 73.5s41.666 55 60.999 83c35.333 66 73.666 127.333 114.999 184s84.166 106 128.499 148s90 74.833 137 98.5s93.833 35.5 140.5 35.5c19.333 0 36 -2.16699 50 -6.5s26 -9.66602 36 -15.999
s18.167 -13.5 24.5 -21.5s11.5 -15.667 15.5 -23c1.33301 -3.33301 0.833008 -5.83301 -1.5 -7.5s-4.83301 -1.5 -7.5 0.5z" />
    <glyph glyph-name="Z" unicode="Z" horiz-adv-x="755" 
d="M812 881c50 0 86.9971 -10.334 110.997 -31.001s37.5 -47.5 40.5 -80.5s-3.5 -70 -19.5 -111s-38.833 -81.667 -68.5 -122s-65.167 -78.333 -106.5 -114s-86 -64.834 -134 -87.501c25.333 -18 42.833 -46.5 52.5 -85.5s11.5 -82.833 5.5 -131.5s-20 -98.667 -42 -150
s-51.833 -98.333 -89.5 -141s-83.5 -77.667 -137.5 -105s-115.667 -41 -185 -41c-52 0 -96.167 13 -132.5 39s-63.333 58.5 -81 97.5s-26.167 81.167 -25.5 126.5s11.834 87.5 33.501 126.5s54 71.5 97 97.5s97.5 39 163.5 39c30.667 0 56.834 -4 78.501 -12
s39.834 -17.5 54.501 -28.5s26.167 -22.167 34.5 -33.5s14.5 -20.666 18.5 -27.999c3.33301 -8 1.66602 -14.667 -5.00098 -20c-18 -16 -32.833 -32.833 -44.5 -50.5s-21.667 -34.667 -30 -51l-22 -43.5c-6.33301 -12.667 -13.5 -22 -21.5 -28
c-3.33301 -3.33301 -7.16602 -3.66602 -11.499 -0.999023s-5.83301 6.33398 -4.5 11.001c2 9.33301 3 21 3 35s-3 27.667 -9 41s-16.5 24.833 -31.5 34.5s-36.5 14.5 -64.5 14.5c-30.667 0 -56.167 -7 -76.5 -21s-35.333 -31.333 -45 -52s-14.167 -43.167 -13.5 -67.5
s6.33398 -46.833 17.001 -67.5s26.167 -38 46.5 -52s45.833 -21 76.5 -21c54 0 100.833 13 140.5 39s72.167 58.5 97.5 97.5s43.666 81.333 54.999 127s15.833 88 13.5 127s-11.333 71.5 -27 97.5s-37.834 39 -66.501 39c-12 0 -22.333 0.666992 -31 2
s-16.334 2.66602 -23.001 3.99902c-5.33301 1.33301 -7.66602 4.66602 -6.99902 9.99902s3.66699 8.33301 9 9c43.333 4 83.333 14.333 120 31s69.834 37.334 99.501 62.001s55.834 52.167 78.501 82.5s41.667 61.166 57 92.499s26.833 61.833 34.5 91.5
s11.334 55.834 11.001 78.501s-4.5 41 -12.5 55s-20 21 -36 21c-33.333 0 -63.333 -5.5 -90 -16.5s-49.5 -25 -68.5 -42s-33.833 -36 -44.5 -57s-16.334 -41.833 -17.001 -62.5c-1.33301 -12.667 2.83398 -25.334 12.501 -38.001s23.5 -21 41.5 -25
c5.33301 -1.33301 8.5 -4.5 9.5 -9.5s-1.16699 -9.16699 -6.5 -12.5c-26 -16.667 -47.833 -33.167 -65.5 -49.5s-32 -31.666 -43 -45.999s-19.333 -27.166 -25 -38.499s-9.5 -20.333 -11.5 -27c-1.33301 -4 -3.66602 -7.16699 -6.99902 -9.5s-7 -3.5 -11 -3.5
c-17.333 2 -34.333 6.33301 -51 13s-31.334 15.667 -44.001 27s-22.834 25.166 -30.501 41.499s-11.5 34.5 -11.5 54.5c0 14 3.66699 32.5 11 55.5s19.166 47.5 35.499 73.5s37.833 52.167 64.5 78.5s59.167 50 97.5 71s83 38.167 134 51.5s109.5 20 175.5 20z" />
    <glyph glyph-name="bracketleft" unicode="[" 
d="M100 745h228v-995h-228v995zM153 -197h38h84v38h-84v46h84v38h-84h-38v-38v-46v-38zM153 -57h38h46h38v39v45v39h-38h-46h-38v-39v-45v-39zM237 27v-45h-46v45h46zM153 83h38h46h38v39v46v38h-38h-23v-38h23v-46h-46v84h-38v-84v-39zM153 373h27v-54h-27v-39h27h39v39v54
h56v39h-122v-39zM153 224h84h38v39v83h-38v-83h-84v-39zM153 430h38h22h38h24v38h-24v46v38h-38h-22h-38v-38v-46v-38zM213 514v-46h-22v46h22zM153 570h42h38h42v39h-42v45h42v38h-42h-38h-42v-38h42v-45h-42v-39z" />
    <glyph glyph-name="backslash" unicode="\" 
d="M100 745h228v-995h-228v995zM153 -197h38h84v38h-84v46h84v38h-84h-38v-38v-46v-38zM153 -57h38h46h38v39v45v39h-38h-46h-38v-39v-45v-39zM237 27v-45h-46v45h46zM153 83h38h46h38v39v46v38h-38h-23v-38h23v-46h-46v84h-38v-84v-39zM153 373h27v-54h-27v-39h27h39v39v54
h56v39h-122v-39zM153 224h84h38v39v83h-38v-83h-84v-39zM153 430h38h22h38h24v38h-24v46v38h-38h-22h-38v-38v-46v-38zM213 514v-46h-22v46h22zM153 570h42h38h42v39h-42v45h42v38h-42h-38h-42v-38h42v-45h-42v-39z" />
    <glyph glyph-name="bracketright" unicode="]" 
d="M100 745h228v-995h-228v995zM153 -197h38h84v38h-84v46h84v38h-84h-38v-38v-46v-38zM153 -57h38h46h38v39v45v39h-38h-46h-38v-39v-45v-39zM237 27v-45h-46v45h46zM153 83h38h46h38v39v46v38h-38h-23v-38h23v-46h-46v84h-38v-84v-39zM153 373h27v-54h-27v-39h27h39v39v54
h56v39h-122v-39zM153 224h84h38v39v83h-38v-83h-84v-39zM153 430h38h22h38h24v38h-24v46v38h-38h-22h-38v-38v-46v-38zM213 514v-46h-22v46h22zM153 570h42h38h42v39h-42v45h42v38h-42h-38h-42v-38h42v-45h-42v-39z" />
    <glyph glyph-name="asciicircum" unicode="^" 
d="M100 745h228v-995h-228v995zM153 -197h38h84v38h-84v46h84v38h-84h-38v-38v-46v-38zM153 -57h38h46h38v39v45v39h-38h-46h-38v-39v-45v-39zM237 27v-45h-46v45h46zM153 83h38h46h38v39v46v38h-38h-23v-38h23v-46h-46v84h-38v-84v-39zM153 373h27v-54h-27v-39h27h39v39v54
h56v39h-122v-39zM153 224h84h38v39v83h-38v-83h-84v-39zM153 430h38h22h38h24v38h-24v46v38h-38h-22h-38v-38v-46v-38zM213 514v-46h-22v46h22zM153 570h42h38h42v39h-42v45h42v38h-42h-38h-42v-38h42v-45h-42v-39z" />
    <glyph glyph-name="underscore" unicode="_" 
d="M100 745h228v-995h-228v995zM153 -197h38h84v38h-84v46h84v38h-84h-38v-38v-46v-38zM153 -57h38h46h38v39v45v39h-38h-46h-38v-39v-45v-39zM237 27v-45h-46v45h46zM153 83h38h46h38v39v46v38h-38h-23v-38h23v-46h-46v84h-38v-84v-39zM153 373h27v-54h-27v-39h27h39v39v54
h56v39h-122v-39zM153 224h84h38v39v83h-38v-83h-84v-39zM153 430h38h22h38h24v38h-24v46v38h-38h-22h-38v-38v-46v-38zM213 514v-46h-22v46h22zM153 570h42h38h42v39h-42v45h42v38h-42h-38h-42v-38h42v-45h-42v-39z" />
    <glyph glyph-name="grave" unicode="`" 
d="M100 745h228v-995h-228v995zM153 -197h38h84v38h-84v46h84v38h-84h-38v-38v-46v-38zM153 -57h38h46h38v39v45v39h-38h-46h-38v-39v-45v-39zM237 27v-45h-46v45h46zM153 83h38h46h38v39v46v38h-38h-23v-38h23v-46h-46v84h-38v-84v-39zM153 373h27v-54h-27v-39h27h39v39v54
h56v39h-122v-39zM153 224h84h38v39v83h-38v-83h-84v-39zM153 430h38h22h38h24v38h-24v46v38h-38h-22h-38v-38v-46v-38zM213 514v-46h-22v46h22zM153 570h42h38h42v39h-42v45h42v38h-42h-38h-42v-38h42v-45h-42v-39z" />
    <glyph glyph-name="a" unicode="a" horiz-adv-x="517" 
d="M593 269c2.66699 0 4.66504 -1.16406 5.99805 -3.49707s1.33301 -4.5 0 -6.5c-4.66699 -9.33301 -12.5 -24 -23.5 -44l-38.5 -67c-14.667 -24.667 -30.667 -50 -48 -76s-35.166 -49.833 -53.499 -71.5s-36.666 -39.334 -54.999 -53.001s-35.166 -20.5 -50.499 -20.5
c-16.667 0 -30.334 3.16699 -41.001 9.5s-19.167 14.166 -25.5 23.499s-10.833 19.333 -13.5 30s-4.33398 20.667 -5.00098 30c-21.333 -28 -43.5 -50.5 -66.5 -67.5s-44.5 -25.5 -64.5 -25.5c-36.667 0 -64.167 12.5 -82.5 37.5s-28.666 56.167 -30.999 93.5
s2.5 77.833 14.5 121.5s29.833 84.167 53.5 121.5s52.5 68.5 86.5 93.5s72 37.5 114 37.5c28 0 49.333 -6.33301 64 -19s24.667 -29.667 30 -51c8.66699 24.667 12 45 10 61c0 3.33301 1.16699 6 3.5 8s5.16602 2.33301 8.49902 1
c8.66699 -3.33301 18.334 -7.33301 29.001 -12s22.667 -7 36 -7c6 0 13.167 0.833008 21.5 2.5s16.666 3.66699 24.999 6s16.166 4.66602 23.499 6.99902s13.333 4.16602 18 5.49902s8.33398 0 11.001 -4s2.33398 -7.33301 -0.999023 -10c-6 -4.66699 -14.5 -14 -25.5 -28
s-23 -30.667 -36 -50s-26.167 -40.5 -39.5 -63.5s-25.5 -45.833 -36.5 -68.5s-20 -44.167 -27 -64.5s-10.5 -37.5 -10.5 -51.5c0 -13.333 2.33301 -24.166 7 -32.499s12.334 -12.5 23.001 -12.5c8.66699 0 18.667 4.66699 30 14s23 21 35 35s24 29.667 36 47l33.5 49.5
c10.333 15.667 19.166 29.667 26.499 42l15 25.5c0.666992 1.33301 2 2.83301 4 4.5s5.33301 2.5 10 2.5zM338.998 302.003c4.66699 27.333 4.16699 50.166 -1.5 68.499s-18.5 27.5 -38.5 27.5c-19.333 0 -39 -8.5 -59 -25.5s-38.167 -38.167 -54.5 -63.5
s-29.833 -53 -40.5 -83s-16.667 -57.667 -18 -83s2.83398 -46.5 12.501 -63.5s26.834 -25.5 51.501 -25.5c9.33301 0 19.666 4.83301 30.999 14.5s22.666 22.167 33.999 37.5c9.33301 32.667 22 65.834 38 99.501z" />
    <glyph glyph-name="b" unicode="b" horiz-adv-x="422" 
d="M441 719c4 1.33301 7.49902 -0.00195312 10.499 -4.00195s2.83301 -7.66699 -0.5 -11c-14.667 -14 -31 -32.667 -49 -56s-36.833 -49.333 -56.5 -78s-39.5 -59.5 -59.5 -92.5l-58 -98.5c17.333 16.667 35.5 29.667 54.5 39s38.833 14 59.5 14
c35.333 0 59.833 -12.5 73.5 -37.5s19 -56.167 16 -93.5s-12.667 -77.833 -29 -121.5s-36.833 -84.167 -61.5 -121.5s-52 -68.5 -82 -93.5s-60 -37.5 -90 -37.5s-51.5 11.667 -64.5 35s-18.833 53 -17.5 89c-11.333 -43.333 -14.333 -77.666 -9 -102.999
c1.33301 -4 0.5 -7.66699 -2.5 -11s-6.83301 -5.33301 -11.5 -6c-12.667 -1.33301 -26.167 -0.166016 -40.5 3.50098s-28.833 6.66699 -43.5 9s-29.5 3 -44.5 2s-29.167 -6.83301 -42.5 -17.5c-3.33301 -2.66699 -7.16602 -2.33398 -11.499 0.999023
s-4.83301 6.33301 -1.5 9c5.33301 3.33301 14.833 16.333 28.5 39s29.667 51.334 48 86.001l60 117.5l65.5 134l63 134.5l53.5 119.5c15.667 35.667 28 65.334 37 89.001s13.167 37.834 12.5 42.501c0 3.33301 1.33301 6 4 8s5.66699 2.33301 9 1
c8 -2.66699 18 -6.33398 30 -11.001s25 -7 39 -7c10.667 0 21.667 1.16699 33 3.5s22 5 32 8s19 6.16699 27 9.5s14.333 5.66602 19 6.99902zM312.999 393.998c-17.333 0 -35.501 -7.83301 -54.501 -23.5s-36.667 -35.5 -53 -59.5s-30.5 -49.667 -42.5 -77
s-19.833 -53 -23.5 -77s-2.16699 -43.833 4.5 -59.5s20.667 -23.5 42 -23.5c17.333 0 34.833 7.83301 52.5 23.5s34 35.5 49 59.5s27.833 49.667 38.5 77s17.834 53 21.501 77s3 43.833 -2 59.5s-15.833 23.5 -32.5 23.5z" />
    <glyph glyph-name="c" unicode="c" horiz-adv-x="351" 
d="M278 432c30.667 0 53.332 -6.66895 67.999 -20.002s23.667 -29.833 27 -49.5s1.5 -41.167 -5.5 -64.5s-17 -44.833 -30 -64.5s-28.167 -36.167 -45.5 -49.5s-34.666 -20 -51.999 -20c-15.333 0 -26.166 3.5 -32.499 10.5s-10.166 15.5 -11.499 25.5s-0.5 20.167 2.5 30.5
s6.5 18.833 10.5 25.5c12 -12 24 -17.5 36 -16.5s23 5.66699 33 14s18.5 19 25.5 32s11.833 25.667 14.5 38s2.5 23 -0.5 32s-9.83301 13.5 -20.5 13.5c-25.333 0 -49.5 -8 -72.5 -24s-43.167 -36.167 -60.5 -60.5s-31.166 -50.666 -41.499 -78.999
s-15.666 -54.666 -15.999 -78.999s5.16699 -44.5 16.5 -60.5s30 -24 56 -24c23.333 0 47.5 9.5 72.5 28.5s48.5 41.167 70.5 66.5s41.667 50.333 59 75s29.666 43 36.999 55c1.33301 1.33301 2.66602 2 3.99902 2h12l1 -1v-3l-19 -36.5c-10 -19 -22.5 -41 -37.5 -66
s-32 -51.333 -51 -79s-38.833 -53.167 -59.5 -76.5s-41.834 -42.5 -63.501 -57.5s-42.834 -22.5 -63.501 -22.5c-34.667 0 -62.5 7.16699 -83.5 21.5s-36.167 33.333 -45.5 57s-13.333 50.667 -12 81s7 61.333 17 93s23.667 62.667 41 93s37.5 57.333 60.5 81
s48 42.667 75 57s55.167 21.5 84.5 21.5z" />
    <glyph glyph-name="d" unicode="d" horiz-adv-x="531" 
d="M715 719c4 1.33301 7.49609 0.167969 10.4961 -3.49902s2.83301 -7.16699 -0.5 -10.5c-18.667 -18 -40.334 -43.667 -65.001 -77s-49.834 -70.166 -75.501 -110.499s-50.834 -82.333 -75.501 -126s-46.667 -85.167 -66 -124.5s-35 -74.333 -47 -105s-18 -53 -18 -67
s2.33301 -25 7 -33s12.334 -12 23.001 -12c8 0 17.833 4.66699 29.5 14s23.834 21 36.501 35s25.5 29.667 38.5 47l36 49.5l29 42.5l17.5 27c0.666992 2.66699 3.33398 4 8.00098 4c3.33301 0 5.83301 -1.5 7.5 -4.5s1.83398 -6.16699 0.500977 -9.5l-26.5 -46.5
c-11.667 -20.333 -25.167 -42.666 -40.5 -66.999s-32 -49 -50 -74s-36.333 -47.833 -55 -68.5s-37 -37.667 -55 -51s-34.667 -20 -50 -20c-17.333 0 -31.333 3.33301 -42 10s-19.167 15 -25.5 25s-10.666 20.667 -12.999 32s-3.83301 21.333 -4.5 30
c-22 -29.333 -44.667 -53 -68 -71s-45.666 -27 -66.999 -27c-36.667 0 -64.167 12.5 -82.5 37.5s-28.666 56.167 -30.999 93.5s2.5 77.833 14.5 121.5s29.833 84.167 53.5 121.5s52.5 68.5 86.5 93.5s72 37.5 114 37.5c32 0 55.667 -8.33301 71 -25s24 -39 26 -67l57.5 115
l51 106c15 32.667 27 61.167 36 85.5s12.833 42.166 11.5 53.499c-0.666992 3.33301 0.333008 6.16602 3 8.49902s5.66699 2.83301 9 1.5l31 -12c12 -4.66699 25 -7 39 -7c10.667 0 21.5 1.16699 32.5 3.5s21.5 5.16602 31.5 8.49902l27.5 9.5
c8.33301 3 14.833 5.16699 19.5 6.5zM330.996 267.002c4.66699 17.333 7.99902 34 9.99902 50s1.83301 30 -0.5 42s-6.83301 21.5 -13.5 28.5s-16 10.5 -28 10.5c-19.333 0 -39 -8.5 -59 -25.5s-38.167 -38.167 -54.5 -63.5s-29.833 -53 -40.5 -83s-16.667 -57.667 -18 -83
s2.83398 -46.5 12.501 -63.5s26.834 -25.5 51.501 -25.5c11.333 0 24.333 7.16699 39 21.5s28.667 32.5 42 54.5c7.33301 20 16.166 41.5 26.499 64.5z" />
    <glyph glyph-name="e" unicode="e" horiz-adv-x="352" 
d="M434 269c0.666992 0 0.999023 -0.328125 0.999023 -0.995117v-4c-2.66699 -6.66699 -8.33398 -19.5 -17.001 -38.5s-19.834 -41 -33.501 -66s-29.5 -51.167 -47.5 -78.5s-37.333 -52.333 -58 -75s-42.667 -41.5 -66 -56.5s-47.333 -22.5 -72 -22.5
c-34.667 0 -62.5 7.16699 -83.5 21.5s-36.167 33.333 -45.5 57s-13.166 50.667 -11.499 81s7.33398 61.333 17.001 93s23.334 62.667 41.001 93s37.834 57.333 60.501 81s47.5 42.667 74.5 57s55.167 21.5 84.5 21.5s51 -7.33301 65 -22s21.5 -32.834 22.5 -54.501
s-3.5 -45.167 -13.5 -70.5s-24.5 -48.833 -43.5 -70.5s-41.5 -39.834 -67.5 -54.501s-54 -22 -84 -22c-18.667 0 -34.334 3.66699 -47.001 11c-2 -14.667 -2.33301 -28.5 -1 -41.5s4.83301 -24.333 10.5 -34s13.334 -17.334 23.001 -23.001s21.834 -8.5 36.501 -8.5
c15.333 0 31.166 4.5 47.499 13.5s32.333 20.333 48 34s31.167 29.167 46.5 46.5s29.166 34.166 41.499 50.499s23.333 31.666 33 45.999l22.5 33.5c2 2 3.66699 3 5 3h11zM274.999 369.005c-14.667 0 -29.167 -4.33398 -43.5 -13.001s-28 -20.167 -41 -34.5
s-25 -30.666 -36 -48.999s-20.167 -37.5 -27.5 -57.5c2 -6 5.16699 -11 9.5 -15s10.166 -6 17.499 -6c16 0 31 4.33301 45 13s26.833 19.5 38.5 32.5s21.667 27 30 42s14.333 29 18 42s4.83398 23.833 3.50098 32.5s-6 13 -14 13z" />
    <glyph glyph-name="f" unicode="f" horiz-adv-x="436" 
d="M508 269c3.33301 0 5.99414 -1.66699 7.99414 -5s2.33301 -6.66602 1 -9.99902c-36.667 -66 -72.167 -113.833 -106.5 -143.5s-62.5 -44.5 -84.5 -44.5c-11.333 0 -22.5 1.66699 -33.5 5s-20.833 9 -29.5 17s-15.667 18.167 -21 30.5s-8 27.5 -8 45.5
c0 8.66699 0.666992 17.167 2 25.5s3 16.166 5 23.499l-19.5 -10c-6.33301 -3.33301 -12.833 -6.33301 -19.5 -9l-64 -184c-22 -62.667 -46.667 -119.667 -74 -171s-58.5 -93.333 -93.5 -126s-75.5 -49 -121.5 -49c-5.33301 0 -8 2.66699 -8 8
c0.666992 13.333 -0.666016 27 -3.99902 41s-7.66602 27.5 -12.999 40.5s-11.5 25.333 -18.5 37l-19.5 32.5c-2 2.66699 -2 5.33398 0 8.00098s4.66699 3.66699 8 3c32.667 -9.33301 62.5 -5.5 89.5 11.5s52.167 42.5 75.5 76.5s45.333 74 66 120l62 142
c-19.333 8 -33.5 19.333 -42.5 34s-15.167 26.667 -18.5 36c-2 8.66699 0.333008 15.667 7 21c12.667 8 24.167 17.667 34.5 29s18.833 21.666 25.5 30.999c2 2.66699 4.5 3.66699 7.5 3s4.83301 -2.66699 5.5 -6c1.33301 -8.66699 3.66602 -18.167 6.99902 -28.5
s8 -19.5 14 -27.5c16.667 36.667 34 71.667 52 105s37.333 62.5 58 87.5s43 44.833 67 59.5s50 22 78 22c25.333 0 44.833 -5.16699 58.5 -15.5s22.834 -23.5 27.501 -39.5s5.66699 -33 3 -51s-7.16699 -35 -13.5 -51s-14.166 -29.167 -23.499 -39.5s-18 -15.5 -26 -15.5
c-4 0 -5.66699 2.33301 -5 7s0.833984 11 0.500977 19s-2.66602 17.167 -6.99902 27.5s-13.833 21.5 -28.5 33.5c-2 1.33301 -2.66699 3 -2 5s2.33398 3 5.00098 3c14 2 26.333 6.83301 37 14.5s18.334 15.834 23.001 24.501s5.33398 16.334 2.00098 23.001s-12 10 -26 10
c-19.333 0 -37.333 -6.33301 -54 -19s-32.334 -30 -47.001 -52s-28.667 -47.833 -42 -77.5s-26.333 -61.5 -39 -95.5l23.5 6c7.66699 2 14.834 4.33301 21.501 7c8.66699 12.667 18.167 23.667 28.5 33s19.666 16.166 27.999 20.499s15.333 6.33301 21 6s8.5 -3.5 8.5 -9.5
c0 -8 -4.33301 -17.667 -13 -29s-20.334 -23.333 -35.001 -36c-1.33301 -10 -2 -21.167 -2 -33.5s1.66699 -23.833 5 -34.5s9 -19.667 17 -27s19 -11 33 -11c16.667 0 32.5 4.66699 47.5 14s28.667 20.333 41 33s22.833 25.167 31.5 37.5s14.667 21.166 18 26.499
c2 3.33301 5 5 9 5z" />
    <glyph glyph-name="g" unicode="g" horiz-adv-x="442" 
d="M537 434c4.66699 1.33301 8.33203 0.000976562 10.999 -3.99902s2.33398 -7.33301 -0.999023 -10c-31.333 -20.667 -58.833 -47.167 -82.5 -79.5s-45.167 -67.833 -64.5 -106.5s-36.833 -79.5 -52.5 -122.5l-47 -127c-15.667 -41.667 -31.667 -81.5 -48 -119.5
s-34.833 -71.667 -55.5 -101s-44.167 -53 -70.5 -71s-56.833 -27.667 -91.5 -29c-5.33301 0 -8 2.66699 -8 8c0.666992 13.333 -0.666016 26.833 -3.99902 40.5s-7.66602 27 -12.999 40s-11.5 25.5 -18.5 37.5l-19.5 33c-2 2.66699 -1.83301 5.33398 0.5 8.00098
s5.16602 3.33398 8.49902 2.00098c23.333 -7.33301 45.833 -6.83301 67.5 1.5s41.834 20.833 60.501 37.5s35.667 35.667 51 57s28.333 41 39 59c-17.333 -18.667 -33.333 -33.5 -48 -44.5s-27.667 -16.5 -39 -16.5c-36.667 0 -64 12.5 -82 37.5s-28.167 56.167 -30.5 93.5
s2.5 77.833 14.5 121.5s29.833 84.167 53.5 121.5s52.5 68.5 86.5 93.5s72 37.5 114 37.5c31.333 0 54.333 -6.83301 69 -20.5s23.667 -32.167 27 -55.5c7.33301 26.667 10 48.667 8 66c0 3.33301 1.16699 6.16602 3.5 8.49902s5.16602 2.83301 8.49902 1.5
c8.66699 -3.33301 18.334 -7.33301 29.001 -12s22.667 -7 36 -7c6 0 13.167 0.833008 21.5 2.5s16.666 3.66699 24.999 6s16.166 4.66602 23.499 6.99902s13.333 4.16602 18 5.49902zM156.998 54.001c10.667 0 23.8311 8.5 39.498 25.5s31.5 38.167 47.5 63.5
s30.833 53 44.5 83s23.834 57.667 30.501 83s8.83398 46.5 6.50098 63.5s-11.833 25.5 -28.5 25.5c-19.333 0 -38.833 -8.5 -58.5 -25.5s-38 -38.167 -55 -63.5s-31.5 -53 -43.5 -83s-19.833 -57.667 -23.5 -83s-2.66699 -46.5 3 -63.5s18.167 -25.5 37.5 -25.5z" />
    <glyph glyph-name="h" unicode="h" horiz-adv-x="464" 
d="M536 269c3.33301 0 6.00098 -1.67188 8.00098 -5.00488s2 -6.66602 0 -9.99902c-5.33301 -10.667 -13.5 -26.167 -24.5 -46.5l-38 -67c-14.333 -24.333 -30.166 -49 -47.499 -74s-35.166 -47.833 -53.499 -68.5s-36.666 -37.667 -54.999 -51s-35.5 -20 -51.5 -20
c-19.333 0 -35.166 3.33301 -47.499 10s-22 15.167 -29 25.5s-11.667 21.5 -14 33.5s-3.5 23.333 -3.5 34c0 18.667 5.16699 40 15.5 64s22.666 48.5 36.999 73.5l44.5 74c15.333 24.333 27.833 46 37.5 65s15 34.333 16 46s-5.5 17.5 -19.5 17.5
c-11.333 0 -23.666 -4.16699 -36.999 -12.5s-26.833 -19 -40.5 -32s-26.834 -27.167 -39.501 -42.5s-23.334 -29.666 -32.001 -42.999c-14 -31.333 -26.667 -61.5 -38 -90.5s-20.5 -56 -27.5 -81s-11.833 -47.833 -14.5 -68.5s-2.33398 -38 0.999023 -52
c1.33301 -4 0.5 -7.66699 -2.5 -11s-6.83301 -5.33301 -11.5 -6c-12.667 -1.33301 -26.167 -0.166016 -40.5 3.50098s-29 6.66699 -44 9s-29.833 3 -44.5 2s-29 -6.83301 -43 -17.5c-3.33301 -2.66699 -7.16602 -2.16699 -11.499 1.5s-4.5 6.5 -0.5 8.5
c5.33301 3.33301 14.833 16.333 28.5 39s29.667 51.334 48 86.001l60 117.5l65 134l63 134.5l53.5 119.5c15.333 35.667 27.666 65.334 36.999 89.001s13.666 37.834 12.999 42.501c0 3.33301 1.16699 6 3.5 8s5.16602 2.33301 8.49902 1
c8.66699 -2.66699 19 -6.33398 31 -11.001s25 -7 39 -7c10.667 0 21.5 1.16699 32.5 3.5s21.5 5 31.5 8s19.167 6.16699 27.5 9.5s14.833 5.66602 19.5 6.99902c4 1.33301 7.33301 0 10 -4s2.33398 -7.66699 -0.999023 -11c-16 -15.333 -34 -36.166 -54 -62.499
s-40.667 -55.666 -62 -87.999s-42.833 -66.666 -64.5 -102.999s-42.167 -72.5 -61.5 -108.5c5.33301 7.33301 12.666 16.166 21.999 26.499s20.5 20.166 33.5 29.499s27.5 17.333 43.5 24s33.667 10 53 10c29.333 0 49.833 -5.5 61.5 -16.5s17.5 -25.5 17.5 -43.5
s-4.5 -38.5 -13.5 -61.5s-19.5 -46.333 -31.5 -70l-36.5 -70c-12.333 -23 -22 -43.5 -29 -61.5s-10 -32.5 -9 -43.5s9.16699 -16.5 24.5 -16.5c6 0 14 4.66699 24 14s21 21 33 35s24.5 29.667 37.5 47l36.5 49.5l30 42.5c8.66699 12.667 14.667 21.667 18 27
c1.33301 3.33301 4 5 8 5z" />
    <glyph glyph-name="i" unicode="i" horiz-adv-x="267" 
d="M234 455c-16.667 0 -30.667 5.66699 -42 17s-17 25.333 -17 42c0 16 5.66699 29.667 17 41s25.333 17 42 17c16 0 29.667 -5.66699 41 -17s17 -25 17 -41c0 -16.667 -5.66699 -30.667 -17 -42s-25 -17 -41 -17zM339 269c3.33301 0 5.99902 -1.66895 7.99902 -5.00195
s2 -6.66602 0 -9.99902l-26.5 -46.5c-11.667 -20.333 -25.167 -42.666 -40.5 -66.999s-32 -49 -50 -74s-36.333 -47.833 -55 -68.5s-37 -37.667 -55 -51s-34.667 -20 -50 -20c-19.333 0 -34.666 4.16699 -45.999 12.5s-19.833 18.5 -25.5 30.5s-9.33398 24.167 -11.001 36.5
s-2.5 22.5 -2.5 30.5c0 31.333 7.16699 65.166 21.5 101.499s29.833 72 46.5 107s31.5 68 44.5 99s18.5 57.167 16.5 78.5c-0.666992 3.33301 0.333008 6 3 8s5.66699 2.33301 9 1l28 -12c10.667 -4.66699 23 -7 37 -7c6 0 13 0.833008 21 2.5s16.167 3.66699 24.5 6l24 7
l18.5 5.5c4 1.33301 7.5 0 10.5 -4s2.83301 -7.33301 -0.5 -10c-6 -4.66699 -14.5 -14 -25.5 -28s-23 -30.667 -36 -50s-26.167 -40.5 -39.5 -63.5s-25.5 -45.833 -36.5 -68.5s-20 -44.167 -27 -64.5s-10.5 -37.5 -10.5 -51.5c0 -13.333 2.33301 -24.166 7 -32.499
s12.334 -12.5 23.001 -12.5c8.66699 0 18.667 4.66699 30 14s23.333 21 36 35s25.5 29.667 38.5 47l36 49.5l29 42.5l17.5 27c2 3.33301 4.66699 5 8 5z" />
    <glyph glyph-name="j" unicode="j" horiz-adv-x="192" 
d="M233 455c-16 0 -29.667 5.66699 -41 17s-17 25.333 -17 42c0 16 5.66699 29.667 17 41s25 17 41 17s29.833 -5.66699 41.5 -17s17.5 -25 17.5 -41c0 -16.667 -5.83301 -30.667 -17.5 -42s-25.5 -17 -41.5 -17zM289 434
c4.66699 1.33301 8.33496 -0.00390625 11.002 -4.00391s2.33398 -7.33301 -0.999023 -10c-31.333 -20.667 -58.833 -47.167 -82.5 -79.5s-45.167 -67.833 -64.5 -106.5s-36.833 -79.5 -52.5 -122.5l-47 -127c-15.667 -41.667 -31.667 -81.5 -48 -119.5
s-34.833 -71.667 -55.5 -101s-44.167 -53 -70.5 -71s-56.833 -27.667 -91.5 -29c-5.33301 0 -8 2.66699 -8 8c0.666992 13.333 -0.666016 26.833 -3.99902 40.5s-7.66602 27 -12.999 40s-11.5 25.5 -18.5 37.5l-19.5 33c-2 2.66699 -1.83301 5.33398 0.5 8.00098
s5.16602 3.33398 8.49902 2.00098c22 -8 44.167 -6.16699 66.5 5.5s44.333 29.834 66 54.501s42.667 54.334 63 89.001s39.5 70.834 57.5 108.501s34.667 75.334 50 113.001s28.666 72 39.999 103s20.166 57 26.499 78s10.166 33.5 11.499 37.5
c1.33301 8.66699 5.33301 12 12 10c8 -3.33301 19.167 -7.33301 33.5 -12s28.166 -7 41.499 -7c6 0 13 0.833008 21 2.5s16.333 3.66699 25 6s16.667 4.66602 24 6.99902s13.333 4.16602 18 5.49902z" />
    <glyph glyph-name="k" unicode="k" horiz-adv-x="470" 
d="M447 719c4 1.33301 7.33691 -0.00683594 10.0039 -4.00684s2.33398 -7.66699 -0.999023 -11c-16 -15.333 -34.333 -36.5 -55 -63.5s-42 -57.167 -64 -90.5s-44 -68.666 -66 -105.999l-62 -110c-5.33301 -10 -10.5 -20.333 -15.5 -31s-10.167 -21 -15.5 -31
c9.33301 2.66699 23 8 41 16s36.5 18.667 55.5 32s36.667 30 53 50s27.166 44 32.499 72c0.666992 3.33301 2.5 5.33301 5.5 6s5.16699 -0.666016 6.5 -3.99902c4 -8 8.33301 -18 13 -30s9.66699 -24.167 15 -36.5s11.166 -23.5 17.499 -33.5s13.5 -16.333 21.5 -19
c4.66699 -2.66699 6 -6 4 -10c-2.66699 -3.33301 -6.83398 -7.5 -12.501 -12.5s-13.834 -10.667 -24.501 -17s-24.667 -12.833 -42 -19.5s-38.666 -13.334 -63.999 -20.001c8 -9.33301 12.833 -20.666 14.5 -33.999s2.33398 -27.333 2.00098 -42s-1 -29.167 -2 -43.5
s-0.833008 -27.333 0.5 -39s5 -21 11 -28s15.667 -10.5 29 -10.5c6 0 14 4.66699 24 14s21 21 33 35s24.5 29.667 37.5 47l36.5 49.5c11.333 15.667 21.166 29.834 29.499 42.501l17.5 27c2 3.33301 5 5 9 5c3.33301 0 6 -1.66699 8 -5s2 -6.66602 0 -9.99902
c-5.33301 -10.667 -13.5 -26.167 -24.5 -46.5s-23.833 -42.666 -38.5 -66.999s-30.667 -49 -48 -74s-35 -47.833 -53 -68.5s-36.167 -37.667 -54.5 -51s-35.5 -20 -51.5 -20c-19.333 0 -35.166 3.33301 -47.499 10s-22 15.167 -29 25.5s-11.667 21.5 -14 33.5
s-3.5 23.333 -3.5 34c0 20 3.5 40.5 10.5 61.5s13.167 40.333 18.5 58s7.66602 32 6.99902 43s-8.66699 16.5 -24 16.5c-12.667 0 -24.5 -6 -35.5 -18s-20.833 -25.333 -29.5 -40c-10 -17.333 -19.333 -36.666 -28 -57.999v1c-10 -31.333 -16.833 -59.333 -20.5 -84
s-3.83398 -45.334 -0.500977 -62.001c1.33301 -4 0.5 -7.66699 -2.5 -11s-6.83301 -5.33301 -11.5 -6c-12.667 -1.33301 -26.167 -0.166016 -40.5 3.50098s-29 6.66699 -44 9s-30 3 -45 2s-29.167 -6.83301 -42.5 -17.5c-3.33301 -2.66699 -7.16602 -2.16699 -11.499 1.5
s-4.5 6.5 -0.5 8.5c5.33301 3.33301 14.833 16.333 28.5 39s29.667 51.334 48 86.001l60 117.5l65 134l63 134.5l53.5 119.5c15.333 35.667 27.666 65.334 36.999 89.001s13.666 37.834 12.999 42.501c-0.666992 3.33301 0.333008 6 3 8s5.66699 2.33301 9 1
c8.66699 -2.66699 19 -6.33398 31 -11.001s24.667 -7 38 -7c10.667 0 21.667 1.16699 33 3.5s22 5 32 8s19.167 6.16699 27.5 9.5s14.833 5.66602 19.5 6.99902z" />
    <glyph glyph-name="l" unicode="l" horiz-adv-x="260" 
d="M253 700c-0.666992 3.33301 0.332031 6.16504 2.99902 8.49805s5.66699 2.83301 9 1.5l31 -12c12 -4.66699 24.667 -7 38 -7c10.667 0 21.667 1.16699 33 3.5s22 5.16602 32 8.49902l27.5 9.5c8.33301 3 14.833 5.16699 19.5 6.5c4 1.33301 7.33301 0.166016 10 -3.50098
s2.33398 -7.16699 -0.999023 -10.5c-18.667 -18 -40.334 -43.667 -65.001 -77s-49.834 -70.166 -75.501 -110.499s-50.834 -82.333 -75.501 -126s-46.667 -85.167 -66 -124.5s-35 -74.333 -47 -105s-18 -53 -18 -67s2.33301 -25 7 -33s12.334 -12 23.001 -12
c8.66699 0 18.834 4.66699 30.501 14s23.834 21 36.501 35s25.5 29.667 38.5 47l36 49.5c11 15.667 20.5 29.834 28.5 42.501l17 27c2 2.66699 4.66699 4 8 4s6 -1.5 8 -4.5s2.33301 -6.16699 1 -9.5l-26.5 -46.5c-11.667 -20.333 -25.167 -42.666 -40.5 -66.999
s-32 -49 -50 -74s-36.333 -47.833 -55 -68.5s-37 -37.667 -55 -51s-34.667 -20 -50 -20c-20 0 -35.667 4.16699 -47 12.5s-19.833 18.333 -25.5 30s-9.33398 23.667 -11.001 36s-2.5 22.5 -2.5 30.5c0 16 4 36.5 12 61.5s18.667 52.833 32 83.5s28.333 63.334 45 98.001
l51 104.5l51 102.5c16.667 33.333 31.334 64 44.001 92s22.667 52.5 30 73.5s10.333 36.833 9 47.5z" />
    <glyph glyph-name="m" unicode="m" horiz-adv-x="628" 
d="M398 347c6.66699 9.33301 14.501 19.0029 23.501 29.0029s19.167 19.167 30.5 27.5s23.5 15.166 36.5 20.499s26.833 8 41.5 8c28.667 0 48.834 -5.5 60.501 -16.5s17.5 -25.5 17.5 -43.5s-4.33301 -38.5 -13 -61.5s-19 -46.333 -31 -70l-36.5 -70
c-12.333 -23 -22 -43.5 -29 -61.5s-10 -32.5 -9 -43.5s9.16699 -16.5 24.5 -16.5c6 0 14 4.66699 24 14s21 21 33 35s24.5 29.667 37.5 47l36.5 49.5c11.333 15.667 21.166 29.834 29.499 42.501l17.5 27c2 3.33301 4.66699 5 8 5c4 0 6.83301 -1.66699 8.5 -5
s1.83398 -6.66602 0.500977 -9.99902c-5.33301 -10.667 -13.5 -26.167 -24.5 -46.5s-23.833 -42.666 -38.5 -66.999s-30.667 -49 -48 -74s-35 -47.833 -53 -68.5s-36.167 -37.667 -54.5 -51s-35.5 -20 -51.5 -20c-19.333 0 -35.166 3.33301 -47.499 10s-22 15.167 -29 25.5
s-11.667 21.5 -14 33.5s-3.5 23.333 -3.5 34c0 18.667 5.16699 40 15.5 64s22.666 48.5 36.999 73.5l44.5 74c15.333 24.333 27.833 46 37.5 65s15 34.333 16 46s-5.5 17.5 -19.5 17.5c-8 0 -16.5 -3.16699 -25.5 -9.5s-18.333 -14.5 -28 -24.5s-19.167 -21.333 -28.5 -34
s-18 -25.334 -26 -38.001c-10 -24 -21 -48.5 -33 -73.5s-22.5 -49.5 -31.5 -73.5s-15.833 -46.833 -20.5 -68.5s-4.66699 -40.834 0 -57.501c1.33301 -3.33301 0.833008 -6.5 -1.5 -9.5s-5.16602 -4.83301 -8.49902 -5.5c-18 -3.33301 -37 -7.83301 -57 -13.5
s-37.667 -13.5 -53 -23.5c-6 -3.33301 -10.667 -2.66602 -14 2.00098c-10.667 17.333 -12.667 40 -6 68s17.5 57.833 32.5 89.5s31.833 63.667 50.5 96s34.667 61.5 48 87.5s21.5 47.167 24.5 63.5s-3.16699 24.5 -18.5 24.5c-7.33301 0 -16.166 -4.66699 -26.499 -14
s-21.333 -21.333 -33 -36s-23.834 -31.5 -36.501 -50.5s-24.5 -37.833 -35.5 -56.5s-20.833 -36.667 -29.5 -54s-15.334 -32 -20.001 -44c-12.667 -36 -21.667 -69 -27 -99s-6 -53.667 -2 -71c1.33301 -4.66699 0.333008 -8.5 -3 -11.5s-7 -4.83301 -11 -5.5
c-12.667 -1.33301 -25.167 -0.5 -37.5 2.5s-25.5 5.5 -39.5 7.5s-29.167 2.5 -45.5 1.5s-34.833 -6.5 -55.5 -16.5c-4 -2 -8 -1.5 -12 1.5s-4.33301 5.83301 -1 8.5c12 6.66699 26.167 21.667 42.5 45s33.166 51.166 50.499 83.499s34.5 67 51.5 104s32 72.5 45 106.5
s23.167 64.667 30.5 92s10.333 47.333 9 60c0 3.33301 1.33301 6 4 8s5.66699 2.33301 9 1c8 -2.66699 16.667 -6.33398 26 -11.001s21 -7 35 -7c17.333 0 34.5 2.66699 51.5 8s30.167 9.66602 39.5 12.999c4 1.33301 7.5 0 10.5 -4s2.83301 -7.66699 -0.5 -11
c-7.33301 -7.33301 -14.833 -15.333 -22.5 -24s-15.167 -18 -22.5 -28c14.667 15.333 31.667 29.666 51 42.999s39 20 59 20c31.333 0 51.166 -7.83301 59.499 -23.5s9.83301 -36.167 4.5 -61.5z" />
    <glyph glyph-name="n" unicode="n" horiz-adv-x="461" 
d="M109 424c-0.666992 3.33301 0.329102 5.99414 2.99609 7.99414s5.66699 2.33301 9 1c8.66699 -2.66699 17.5 -6.33398 26.5 -11.001s20.5 -7 34.5 -7c17.333 0 34.5 2.66699 51.5 8s30.167 9.66602 39.5 12.999c4.66699 1.33301 8.33398 0 11.001 -4
s2.33398 -7.66699 -0.999023 -11c-9.33301 -8.66699 -18.166 -18.167 -26.499 -28.5l-26.5 -33.5c17.333 18.667 37.5 35.834 60.5 51.501s47.5 23.5 73.5 23.5c28.667 0 48.834 -5.5 60.501 -16.5s17.5 -25.5 17.5 -43.5s-4.5 -38.5 -13.5 -61.5s-19.5 -46.333 -31.5 -70
l-36.5 -70c-12.333 -23 -22 -43.5 -29 -61.5s-9.83301 -32.5 -8.5 -43.5s9.66602 -16.5 24.999 -16.5c6 0 14 4.66699 24 14s21 21 33 35s24.5 29.667 37.5 47l36.5 49.5c11.333 15.667 21.166 29.834 29.499 42.501l17.5 27c2.66699 2.66699 5.33398 4 8.00098 4
c4 0 6.83301 -1.5 8.5 -4.5s1.83398 -6.16699 0.500977 -9.5c-5.33301 -10.667 -13.5 -26.167 -24.5 -46.5s-23.833 -42.666 -38.5 -66.999s-30.667 -49.166 -48 -74.499s-35 -48.333 -53 -69s-36.167 -37.5 -54.5 -50.5s-35.833 -19.5 -52.5 -19.5
c-19.333 0 -35.166 3.33301 -47.499 10s-22 15.167 -29 25.5s-11.667 21.5 -14 33.5s-3.5 23.333 -3.5 34c0 18.667 5.16699 40 15.5 64s22.833 48.5 37.5 73.5l45 73.5c15.333 24 27.833 45.5 37.5 64.5s14.834 34.333 15.501 46s-6 17.5 -20 17.5
c-10.667 0 -22.834 -4.16699 -36.501 -12.5s-27.167 -18.833 -40.5 -31.5s-26.333 -26.667 -39 -42s-23.334 -29.666 -32.001 -42.999c-14 -27.333 -26.5 -55.166 -37.5 -83.499s-20 -55.666 -27 -81.999s-11.667 -50.833 -14 -73.5s-1.83301 -42 1.5 -58
c1.33301 -4.66699 0.5 -8.5 -2.5 -11.5s-6.83301 -4.83301 -11.5 -5.5c-12.667 -1.33301 -25.167 -0.666016 -37.5 2.00098s-25.5 4.83398 -39.5 6.50098s-29.167 1.66699 -45.5 0s-34.833 -7.5 -55.5 -17.5c-4 -2 -7.83301 -1.66699 -11.5 1s-4.16699 5.66699 -1.5 9
c14 17.333 29.667 40 47 68s34.833 58.167 52.5 90.5s34.5 65.666 50.5 99.999s30.167 67 42.5 98s22 58.667 29 83s9.83301 42.833 8.5 55.5z" />
    <glyph glyph-name="o" unicode="o" horiz-adv-x="393" 
d="M471 270c2 0 3.66309 -0.99707 4.99609 -2.99707s1.66602 -3.66699 0.999023 -5c-4 -10 -11 -26.333 -21 -49s-22.667 -45.834 -38 -69.501s-33 -44.5 -53 -62.5s-41.333 -27 -64 -27c-5.33301 0 -10.166 0.833008 -14.499 2.5s-8.16602 3.83398 -11.499 6.50098
c-25.333 -38.667 -52.166 -70.834 -80.499 -96.501s-55.166 -38.5 -80.499 -38.5c-36.667 0 -64.167 12.5 -82.5 37.5s-28.666 56.167 -30.999 93.5s2.5 77.833 14.5 121.5s29.833 84.167 53.5 121.5s52.5 68.5 86.5 93.5s72 37.5 114 37.5c25.333 0 45.333 -5.5 60 -16.5
s25 -25.667 31 -44s8.16699 -39.833 6.5 -64.5s-6.5 -50.334 -14.5 -77.001c0 -7.33301 -2.33301 -18 -7 -32l-14 -43c-4.66699 -14.667 -8 -27.334 -10 -38.001s-0.333008 -16 5 -16c14.667 0 29 6.83301 43 20.5s26.833 29.5 38.5 47.5s21.834 35.833 30.501 53.5
s14.667 30.5 18 38.5c1.33301 5.33301 4.66602 8 9.99902 8h5zM248.996 133.003c0 20.667 2.49902 39.334 7.49902 56.001s11.167 31 18.5 43s15.333 21.333 24 28s16.667 10.334 24 11.001c4 16 6.66699 31.167 8 45.5s1.16602 26.666 -0.500977 36.999
s-5 18.666 -10 24.999s-12.167 9.5 -21.5 9.5c-19.333 0 -39 -8.16699 -59 -24.5s-38.167 -36.833 -54.5 -61.5s-29.833 -51.5 -40.5 -80.5s-16.667 -55.833 -18 -80.5s2.83398 -45.167 12.501 -61.5s26.834 -24.5 51.501 -24.5c9.33301 0 19.333 4.5 30 13.5
s21 21.167 31 36.5c-2 10 -3 19.333 -3 28z" />
    <glyph glyph-name="p" unicode="p" horiz-adv-x="419" 
d="M340 432c26.667 0 47.002 -7.16895 61.002 -21.502s23 -33.333 27 -57s3.5 -50.667 -1.5 -81s-13.5 -61.333 -25.5 -93s-26.667 -62.667 -44 -93s-36.333 -57.333 -57 -81s-42.334 -42.667 -65.001 -57s-45.334 -21.5 -68.001 -21.5c-18 0 -32.833 4.5 -44.5 13.5
s-20.5 21.167 -26.5 36.5s-9.5 33.5 -10.5 54.5s0.5 43.167 4.5 66.5l-70 -148l-61 -134.5c-18 -40.333 -32.333 -74.166 -43 -101.499s-15.667 -43.666 -15 -48.999c0 -3.33301 -1.16699 -6 -3.5 -8s-5.16602 -2.33301 -8.49902 -1l-31 11.5c-12 4.33301 -25 6.5 -39 6.5
c-10.667 0 -21.667 -1.16699 -33 -3.5s-22 -5.16602 -32 -8.49902s-19 -6.5 -27 -9.5s-14.333 -5.16699 -19 -6.5c-4 -1.33301 -7.5 0 -10.5 4s-2.83301 7.66699 0.5 11c16 15.333 34.333 36.5 55 63.5s42 57.167 64 90.5s44 68.666 66 105.999l62 110
c20.667 39.333 39.667 78.333 57 117s31.666 75 42.999 109s19.5 64.833 24.5 92.5s5.5 50.167 1.5 67.5c-1.33301 4 -0.5 7.66699 2.5 11s6.5 5.33301 10.5 6c12.667 0.666992 26.167 -0.666016 40.5 -3.99902s29 -6.33301 44 -9s30 -3.33398 45 -2.00098
s29.167 7.33301 42.5 18c3.33301 2.66699 7.16602 2.16699 11.499 -1.5s4.83301 -6.5 1.5 -8.5c-5.33301 -3.33301 -13.666 -14.333 -24.999 -33c31.333 25.333 63.333 38 96 38zM184.002 73.998c17.333 0 35 7.83301 53 23.5s34.5 35.5 49.5 59.5s27.833 49.667 38.5 77
s17.667 53 21 77s2.5 43.833 -2.5 59.5s-15.833 23.5 -32.5 23.5c-17.333 0 -35.5 -7.83301 -54.5 -23.5s-36.667 -35.5 -53 -59.5s-30.5 -49.667 -42.5 -77s-19.833 -53 -23.5 -77s-2.16699 -43.833 4.5 -59.5s20.667 -23.5 42 -23.5z" />
    <glyph glyph-name="q" unicode="q" horiz-adv-x="502" 
d="M548 430c3.33301 2.66699 7.16699 2.33496 11.5 -0.998047s4.83301 -6.33301 1.5 -9c-5.33301 -3.33301 -14.833 -16.166 -28.5 -38.499s-29.667 -51 -48 -86l-60 -118l-65.5 -133.5l-63 -134l-53.5 -119.5c-15.667 -35.667 -28 -65.334 -37 -89.001
s-13.167 -37.834 -12.5 -42.501c0 -3.33301 -1.16699 -6.16602 -3.5 -8.49902s-5.16602 -2.83301 -8.49902 -1.5l-31 11.5c-12 4.33301 -25 6.5 -39 6.5c-10.667 0 -21.667 -1.16699 -33 -3.5s-22 -5 -32 -8s-19 -6 -27 -9s-14.333 -5.16699 -19 -6.5
c-4 -1.33301 -7.5 -0.166016 -10.5 3.50098s-2.83301 7.16699 0.5 10.5c14.667 14 31.167 33 49.5 57s37.5 50.667 57.5 80s40.167 60.833 60.5 94.5l58.5 100.5c-17.333 -18.667 -34.833 -33.334 -52.5 -44.001s-34.167 -16 -49.5 -16c-27.333 0 -49.5 7.16699 -66.5 21.5
s-29.333 33.5 -37 57.5s-11 51.167 -10 81.5s5.83301 61.166 14.5 92.499s20.834 62.166 36.501 92.499s34.5 57.5 56.5 81.5s46.5 43.167 73.5 57.5s56.167 21.5 87.5 21.5c35.333 0 60.666 -10.5 75.999 -31.5s22.666 -47.5 21.999 -79.5
c5.33301 18.667 8.83301 35.334 10.5 50.001s1.16699 27.667 -1.5 39c-1.33301 4.66699 -0.5 8.5 2.5 11.5s6.83301 4.83301 11.5 5.5c12.667 1.33301 25.5 0.333008 38.5 -3s26 -6.33301 39 -9s26.333 -3.33398 40 -2.00098s27.167 7 40.5 17zM191.001 54.001
c12.667 0 26.999 8.5 42.999 25.5s31.167 38.167 45.5 63.5s27.166 52.833 38.499 82.5s18.833 57.167 22.5 82.5s2.5 46.5 -3.5 63.5s-18.667 25.5 -38 25.5s-39 -8.5 -59 -25.5s-38.167 -38.167 -54.5 -63.5s-29.833 -52.833 -40.5 -82.5s-16.667 -57.167 -18 -82.5
s2.83398 -46.5 12.501 -63.5s26.834 -25.5 51.501 -25.5z" />
    <glyph glyph-name="r" unicode="r" horiz-adv-x="406" 
d="M105 422c-0.666992 3.33301 0.495117 6.16699 3.49512 8.5s6.16699 2.83301 9.5 1.5c8 -3.33301 16.667 -7.33301 26 -12s20.666 -7 33.999 -7c17.333 0 34.666 2.83301 51.999 8.5s30.666 9.83398 39.999 12.501c4 1.33301 7.5 0.166016 10.5 -3.50098
s2.83301 -7.16699 -0.5 -10.5c-19.333 -18 -38 -40.167 -56 -66.5s-35.333 -54.5 -52 -84.5c0.666992 0.666992 3.5 5.16699 8.5 13.5s11.833 18.666 20.5 30.999s18.834 25.333 30.501 39s24.334 26.5 38.001 38.5s28.334 21.833 44.001 29.5s31.5 11.5 47.5 11.5
c26.667 0 43.834 -6.16699 51.501 -18.5s10 -27.833 7 -46.5s-9.33301 -39 -19 -61l-27 -61c-8.33301 -18.667 -14.166 -34.167 -17.499 -46.5s0.333984 -18.5 11.001 -18.5s21.5 3.5 32.5 10.5s21.167 15.167 30.5 24.5s17.333 18.666 24 27.999l15 21c2 3.33301 5 5 9 5
s7 -1.83301 9 -5.5s2 -7.16699 0 -10.5c-5.33301 -10 -13.166 -22.833 -23.499 -38.5s-21.833 -31 -34.5 -46s-26.334 -27.833 -41.001 -38.5s-29.334 -16 -44.001 -16c-11.333 0 -21 3.5 -29 10.5l-26 23.5c-9.33301 8.66699 -20.166 17.167 -32.499 25.5
s-28.166 13.833 -47.499 16.5c-4 0.666992 -6.33301 2.83398 -7 6.50098s0.666016 6.5 3.99902 8.5c18 11.333 36.333 26.333 55 45s34.334 36.834 47.001 54.501s20.834 33 24.501 46s-0.5 19.5 -12.5 19.5c-8.66699 0 -19.5 -5.16699 -32.5 -15.5
s-26.833 -23.833 -41.5 -40.5s-29.667 -35 -45 -55s-29.5 -39.5 -42.5 -58.5s-24.5 -36.5 -34.5 -52.5s-16.667 -28 -20 -36c-10.667 -34 -18.334 -65.667 -23.001 -95s-5 -54 -1 -74c1.33301 -4 0.5 -7.83301 -2.5 -11.5s-6.5 -5.5 -10.5 -5.5
c-14 0 -27.167 1.16699 -39.5 3.5s-24.5 4.33301 -36.5 6s-24.167 1.66699 -36.5 0s-25.833 -6.5 -40.5 -14.5c-4 -2 -7.5 -1.66699 -10.5 1s-3.83301 5.66699 -2.5 9l42.5 88l46.5 95l45 95c14.667 31.333 27.334 60.666 38.001 87.999s19 51.833 25 73.5
s8.33301 38.834 7 51.501z" />
    <glyph glyph-name="s" unicode="s" horiz-adv-x="344" 
d="M242 434c24 0 42.999 -5.67383 56.999 -17.0068s23.833 -25.5 29.5 -42.5s8 -35.667 7 -56s-4.33301 -39.5 -10 -57.5s-13 -33.333 -22 -46s-18.167 -20 -27.5 -22c-2 -0.666992 -4.16699 -0.5 -6.5 0.5s-3.5 2.5 -3.5 4.5c-1.33301 10.667 -4.66602 19.5 -9.99902 26.5
s-11.5 13 -18.5 18s-14.5 9.83301 -22.5 14.5s-15.333 10.334 -22 17.001c-2 2 -2.83301 4.33301 -2.5 7s1.83301 4.33398 4.5 5.00098c14 4 25.333 12.333 34 25s14.5 26 17.5 40s2.83301 26.333 -0.5 37s-10 16 -20 16c-9.33301 0 -19.666 -2.16699 -30.999 -6.5
s-22 -10.5 -32 -18.5s-18.333 -17.5 -25 -28.5s-10 -23.167 -10 -36.5c0 -16 4 -29.833 12 -41.5s18.167 -22.834 30.5 -33.501s25.5 -21.334 39.5 -32.001s27.167 -22.667 39.5 -36s22.5 -29 30.5 -47s12 -39.333 12 -64c0 -9.33301 -2.16699 -21.5 -6.5 -36.5
s-12.5 -29.5 -24.5 -43.5s-29 -26 -51 -36s-50.667 -15 -86 -15c-31.333 0 -59.166 5.16699 -83.499 15.5s-45 22.5 -62 36.5s-30.5 27.833 -40.5 41.5s-16 23.834 -18 30.501c-2.66699 6 -0.666992 9.66699 6 11c14.667 4 27 12.333 37 25s18.667 26.334 26 41.001
s13.833 28.834 19.5 42.501s12.167 23.167 19.5 28.5c2.66699 2 5.33398 2 8.00098 0s3.33398 -4.66699 2.00098 -8c-10.667 -22.667 -15.5 -43 -14.5 -61s5.66699 -33.167 14 -45.5s19.166 -21.833 32.499 -28.5s27.666 -10 42.999 -10c4 0 9.16699 0.833008 15.5 2.5
s12.666 4.33398 18.999 8.00098s11.666 8.83398 15.999 15.501s6.5 15 6.5 25s-5.83301 21.167 -17.5 33.5l-39 41c-14.333 15 -27.333 30.833 -39 47.5s-17.5 34.334 -17.5 53.001c0 18 3.66699 36.5 11 55.5s18.5 36.333 33.5 52s34.167 28.334 57.5 38.001
s51 14.5 83 14.5z" />
    <glyph glyph-name="t" unicode="t" horiz-adv-x="258" 
d="M93 443c5.33301 -2 11.9941 -3.83203 19.9941 -5.49902s17.333 -3.16699 28 -4.5l42.5 87.5c13.667 28.333 25.5 54.166 35.5 77.499s17.833 43.666 23.5 60.999s8.16699 30.666 7.5 39.999c-0.666992 3.33301 0.333008 6.16602 3 8.49902s5.66699 2.83301 9 1.5
c8 -3.33301 18.167 -7.33301 30.5 -12s25.166 -7 38.499 -7c10.667 0 21.667 1.16699 33 3.5s22 5.16602 32 8.49902s19 6.5 27 9.5s14.333 5.16699 19 6.5s8.33398 0.166016 11.001 -3.50098s2.33398 -7.16699 -0.999023 -10.5c-12.667 -12 -26.667 -27.5 -42 -46.5
s-31.333 -40.5 -48 -64.5s-33.667 -49.833 -51 -77.5l-51 -84.5l32.5 4c10.333 1.33301 19.833 3.33301 28.5 6c3.33301 0.666992 6 -0.333008 8 -3s1.66699 -5 -1 -7c-14 -11.333 -24.333 -23 -31 -35s-12 -23.333 -16 -34l-10.5 -28c-3 -8 -7.83301 -14 -14.5 -18
c-2 -1.33301 -4.16699 -1.33301 -6.5 0s-3.16602 3 -2.49902 5c2 6.66699 2.66699 16.167 2 28.5s-6.66699 22.833 -18 31.5l-49 -91.5c-15.333 -29.667 -28.666 -57.334 -39.999 -83.001s-20.333 -48.167 -27 -67.5s-10 -34.333 -10 -45
c0 -13.333 2.33301 -24.166 7 -32.499s12.334 -12.5 23.001 -12.5c8.66699 0 18.667 4.66699 30 14s23.5 21 36.5 35s26 29.667 39 47l36 49.5c11 15.667 20.5 29.834 28.5 42.501l17 27c2 3.33301 4.66699 5 8 5s6 -1.66699 8 -5s2.33301 -6.66602 1 -9.99902l-26.5 -46.5
c-11.667 -20.333 -25.167 -42.666 -40.5 -66.999s-32.166 -49 -50.499 -74s-36.666 -47.833 -54.999 -68.5s-36.5 -37.667 -54.5 -51s-34.667 -20 -50 -20c-20 0 -35.667 4.16699 -47 12.5s-19.833 18.5 -25.5 30.5s-9.33398 24.167 -11.001 36.5s-2.5 22.5 -2.5 30.5
c0 16 4.16699 36.833 12.5 62.5s19.333 54.167 33 85.5s29.167 64.833 46.5 100.5l52 106.5c-14 -1.33301 -25.5 -2.66602 -34.5 -3.99902s-16.167 -2.66602 -21.5 -3.99902c-2.66699 -0.666992 -4.66699 0 -6 2s-1.33301 4 0 6l27 47
c0.666992 1.33301 1.83398 2.5 3.50098 3.5s3.16699 1.16699 4.5 0.5z" />
    <glyph glyph-name="u" unicode="u" horiz-adv-x="491" 
d="M562 269c3.33301 0 5.99902 -1.50195 7.99902 -4.50195s2 -6.16699 0 -9.5c-5.33301 -10.667 -13.5 -26.167 -24.5 -46.5s-23.833 -42.666 -38.5 -66.999s-30.5 -49.166 -47.5 -74.499s-34.5 -48.333 -52.5 -69s-35.833 -37.667 -53.5 -51s-34.167 -20 -49.5 -20
c-20 0 -35.667 4.16699 -47 12.5s-19.833 18.5 -25.5 30.5s-9.33398 24.167 -11.001 36.5s-2.5 22.5 -2.5 30.5l1 7c-21.333 -32 -44.5 -59.5 -69.5 -82.5s-50.833 -34.5 -77.5 -34.5c-19.333 0 -34.666 4.16699 -45.999 12.5s-20 18.5 -26 30.5s-9.83301 24.167 -11.5 36.5
s-2.5 22.5 -2.5 30.5c0 31.333 7.16699 65.166 21.5 101.499s29.833 72 46.5 107s31.5 68 44.5 99s18.5 57.167 16.5 78.5c0 3.33301 1.16699 6 3.5 8s5.16602 2.33301 8.49902 1c8.66699 -3.33301 18.334 -7.33301 29.001 -12s22.667 -7 36 -7
c6 0 13.167 0.833008 21.5 2.5s16.666 3.66699 24.999 6s16.166 4.66602 23.499 6.99902s13.333 4.16602 18 5.49902s8.33398 0 11.001 -4s2.33398 -7.33301 -0.999023 -10c-6 -4.66699 -14.5 -14 -25.5 -28s-23 -30.667 -36 -50s-26.167 -40.5 -39.5 -63.5
s-25.5 -45.833 -36.5 -68.5s-20 -44.167 -27 -64.5s-10.5 -37.5 -10.5 -51.5c0 -13.333 2.33301 -24.166 7 -32.499s12.334 -12.5 23.001 -12.5c14 0 27 5.83301 39 17.5s23.333 26.334 34 44.001s20.667 36.334 30 56.001l26 53.5l28 58.5
c9.33301 19 17.5 37.167 24.5 54.5s12.5 33.5 16.5 48.5s5.33301 28.5 4 40.5c0 3.33301 1.16699 6.16602 3.5 8.49902s5.16602 2.83301 8.49902 1.5l28 -12c10.667 -4.66699 23 -7 37 -7c6 0 13 0.833008 21 2.5s16.167 3.66699 24.5 6l24 7l18.5 5.5
c4 1.33301 7.5 0 10.5 -4s2.83301 -7.33301 -0.5 -10c-6 -4.66699 -14.5 -14 -25.5 -28s-23 -30.667 -36 -50s-26.167 -40.5 -39.5 -63.5s-25.5 -45.833 -36.5 -68.5s-20 -44.167 -27 -64.5s-10.5 -37.5 -10.5 -51.5c0 -13.333 2.33301 -24.166 7 -32.499
s12.334 -12.5 23.001 -12.5c8 0 17.667 4.5 29 13.5s23 20.667 35 35s24 30 36 47l33.5 49.5l27 43l16.5 27c1.33301 3.33301 4 5 8 5z" />
    <glyph glyph-name="v" unicode="v" 
d="M70 247c-3.33301 0 -6.00098 1.66797 -8.00098 5.00098s-2.33301 6.66602 -1 9.99902l26 43.5c11.333 19 24.5 37.833 39.5 56.5s30.667 35 47 49s32.5 21 48.5 21c19.333 0 32.333 -6.16699 39 -18.5s9.16699 -28.5 7.5 -48.5s-6.16699 -42.667 -13.5 -68
s-15.333 -51.5 -24 -78.5l-25 -78.5c-8 -25.333 -13.333 -48 -16 -68s-1.66699 -36.167 3 -48.5s15.334 -18.5 32.001 -18.5c4.66699 0 11 7.66699 19 23s16.667 35.166 26 59.499s18.666 51.833 27.999 82.5s17.5 61.334 24.5 92.001s12.167 60.167 15.5 88.5
s3.66602 52.166 0.999023 71.499c-0.666992 3.33301 0.333008 6.16602 3 8.49902s5.66699 2.83301 9 1.5c18.667 -4.66699 38.5 -7.16699 59.5 -7.5s40.167 2.16699 57.5 7.5c3.33301 1.33301 6.33301 0.833008 9 -1.5s3.66699 -5.16602 3 -8.49902
c-4.66699 -24 -13.667 -53 -27 -87s-29.166 -69.333 -47.499 -106s-38.5 -73 -60.5 -109s-44 -68.333 -66 -97s-43.167 -51.834 -63.5 -69.501s-38.166 -26.5 -53.499 -26.5c-33.333 0 -60.166 9.83301 -80.499 29.5s-30.5 50.167 -30.5 91.5
c0 13.333 2.83301 30.333 8.5 51s12.667 42.334 21 65.001s17.166 45.334 26.499 68.001l25.5 61c7.66699 18 13.5 32.667 17.5 44s5 17 3 17c-3.33301 0 -8.5 -4.5 -15.5 -13.5s-14.333 -19.333 -22 -31l-22.5 -34.5c-7.33301 -11.333 -12.333 -19.333 -15 -24
c-1.33301 -2.66699 -4 -4 -8 -4z" />
    <glyph glyph-name="w" unicode="w" horiz-adv-x="676" 
d="M722 432c3.33301 1.33301 6.16504 0.831055 8.49805 -1.50195s3.16602 -5.16602 2.49902 -8.49902c-3.33301 -16.667 -11 -40.334 -23 -71.001s-26.667 -64.334 -44 -101.001s-36.666 -74.167 -57.999 -112.5s-43.166 -73 -65.499 -104s-44.5 -56.5 -66.5 -76.5
s-42.333 -30 -61 -30c-33.333 0 -60 9.83301 -80 29.5s-30 50.167 -30 91.5c0 10 1.5 21.667 4.5 35s7 27.666 12 42.999s10.667 31.5 17 48.5s12.833 33.5 19.5 49.5l-64 -88.5c-20.667 -29.667 -39 -57.667 -55 -84s-29 -50.5 -39 -72.5s-15.667 -39.333 -17 -52
c-16.667 0 -32.667 2.5 -48 7.5s-29 12.5 -41 22.5s-21.667 22.5 -29 37.5s-11 32.833 -11 53.5c0 13.333 2.83301 30.333 8.5 51s12.667 42.334 21 65.001s17.166 45.334 26.499 68.001l25.5 61c7.66699 18 13.5 32.667 17.5 44s5 17 3 17
c-3.33301 0 -8.66602 -4.5 -15.999 -13.5s-15.166 -19.333 -23.499 -31s-16.166 -23.334 -23.499 -35.001s-12.666 -19.834 -15.999 -24.501c-2 -3.33301 -4.66699 -5 -8 -5c-4 0 -6.83301 1.5 -8.5 4.5s-1.83398 6.16699 -0.500977 9.5l26.5 45.5
c11.667 19.667 25 38.834 40 57.501s31 35 48 49s33.5 21 49.5 21c19.333 0 32.5 -5.66699 39.5 -17s9.83301 -26.166 8.5 -44.499s-5.5 -39.166 -12.5 -62.499s-15 -47.333 -24 -72l-27 -72c-9 -23.333 -15.833 -44.166 -20.5 -62.499s-6.16699 -33.166 -4.5 -44.499
s8.5 -17 20.5 -17l89 184l37 70c12.667 23.333 24.834 44.5 36.501 63.5s22.667 35.167 33 48.5s19.166 22 26.499 26c4.66699 -1.33301 11.5 -2.33301 20.5 -3s18.667 -1.16699 29 -1.5s21.166 -0.166016 32.499 0.500977s22 2 32 4
c4.66699 1.33301 8.33398 0.166016 11.001 -3.50098s3 -7.5 1 -11.5c-7.33301 -14 -16.666 -34 -27.999 -60s-22.666 -54.5 -33.999 -85.5s-21.5 -62.5 -30.5 -94.5s-15 -61.167 -18 -87.5s-1.66699 -47.833 4 -64.5s17.5 -25 35.5 -25c4 0 10 7.66699 18 23
s16.667 35.5 26 60.5s18.5 53 27.5 84s16.833 62 23.5 93s11.667 60.833 15 89.5s3.66602 52.667 0.999023 72c0 3.33301 1.16699 6.16602 3.5 8.49902s5.16602 2.83301 8.49902 1.5c18.667 -4.66699 38.667 -7.16699 60 -7.5s40.666 2.16699 57.999 7.5z" />
    <glyph glyph-name="x" unicode="x" horiz-adv-x="476" 
d="M385 419c0 3.33301 0.994141 6.33203 2.99414 8.99902s4.66699 3.33398 8 2.00098c20.667 -5.33301 40.334 -7 59.001 -5s32.334 4.33301 41.001 7c6 1.33301 9 -1 9 -7c0 -25.333 -6.16699 -48.833 -18.5 -70.5s-28.666 -42.167 -48.999 -61.5
s-43.166 -37.666 -68.499 -54.999l-77 -51c0.666992 -18.667 1.33398 -36.334 2.00098 -53.001s2.16699 -31.334 4.5 -44.001s5.66602 -22.667 9.99902 -30s10.5 -11 18.5 -11c11.333 0 24 4.66699 38 14s28.333 21 43 35s29.167 29.667 43.5 47l39.5 49.5
c12 15.667 22.333 29.834 31 42.501s14.667 21.667 18 27c1.33301 3.33301 4 5 8 5c3.33301 0 6 -1.66699 8 -5s2.33301 -6.66602 1 -9.99902c-5.33301 -10.667 -13.5 -26.167 -24.5 -46.5s-23.833 -42.666 -38.5 -66.999s-30.667 -49 -48 -74
s-35.166 -47.833 -53.499 -68.5s-36.666 -37.667 -54.999 -51s-35.5 -20 -51.5 -20c-39.333 0 -68.333 11.333 -87 34s-28 55 -28 97v19.5c0 7 0.333008 14.167 1 21.5c-25.333 -23.333 -44 -48.5 -56 -75.5s-12 -57.5 0 -91.5
c1.33301 -3.33301 0.833008 -6.16602 -1.5 -8.49902s-5.16602 -2.83301 -8.49902 -1.5c-29.333 8 -55.833 10.833 -79.5 8.5s-41.5 -5.16602 -53.5 -8.49902c-3.33301 -1.33301 -6 -0.666016 -8 2.00098s-3 5.66699 -3 9c0 24 6.33301 46.167 19 66.5
s29.167 39.666 49.5 57.999s43.5 36 69.5 53l79 51.5l10.5 81c3.66699 27.333 6.16699 52 7.5 74s0.666016 40 -2.00098 54s-8.66699 21 -18 21c-4.66699 0 -11.167 -4.66699 -19.5 -14s-17.166 -20.833 -26.499 -34.5s-18.5 -28.334 -27.5 -44.001
s-16.5 -29.834 -22.5 -42.501c-2 -4 -5 -6 -9 -6c-3.33301 0 -6 1.5 -8 4.5s-2.33301 6.16699 -1 9.5c4.66699 10.667 12 25.334 22 44.001s21.667 37.167 35 55.5s28 34.166 44 47.499s32.667 20 50 20c16.667 0 30 -5.33301 40 -16s17.667 -24.834 23 -42.501
s9 -37.834 11 -60.501s3.33301 -46 4 -70c27.333 24 49.666 50.167 66.999 78.5s26 60.833 26 97.5z" />
    <glyph glyph-name="y" unicode="y" horiz-adv-x="430" 
d="M274 203c11.333 27.333 21.6621 53.4961 30.9951 78.4961s17.333 47.333 24 67s12 36 16 49s6.33301 21.167 7 24.5c1.33301 8.66699 5.33301 12 12 10c8 -3.33301 19.167 -7.33301 33.5 -12s28.166 -7 41.499 -7c6 0 13 0.833008 21 2.5s16.333 3.66699 25 6
s16.667 4.66602 24 6.99902s13.333 4.16602 18 5.49902s8.33398 -0.166992 11.001 -4.5s2.33398 -7.5 -0.999023 -9.5c-31.333 -20.667 -58.833 -47.167 -82.5 -79.5s-45.167 -67.833 -64.5 -106.5s-36.833 -79.5 -52.5 -122.5l-47 -127
c-15.667 -41.667 -31.667 -81.5 -48 -119.5s-34.833 -71.667 -55.5 -101s-44.167 -53 -70.5 -71s-56.833 -27.667 -91.5 -29c-5.33301 0 -8 2.66699 -8 8c0.666992 13.333 -0.666016 26.833 -3.99902 40.5s-7.66602 27 -12.999 40s-11.5 25.5 -18.5 37.5l-19.5 33
c-2 2.66699 -1.83301 5.33398 0.5 8.00098s5.16602 3.33398 8.49902 2.00098c19.333 -7.33301 39 -6.66602 59 2.00098s39.833 23 59.5 43s38.834 44.5 57.501 73.5s36.667 59.833 54 92.5h-2l-31.5 -45.5c-10.333 -14.333 -20.833 -26.666 -31.5 -36.999
s-21.834 -18.666 -33.501 -24.999s-24.167 -9.5 -37.5 -9.5c-19.333 0 -34.666 4.16699 -45.999 12.5s-19.833 18.5 -25.5 30.5s-9.33398 24.167 -11.001 36.5s-2.5 22.5 -2.5 30.5c0 20.667 3.33301 42.667 10 66s15 47 25 71s20.833 47.833 32.5 71.5
s22.167 46.334 31.5 68.001s17 41.834 23 60.501s8.33301 35 7 49c-0.666992 3.33301 0.166016 6 2.49902 8s5.16602 2.33301 8.49902 1c8.66699 -3.33301 18.334 -7.33301 29.001 -12s22.667 -7 36 -7c6 0 13.167 0.833008 21.5 2.5s16.666 3.66699 24.999 6
s16.166 4.66602 23.499 6.99902s13.333 4.16602 18 5.49902s8.33398 0 11.001 -4s2.33398 -7.33301 -0.999023 -10c-6 -4.66699 -14.5 -14 -25.5 -28s-23 -30.667 -36 -50s-26.167 -40.5 -39.5 -63.5s-25.5 -45.833 -36.5 -68.5s-20 -44.167 -27 -64.5
s-10.5 -37.5 -10.5 -51.5c0 -13.333 2.33301 -24.166 7 -32.499s12.334 -12.5 23.001 -12.5c12.667 0 25.334 5 38.001 15s24.834 22.5 36.501 37.5s22.834 31.667 33.501 50s20 35.5 28 51.5z" />
    <glyph glyph-name="z" unicode="z" horiz-adv-x="434" 
d="M505 269c4 0 6.82715 -1.66797 8.49414 -5.00098s1.83398 -6.66602 0.500977 -9.99902c-8 -16 -19.167 -31 -33.5 -45s-30.666 -27.167 -48.999 -39.5s-38.166 -24.166 -59.499 -35.499s-43.333 -22.333 -66 -33c5.33301 -23.333 6.5 -50.166 3.5 -80.499
s-9.66699 -61.333 -20 -93s-24.166 -62.667 -41.499 -93s-37.333 -57.5 -60 -81.5s-47.5 -43.333 -74.5 -58s-55.833 -22 -86.5 -22c-40 0 -72.333 11.333 -97 34s-37 54.667 -37 96c0 26.667 8.16699 52.167 24.5 76.5s38 47.666 65 69.999s58 43.833 93 64.5
s70.833 40.667 107.5 60c-3.33301 10 -8.66602 18 -15.999 24s-16.666 9 -27.999 9c-14.667 0 -29.334 -0.833008 -44.001 -2.5s-28.667 -3.5 -42 -5.5c-5.33301 -1.33301 -9 0.333984 -11 5.00098s-0.666992 8.66699 4 12c28 17.333 56.667 38.333 86 63l81 70l83 80
c-32 8 -60.5 9.83301 -85.5 5.5s-46.333 -11.5 -64 -21.5s-31.834 -20.667 -42.501 -32s-18 -19.333 -22 -24c-2 -3.33301 -4.66699 -5 -8 -5c-4 0 -7 1.66699 -9 5s-2 6.66602 0 9.99902c7.33301 16 17.833 33.667 31.5 53s29.667 37.333 48 54s38.333 30.5 60 41.5
s44.5 16.5 68.5 16.5h197c5.33301 0 8.66602 -2.33301 9.99902 -7s0 -8.66699 -4 -12l-33.5 -25.5c-13 -9.66699 -26.167 -20 -39.5 -31s-26.333 -22.333 -39 -34s-23.667 -22.834 -33 -33.501l-39 -41c-12.667 -13.333 -24.667 -25.333 -36 -36l-37 -35
c18.667 0 34.334 -4.16699 47.001 -12.5s22.667 -19.5 30 -33.5l68.5 35.5c21.667 11.667 41.334 23 59.001 34s32.834 21.667 45.501 32s22 20.5 28 30.5c2 4 4.66699 6 8 6zM60.9941 -214.001c17.333 0 34.168 9.16699 50.501 27.5s30.666 40.833 42.999 67.5
s21.833 55 28.5 85s9 56.667 7 80c-24.667 -12.667 -48 -25.667 -70 -39s-41.167 -27.666 -57.5 -42.999s-29.166 -32 -38.499 -50s-14 -37.667 -14 -59c0 -20.667 4.16699 -37.334 12.5 -50.001s21.166 -19 38.499 -19z" />
    <glyph glyph-name="braceleft" unicode="{" 
d="M100 745h228v-995h-228v995zM153 -197h38h84v38h-84v46h84v38h-84h-38v-38v-46v-38zM153 -57h38h46h38v39v45v39h-38h-46h-38v-39v-45v-39zM237 27v-45h-46v45h46zM153 83h38h46h38v39v46v38h-38h-23v-38h23v-46h-46v84h-38v-84v-39zM153 373h27v-54h-27v-39h27h39v39v54
h56v39h-122v-39zM153 224h84h38v39v83h-38v-83h-84v-39zM153 430h38h22h38h24v38h-24v46v38h-38h-22h-38v-38v-46v-38zM213 514v-46h-22v46h22zM153 570h42h38h42v39h-42v45h42v38h-42h-38h-42v-38h42v-45h-42v-39z" />
    <glyph glyph-name="bar" unicode="|" 
d="M100 745h228v-995h-228v995zM153 -197h38h84v38h-84v46h84v38h-84h-38v-38v-46v-38zM153 -57h38h46h38v39v45v39h-38h-46h-38v-39v-45v-39zM237 27v-45h-46v45h46zM153 83h38h46h38v39v46v38h-38h-23v-38h23v-46h-46v84h-38v-84v-39zM153 373h27v-54h-27v-39h27h39v39v54
h56v39h-122v-39zM153 224h84h38v39v83h-38v-83h-84v-39zM153 430h38h22h38h24v38h-24v46v38h-38h-22h-38v-38v-46v-38zM213 514v-46h-22v46h22zM153 570h42h38h42v39h-42v45h42v38h-42h-38h-42v-38h42v-45h-42v-39z" />
    <glyph glyph-name="braceright" unicode="}" 
d="M100 745h228v-995h-228v995zM153 -197h38h84v38h-84v46h84v38h-84h-38v-38v-46v-38zM153 -57h38h46h38v39v45v39h-38h-46h-38v-39v-45v-39zM237 27v-45h-46v45h46zM153 83h38h46h38v39v46v38h-38h-23v-38h23v-46h-46v84h-38v-84v-39zM153 373h27v-54h-27v-39h27h39v39v54
h56v39h-122v-39zM153 224h84h38v39v83h-38v-83h-84v-39zM153 430h38h22h38h24v38h-24v46v38h-38h-22h-38v-38v-46v-38zM213 514v-46h-22v46h22zM153 570h42h38h42v39h-42v45h42v38h-42h-38h-42v-38h42v-45h-42v-39z" />
    <glyph glyph-name="asciitilde" unicode="~" 
d="M100 745h228v-995h-228v995zM153 -197h38h84v38h-84v46h84v38h-84h-38v-38v-46v-38zM153 -57h38h46h38v39v45v39h-38h-46h-38v-39v-45v-39zM237 27v-45h-46v45h46zM153 83h38h46h38v39v46v38h-38h-23v-38h23v-46h-46v84h-38v-84v-39zM153 373h27v-54h-27v-39h27h39v39v54
h56v39h-122v-39zM153 224h84h38v39v83h-38v-83h-84v-39zM153 430h38h22h38h24v38h-24v46v38h-38h-22h-38v-38v-46v-38zM213 514v-46h-22v46h22zM153 570h42h38h42v39h-42v45h42v38h-42h-38h-42v-38h42v-45h-42v-39z" />
    <glyph glyph-name="exclamdown" unicode="&#xa1;" 
d="M100 745h228v-995h-228v995zM153 -197h38h84v38h-84v46h84v38h-84h-38v-38v-46v-38zM153 -57h38h46h38v39v45v39h-38h-46h-38v-39v-45v-39zM237 27v-45h-46v45h46zM153 83h38h46h38v39v46v38h-38h-23v-38h23v-46h-46v84h-38v-84v-39zM153 373h27v-54h-27v-39h27h39v39v54
h56v39h-122v-39zM153 224h84h38v39v83h-38v-83h-84v-39zM153 430h38h22h38h24v38h-24v46v38h-38h-22h-38v-38v-46v-38zM213 514v-46h-22v46h22zM153 570h42h38h42v39h-42v45h42v38h-42h-38h-42v-38h42v-45h-42v-39z" />
    <glyph glyph-name="currency" unicode="&#xa4;" 
d="M100 745h228v-995h-228v995zM153 -197h38h84v38h-84v46h84v38h-84h-38v-38v-46v-38zM153 -57h38h46h38v39v45v39h-38h-46h-38v-39v-45v-39zM237 27v-45h-46v45h46zM153 83h38h46h38v39v46v38h-38h-23v-38h23v-46h-46v84h-38v-84v-39zM153 373h27v-54h-27v-39h27h39v39v54
h56v39h-122v-39zM153 224h84h38v39v83h-38v-83h-84v-39zM153 430h38h22h38h24v38h-24v46v38h-38h-22h-38v-38v-46v-38zM213 514v-46h-22v46h22zM153 570h42h38h42v39h-42v45h42v38h-42h-38h-42v-38h42v-45h-42v-39z" />
    <glyph glyph-name="section" unicode="&#xa7;" 
d="M100 745h228v-995h-228v995zM153 -197h38h84v38h-84v46h84v38h-84h-38v-38v-46v-38zM153 -57h38h46h38v39v45v39h-38h-46h-38v-39v-45v-39zM237 27v-45h-46v45h46zM153 83h38h46h38v39v46v38h-38h-23v-38h23v-46h-46v84h-38v-84v-39zM153 373h27v-54h-27v-39h27h39v39v54
h56v39h-122v-39zM153 224h84h38v39v83h-38v-83h-84v-39zM153 430h38h22h38h24v38h-24v46v38h-38h-22h-38v-38v-46v-38zM213 514v-46h-22v46h22zM153 570h42h38h42v39h-42v45h42v38h-42h-38h-42v-38h42v-45h-42v-39z" />
    <glyph glyph-name="dieresis" unicode="&#xa8;" 
d="M100 745h228v-995h-228v995zM153 -197h38h84v38h-84v46h84v38h-84h-38v-38v-46v-38zM153 -57h38h46h38v39v45v39h-38h-46h-38v-39v-45v-39zM237 27v-45h-46v45h46zM153 83h38h46h38v39v46v38h-38h-23v-38h23v-46h-46v84h-38v-84v-39zM153 373h27v-54h-27v-39h27h39v39v54
h56v39h-122v-39zM153 224h84h38v39v83h-38v-83h-84v-39zM153 430h38h22h38h24v38h-24v46v38h-38h-22h-38v-38v-46v-38zM213 514v-46h-22v46h22zM153 570h42h38h42v39h-42v45h42v38h-42h-38h-42v-38h42v-45h-42v-39z" />
    <glyph glyph-name="copyright" unicode="&#xa9;" 
d="M100 745h228v-995h-228v995zM153 -197h38h84v38h-84v46h84v38h-84h-38v-38v-46v-38zM153 -57h38h46h38v39v45v39h-38h-46h-38v-39v-45v-39zM237 27v-45h-46v45h46zM153 83h38h46h38v39v46v38h-38h-23v-38h23v-46h-46v84h-38v-84v-39zM153 373h27v-54h-27v-39h27h39v39v54
h56v39h-122v-39zM153 224h84h38v39v83h-38v-83h-84v-39zM153 430h38h22h38h24v38h-24v46v38h-38h-22h-38v-38v-46v-38zM213 514v-46h-22v46h22zM153 570h42h38h42v39h-42v45h42v38h-42h-38h-42v-38h42v-45h-42v-39z" />
    <glyph glyph-name="registered" unicode="&#xae;" 
d="M100 745h228v-995h-228v995zM153 -197h38h84v38h-84v46h84v38h-84h-38v-38v-46v-38zM153 -57h38h46h38v39v45v39h-38h-46h-38v-39v-45v-39zM237 27v-45h-46v45h46zM153 83h38h46h38v39v46v38h-38h-23v-38h23v-46h-46v84h-38v-84v-39zM153 373h27v-54h-27v-39h27h39v39v54
h56v39h-122v-39zM153 224h84h38v39v83h-38v-83h-84v-39zM153 430h38h22h38h24v38h-24v46v38h-38h-22h-38v-38v-46v-38zM213 514v-46h-22v46h22zM153 570h42h38h42v39h-42v45h42v38h-42h-38h-42v-38h42v-45h-42v-39z" />
    <glyph glyph-name="acute" unicode="&#xb4;" 
d="M100 745h228v-995h-228v995zM153 -197h38h84v38h-84v46h84v38h-84h-38v-38v-46v-38zM153 -57h38h46h38v39v45v39h-38h-46h-38v-39v-45v-39zM237 27v-45h-46v45h46zM153 83h38h46h38v39v46v38h-38h-23v-38h23v-46h-46v84h-38v-84v-39zM153 373h27v-54h-27v-39h27h39v39v54
h56v39h-122v-39zM153 224h84h38v39v83h-38v-83h-84v-39zM153 430h38h22h38h24v38h-24v46v38h-38h-22h-38v-38v-46v-38zM213 514v-46h-22v46h22zM153 570h42h38h42v39h-42v45h42v38h-42h-38h-42v-38h42v-45h-42v-39z" />
    <glyph glyph-name="mu" unicode="&#xb5;" 
d="M100 745h228v-995h-228v995zM153 -197h38h84v38h-84v46h84v38h-84h-38v-38v-46v-38zM153 -57h38h46h38v39v45v39h-38h-46h-38v-39v-45v-39zM237 27v-45h-46v45h46zM153 83h38h46h38v39v46v38h-38h-23v-38h23v-46h-46v84h-38v-84v-39zM153 373h27v-54h-27v-39h27h39v39v54
h56v39h-122v-39zM153 224h84h38v39v83h-38v-83h-84v-39zM153 430h38h22h38h24v38h-24v46v38h-38h-22h-38v-38v-46v-38zM213 514v-46h-22v46h22zM153 570h42h38h42v39h-42v45h42v38h-42h-38h-42v-38h42v-45h-42v-39z" />
    <glyph glyph-name="paragraph" unicode="&#xb6;" 
d="M100 745h228v-995h-228v995zM153 -197h38h84v38h-84v46h84v38h-84h-38v-38v-46v-38zM153 -57h38h46h38v39v45v39h-38h-46h-38v-39v-45v-39zM237 27v-45h-46v45h46zM153 83h38h46h38v39v46v38h-38h-23v-38h23v-46h-46v84h-38v-84v-39zM153 373h27v-54h-27v-39h27h39v39v54
h56v39h-122v-39zM153 224h84h38v39v83h-38v-83h-84v-39zM153 430h38h22h38h24v38h-24v46v38h-38h-22h-38v-38v-46v-38zM213 514v-46h-22v46h22zM153 570h42h38h42v39h-42v45h42v38h-42h-38h-42v-38h42v-45h-42v-39z" />
    <glyph glyph-name="cedilla" unicode="&#xb8;" 
d="M100 745h228v-995h-228v995zM153 -197h38h84v38h-84v46h84v38h-84h-38v-38v-46v-38zM153 -57h38h46h38v39v45v39h-38h-46h-38v-39v-45v-39zM237 27v-45h-46v45h46zM153 83h38h46h38v39v46v38h-38h-23v-38h23v-46h-46v84h-38v-84v-39zM153 373h27v-54h-27v-39h27h39v39v54
h56v39h-122v-39zM153 224h84h38v39v83h-38v-83h-84v-39zM153 430h38h22h38h24v38h-24v46v38h-38h-22h-38v-38v-46v-38zM213 514v-46h-22v46h22zM153 570h42h38h42v39h-42v45h42v38h-42h-38h-42v-38h42v-45h-42v-39z" />
    <glyph glyph-name="questiondown" unicode="&#xbf;" 
d="M100 745h228v-995h-228v995zM153 -197h38h84v38h-84v46h84v38h-84h-38v-38v-46v-38zM153 -57h38h46h38v39v45v39h-38h-46h-38v-39v-45v-39zM237 27v-45h-46v45h46zM153 83h38h46h38v39v46v38h-38h-23v-38h23v-46h-46v84h-38v-84v-39zM153 373h27v-54h-27v-39h27h39v39v54
h56v39h-122v-39zM153 224h84h38v39v83h-38v-83h-84v-39zM153 430h38h22h38h24v38h-24v46v38h-38h-22h-38v-38v-46v-38zM213 514v-46h-22v46h22zM153 570h42h38h42v39h-42v45h42v38h-42h-38h-42v-38h42v-45h-42v-39z" />
    <glyph glyph-name="Agrave" unicode="&#xc0;" 
d="M100 745h228v-995h-228v995zM153 -197h38h84v38h-84v46h84v38h-84h-38v-38v-46v-38zM153 -57h38h46h38v39v45v39h-38h-46h-38v-39v-45v-39zM237 27v-45h-46v45h46zM153 83h38h46h38v39v46v38h-38h-23v-38h23v-46h-46v84h-38v-84v-39zM153 373h27v-54h-27v-39h27h39v39v54
h56v39h-122v-39zM153 224h84h38v39v83h-38v-83h-84v-39zM153 430h38h22h38h24v38h-24v46v38h-38h-22h-38v-38v-46v-38zM213 514v-46h-22v46h22zM153 570h42h38h42v39h-42v45h42v38h-42h-38h-42v-38h42v-45h-42v-39z" />
    <glyph glyph-name="Aacute" unicode="&#xc1;" 
d="M100 745h228v-995h-228v995zM153 -197h38h84v38h-84v46h84v38h-84h-38v-38v-46v-38zM153 -57h38h46h38v39v45v39h-38h-46h-38v-39v-45v-39zM237 27v-45h-46v45h46zM153 83h38h46h38v39v46v38h-38h-23v-38h23v-46h-46v84h-38v-84v-39zM153 373h27v-54h-27v-39h27h39v39v54
h56v39h-122v-39zM153 224h84h38v39v83h-38v-83h-84v-39zM153 430h38h22h38h24v38h-24v46v38h-38h-22h-38v-38v-46v-38zM213 514v-46h-22v46h22zM153 570h42h38h42v39h-42v45h42v38h-42h-38h-42v-38h42v-45h-42v-39z" />
    <glyph glyph-name="Acircumflex" unicode="&#xc2;" 
d="M100 745h228v-995h-228v995zM153 -197h38h84v38h-84v46h84v38h-84h-38v-38v-46v-38zM153 -57h38h46h38v39v45v39h-38h-46h-38v-39v-45v-39zM237 27v-45h-46v45h46zM153 83h38h46h38v39v46v38h-38h-23v-38h23v-46h-46v84h-38v-84v-39zM153 373h27v-54h-27v-39h27h39v39v54
h56v39h-122v-39zM153 224h84h38v39v83h-38v-83h-84v-39zM153 430h38h22h38h24v38h-24v46v38h-38h-22h-38v-38v-46v-38zM213 514v-46h-22v46h22zM153 570h42h38h42v39h-42v45h42v38h-42h-38h-42v-38h42v-45h-42v-39z" />
    <glyph glyph-name="Atilde" unicode="&#xc3;" 
d="M100 745h228v-995h-228v995zM153 -197h38h84v38h-84v46h84v38h-84h-38v-38v-46v-38zM153 -57h38h46h38v39v45v39h-38h-46h-38v-39v-45v-39zM237 27v-45h-46v45h46zM153 83h38h46h38v39v46v38h-38h-23v-38h23v-46h-46v84h-38v-84v-39zM153 373h27v-54h-27v-39h27h39v39v54
h56v39h-122v-39zM153 224h84h38v39v83h-38v-83h-84v-39zM153 430h38h22h38h24v38h-24v46v38h-38h-22h-38v-38v-46v-38zM213 514v-46h-22v46h22zM153 570h42h38h42v39h-42v45h42v38h-42h-38h-42v-38h42v-45h-42v-39z" />
    <glyph glyph-name="Adieresis" unicode="&#xc4;" 
d="M100 745h228v-995h-228v995zM153 -197h38h84v38h-84v46h84v38h-84h-38v-38v-46v-38zM153 -57h38h46h38v39v45v39h-38h-46h-38v-39v-45v-39zM237 27v-45h-46v45h46zM153 83h38h46h38v39v46v38h-38h-23v-38h23v-46h-46v84h-38v-84v-39zM153 373h27v-54h-27v-39h27h39v39v54
h56v39h-122v-39zM153 224h84h38v39v83h-38v-83h-84v-39zM153 430h38h22h38h24v38h-24v46v38h-38h-22h-38v-38v-46v-38zM213 514v-46h-22v46h22zM153 570h42h38h42v39h-42v45h42v38h-42h-38h-42v-38h42v-45h-42v-39z" />
    <glyph glyph-name="Aring" unicode="&#xc5;" 
d="M100 745h228v-995h-228v995zM153 -197h38h84v38h-84v46h84v38h-84h-38v-38v-46v-38zM153 -57h38h46h38v39v45v39h-38h-46h-38v-39v-45v-39zM237 27v-45h-46v45h46zM153 83h38h46h38v39v46v38h-38h-23v-38h23v-46h-46v84h-38v-84v-39zM153 373h27v-54h-27v-39h27h39v39v54
h56v39h-122v-39zM153 224h84h38v39v83h-38v-83h-84v-39zM153 430h38h22h38h24v38h-24v46v38h-38h-22h-38v-38v-46v-38zM213 514v-46h-22v46h22zM153 570h42h38h42v39h-42v45h42v38h-42h-38h-42v-38h42v-45h-42v-39z" />
    <glyph glyph-name="AE" unicode="&#xc6;" 
d="M100 745h228v-995h-228v995zM153 -197h38h84v38h-84v46h84v38h-84h-38v-38v-46v-38zM153 -57h38h46h38v39v45v39h-38h-46h-38v-39v-45v-39zM237 27v-45h-46v45h46zM153 83h38h46h38v39v46v38h-38h-23v-38h23v-46h-46v84h-38v-84v-39zM153 373h27v-54h-27v-39h27h39v39v54
h56v39h-122v-39zM153 224h84h38v39v83h-38v-83h-84v-39zM153 430h38h22h38h24v38h-24v46v38h-38h-22h-38v-38v-46v-38zM213 514v-46h-22v46h22zM153 570h42h38h42v39h-42v45h42v38h-42h-38h-42v-38h42v-45h-42v-39z" />
    <glyph glyph-name="Ccedilla" unicode="&#xc7;" 
d="M100 745h228v-995h-228v995zM153 -197h38h84v38h-84v46h84v38h-84h-38v-38v-46v-38zM153 -57h38h46h38v39v45v39h-38h-46h-38v-39v-45v-39zM237 27v-45h-46v45h46zM153 83h38h46h38v39v46v38h-38h-23v-38h23v-46h-46v84h-38v-84v-39zM153 373h27v-54h-27v-39h27h39v39v54
h56v39h-122v-39zM153 224h84h38v39v83h-38v-83h-84v-39zM153 430h38h22h38h24v38h-24v46v38h-38h-22h-38v-38v-46v-38zM213 514v-46h-22v46h22zM153 570h42h38h42v39h-42v45h42v38h-42h-38h-42v-38h42v-45h-42v-39z" />
    <glyph glyph-name="Egrave" unicode="&#xc8;" 
d="M100 745h228v-995h-228v995zM153 -197h38h84v38h-84v46h84v38h-84h-38v-38v-46v-38zM153 -57h38h46h38v39v45v39h-38h-46h-38v-39v-45v-39zM237 27v-45h-46v45h46zM153 83h38h46h38v39v46v38h-38h-23v-38h23v-46h-46v84h-38v-84v-39zM153 373h27v-54h-27v-39h27h39v39v54
h56v39h-122v-39zM153 224h84h38v39v83h-38v-83h-84v-39zM153 430h38h22h38h24v38h-24v46v38h-38h-22h-38v-38v-46v-38zM213 514v-46h-22v46h22zM153 570h42h38h42v39h-42v45h42v38h-42h-38h-42v-38h42v-45h-42v-39z" />
    <glyph glyph-name="Eacute" unicode="&#xc9;" 
d="M100 745h228v-995h-228v995zM153 -197h38h84v38h-84v46h84v38h-84h-38v-38v-46v-38zM153 -57h38h46h38v39v45v39h-38h-46h-38v-39v-45v-39zM237 27v-45h-46v45h46zM153 83h38h46h38v39v46v38h-38h-23v-38h23v-46h-46v84h-38v-84v-39zM153 373h27v-54h-27v-39h27h39v39v54
h56v39h-122v-39zM153 224h84h38v39v83h-38v-83h-84v-39zM153 430h38h22h38h24v38h-24v46v38h-38h-22h-38v-38v-46v-38zM213 514v-46h-22v46h22zM153 570h42h38h42v39h-42v45h42v38h-42h-38h-42v-38h42v-45h-42v-39z" />
    <glyph glyph-name="Ecircumflex" unicode="&#xca;" 
d="M100 745h228v-995h-228v995zM153 -197h38h84v38h-84v46h84v38h-84h-38v-38v-46v-38zM153 -57h38h46h38v39v45v39h-38h-46h-38v-39v-45v-39zM237 27v-45h-46v45h46zM153 83h38h46h38v39v46v38h-38h-23v-38h23v-46h-46v84h-38v-84v-39zM153 373h27v-54h-27v-39h27h39v39v54
h56v39h-122v-39zM153 224h84h38v39v83h-38v-83h-84v-39zM153 430h38h22h38h24v38h-24v46v38h-38h-22h-38v-38v-46v-38zM213 514v-46h-22v46h22zM153 570h42h38h42v39h-42v45h42v38h-42h-38h-42v-38h42v-45h-42v-39z" />
    <glyph glyph-name="Edieresis" unicode="&#xcb;" 
d="M100 745h228v-995h-228v995zM153 -197h38h84v38h-84v46h84v38h-84h-38v-38v-46v-38zM153 -57h38h46h38v39v45v39h-38h-46h-38v-39v-45v-39zM237 27v-45h-46v45h46zM153 83h38h46h38v39v46v38h-38h-23v-38h23v-46h-46v84h-38v-84v-39zM153 373h27v-54h-27v-39h27h39v39v54
h56v39h-122v-39zM153 224h84h38v39v83h-38v-83h-84v-39zM153 430h38h22h38h24v38h-24v46v38h-38h-22h-38v-38v-46v-38zM213 514v-46h-22v46h22zM153 570h42h38h42v39h-42v45h42v38h-42h-38h-42v-38h42v-45h-42v-39z" />
    <glyph glyph-name="Igrave" unicode="&#xcc;" 
d="M100 745h228v-995h-228v995zM153 -197h38h84v38h-84v46h84v38h-84h-38v-38v-46v-38zM153 -57h38h46h38v39v45v39h-38h-46h-38v-39v-45v-39zM237 27v-45h-46v45h46zM153 83h38h46h38v39v46v38h-38h-23v-38h23v-46h-46v84h-38v-84v-39zM153 373h27v-54h-27v-39h27h39v39v54
h56v39h-122v-39zM153 224h84h38v39v83h-38v-83h-84v-39zM153 430h38h22h38h24v38h-24v46v38h-38h-22h-38v-38v-46v-38zM213 514v-46h-22v46h22zM153 570h42h38h42v39h-42v45h42v38h-42h-38h-42v-38h42v-45h-42v-39z" />
    <glyph glyph-name="Iacute" unicode="&#xcd;" 
d="M100 745h228v-995h-228v995zM153 -197h38h84v38h-84v46h84v38h-84h-38v-38v-46v-38zM153 -57h38h46h38v39v45v39h-38h-46h-38v-39v-45v-39zM237 27v-45h-46v45h46zM153 83h38h46h38v39v46v38h-38h-23v-38h23v-46h-46v84h-38v-84v-39zM153 373h27v-54h-27v-39h27h39v39v54
h56v39h-122v-39zM153 224h84h38v39v83h-38v-83h-84v-39zM153 430h38h22h38h24v38h-24v46v38h-38h-22h-38v-38v-46v-38zM213 514v-46h-22v46h22zM153 570h42h38h42v39h-42v45h42v38h-42h-38h-42v-38h42v-45h-42v-39z" />
    <glyph glyph-name="Icircumflex" unicode="&#xce;" 
d="M100 745h228v-995h-228v995zM153 -197h38h84v38h-84v46h84v38h-84h-38v-38v-46v-38zM153 -57h38h46h38v39v45v39h-38h-46h-38v-39v-45v-39zM237 27v-45h-46v45h46zM153 83h38h46h38v39v46v38h-38h-23v-38h23v-46h-46v84h-38v-84v-39zM153 373h27v-54h-27v-39h27h39v39v54
h56v39h-122v-39zM153 224h84h38v39v83h-38v-83h-84v-39zM153 430h38h22h38h24v38h-24v46v38h-38h-22h-38v-38v-46v-38zM213 514v-46h-22v46h22zM153 570h42h38h42v39h-42v45h42v38h-42h-38h-42v-38h42v-45h-42v-39z" />
    <glyph glyph-name="Idieresis" unicode="&#xcf;" 
d="M100 745h228v-995h-228v995zM153 -197h38h84v38h-84v46h84v38h-84h-38v-38v-46v-38zM153 -57h38h46h38v39v45v39h-38h-46h-38v-39v-45v-39zM237 27v-45h-46v45h46zM153 83h38h46h38v39v46v38h-38h-23v-38h23v-46h-46v84h-38v-84v-39zM153 373h27v-54h-27v-39h27h39v39v54
h56v39h-122v-39zM153 224h84h38v39v83h-38v-83h-84v-39zM153 430h38h22h38h24v38h-24v46v38h-38h-22h-38v-38v-46v-38zM213 514v-46h-22v46h22zM153 570h42h38h42v39h-42v45h42v38h-42h-38h-42v-38h42v-45h-42v-39z" />
    <glyph glyph-name="Eth" unicode="&#xd0;" 
d="M100 745h228v-995h-228v995zM153 -197h38h84v38h-84v46h84v38h-84h-38v-38v-46v-38zM153 -57h38h46h38v39v45v39h-38h-46h-38v-39v-45v-39zM237 27v-45h-46v45h46zM153 83h38h46h38v39v46v38h-38h-23v-38h23v-46h-46v84h-38v-84v-39zM153 373h27v-54h-27v-39h27h39v39v54
h56v39h-122v-39zM153 224h84h38v39v83h-38v-83h-84v-39zM153 430h38h22h38h24v38h-24v46v38h-38h-22h-38v-38v-46v-38zM213 514v-46h-22v46h22zM153 570h42h38h42v39h-42v45h42v38h-42h-38h-42v-38h42v-45h-42v-39z" />
    <glyph glyph-name="Ntilde" unicode="&#xd1;" 
d="M100 745h228v-995h-228v995zM153 -197h38h84v38h-84v46h84v38h-84h-38v-38v-46v-38zM153 -57h38h46h38v39v45v39h-38h-46h-38v-39v-45v-39zM237 27v-45h-46v45h46zM153 83h38h46h38v39v46v38h-38h-23v-38h23v-46h-46v84h-38v-84v-39zM153 373h27v-54h-27v-39h27h39v39v54
h56v39h-122v-39zM153 224h84h38v39v83h-38v-83h-84v-39zM153 430h38h22h38h24v38h-24v46v38h-38h-22h-38v-38v-46v-38zM213 514v-46h-22v46h22zM153 570h42h38h42v39h-42v45h42v38h-42h-38h-42v-38h42v-45h-42v-39z" />
    <glyph glyph-name="Ograve" unicode="&#xd2;" 
d="M100 745h228v-995h-228v995zM153 -197h38h84v38h-84v46h84v38h-84h-38v-38v-46v-38zM153 -57h38h46h38v39v45v39h-38h-46h-38v-39v-45v-39zM237 27v-45h-46v45h46zM153 83h38h46h38v39v46v38h-38h-23v-38h23v-46h-46v84h-38v-84v-39zM153 373h27v-54h-27v-39h27h39v39v54
h56v39h-122v-39zM153 224h84h38v39v83h-38v-83h-84v-39zM153 430h38h22h38h24v38h-24v46v38h-38h-22h-38v-38v-46v-38zM213 514v-46h-22v46h22zM153 570h42h38h42v39h-42v45h42v38h-42h-38h-42v-38h42v-45h-42v-39z" />
    <glyph glyph-name="Oacute" unicode="&#xd3;" 
d="M100 745h228v-995h-228v995zM153 -197h38h84v38h-84v46h84v38h-84h-38v-38v-46v-38zM153 -57h38h46h38v39v45v39h-38h-46h-38v-39v-45v-39zM237 27v-45h-46v45h46zM153 83h38h46h38v39v46v38h-38h-23v-38h23v-46h-46v84h-38v-84v-39zM153 373h27v-54h-27v-39h27h39v39v54
h56v39h-122v-39zM153 224h84h38v39v83h-38v-83h-84v-39zM153 430h38h22h38h24v38h-24v46v38h-38h-22h-38v-38v-46v-38zM213 514v-46h-22v46h22zM153 570h42h38h42v39h-42v45h42v38h-42h-38h-42v-38h42v-45h-42v-39z" />
    <glyph glyph-name="Ocircumflex" unicode="&#xd4;" 
d="M100 745h228v-995h-228v995zM153 -197h38h84v38h-84v46h84v38h-84h-38v-38v-46v-38zM153 -57h38h46h38v39v45v39h-38h-46h-38v-39v-45v-39zM237 27v-45h-46v45h46zM153 83h38h46h38v39v46v38h-38h-23v-38h23v-46h-46v84h-38v-84v-39zM153 373h27v-54h-27v-39h27h39v39v54
h56v39h-122v-39zM153 224h84h38v39v83h-38v-83h-84v-39zM153 430h38h22h38h24v38h-24v46v38h-38h-22h-38v-38v-46v-38zM213 514v-46h-22v46h22zM153 570h42h38h42v39h-42v45h42v38h-42h-38h-42v-38h42v-45h-42v-39z" />
    <glyph glyph-name="Otilde" unicode="&#xd5;" 
d="M100 745h228v-995h-228v995zM153 -197h38h84v38h-84v46h84v38h-84h-38v-38v-46v-38zM153 -57h38h46h38v39v45v39h-38h-46h-38v-39v-45v-39zM237 27v-45h-46v45h46zM153 83h38h46h38v39v46v38h-38h-23v-38h23v-46h-46v84h-38v-84v-39zM153 373h27v-54h-27v-39h27h39v39v54
h56v39h-122v-39zM153 224h84h38v39v83h-38v-83h-84v-39zM153 430h38h22h38h24v38h-24v46v38h-38h-22h-38v-38v-46v-38zM213 514v-46h-22v46h22zM153 570h42h38h42v39h-42v45h42v38h-42h-38h-42v-38h42v-45h-42v-39z" />
    <glyph glyph-name="Odieresis" unicode="&#xd6;" 
d="M100 745h228v-995h-228v995zM153 -197h38h84v38h-84v46h84v38h-84h-38v-38v-46v-38zM153 -57h38h46h38v39v45v39h-38h-46h-38v-39v-45v-39zM237 27v-45h-46v45h46zM153 83h38h46h38v39v46v38h-38h-23v-38h23v-46h-46v84h-38v-84v-39zM153 373h27v-54h-27v-39h27h39v39v54
h56v39h-122v-39zM153 224h84h38v39v83h-38v-83h-84v-39zM153 430h38h22h38h24v38h-24v46v38h-38h-22h-38v-38v-46v-38zM213 514v-46h-22v46h22zM153 570h42h38h42v39h-42v45h42v38h-42h-38h-42v-38h42v-45h-42v-39z" />
    <glyph glyph-name="multiply" unicode="&#xd7;" 
d="M100 745h228v-995h-228v995zM153 -197h38h84v38h-84v46h84v38h-84h-38v-38v-46v-38zM153 -57h38h46h38v39v45v39h-38h-46h-38v-39v-45v-39zM237 27v-45h-46v45h46zM153 83h38h46h38v39v46v38h-38h-23v-38h23v-46h-46v84h-38v-84v-39zM153 373h27v-54h-27v-39h27h39v39v54
h56v39h-122v-39zM153 224h84h38v39v83h-38v-83h-84v-39zM153 430h38h22h38h24v38h-24v46v38h-38h-22h-38v-38v-46v-38zM213 514v-46h-22v46h22zM153 570h42h38h42v39h-42v45h42v38h-42h-38h-42v-38h42v-45h-42v-39z" />
    <glyph glyph-name="Oslash" unicode="&#xd8;" 
d="M100 745h228v-995h-228v995zM153 -197h38h84v38h-84v46h84v38h-84h-38v-38v-46v-38zM153 -57h38h46h38v39v45v39h-38h-46h-38v-39v-45v-39zM237 27v-45h-46v45h46zM153 83h38h46h38v39v46v38h-38h-23v-38h23v-46h-46v84h-38v-84v-39zM153 373h27v-54h-27v-39h27h39v39v54
h56v39h-122v-39zM153 224h84h38v39v83h-38v-83h-84v-39zM153 430h38h22h38h24v38h-24v46v38h-38h-22h-38v-38v-46v-38zM213 514v-46h-22v46h22zM153 570h42h38h42v39h-42v45h42v38h-42h-38h-42v-38h42v-45h-42v-39z" />
    <glyph glyph-name="Ugrave" unicode="&#xd9;" 
d="M100 745h228v-995h-228v995zM153 -197h38h84v38h-84v46h84v38h-84h-38v-38v-46v-38zM153 -57h38h46h38v39v45v39h-38h-46h-38v-39v-45v-39zM237 27v-45h-46v45h46zM153 83h38h46h38v39v46v38h-38h-23v-38h23v-46h-46v84h-38v-84v-39zM153 373h27v-54h-27v-39h27h39v39v54
h56v39h-122v-39zM153 224h84h38v39v83h-38v-83h-84v-39zM153 430h38h22h38h24v38h-24v46v38h-38h-22h-38v-38v-46v-38zM213 514v-46h-22v46h22zM153 570h42h38h42v39h-42v45h42v38h-42h-38h-42v-38h42v-45h-42v-39z" />
    <glyph glyph-name="Uacute" unicode="&#xda;" 
d="M100 745h228v-995h-228v995zM153 -197h38h84v38h-84v46h84v38h-84h-38v-38v-46v-38zM153 -57h38h46h38v39v45v39h-38h-46h-38v-39v-45v-39zM237 27v-45h-46v45h46zM153 83h38h46h38v39v46v38h-38h-23v-38h23v-46h-46v84h-38v-84v-39zM153 373h27v-54h-27v-39h27h39v39v54
h56v39h-122v-39zM153 224h84h38v39v83h-38v-83h-84v-39zM153 430h38h22h38h24v38h-24v46v38h-38h-22h-38v-38v-46v-38zM213 514v-46h-22v46h22zM153 570h42h38h42v39h-42v45h42v38h-42h-38h-42v-38h42v-45h-42v-39z" />
    <glyph glyph-name="Ucircumflex" unicode="&#xdb;" 
d="M100 745h228v-995h-228v995zM153 -197h38h84v38h-84v46h84v38h-84h-38v-38v-46v-38zM153 -57h38h46h38v39v45v39h-38h-46h-38v-39v-45v-39zM237 27v-45h-46v45h46zM153 83h38h46h38v39v46v38h-38h-23v-38h23v-46h-46v84h-38v-84v-39zM153 373h27v-54h-27v-39h27h39v39v54
h56v39h-122v-39zM153 224h84h38v39v83h-38v-83h-84v-39zM153 430h38h22h38h24v38h-24v46v38h-38h-22h-38v-38v-46v-38zM213 514v-46h-22v46h22zM153 570h42h38h42v39h-42v45h42v38h-42h-38h-42v-38h42v-45h-42v-39z" />
    <glyph glyph-name="Udieresis" unicode="&#xdc;" 
d="M100 745h228v-995h-228v995zM153 -197h38h84v38h-84v46h84v38h-84h-38v-38v-46v-38zM153 -57h38h46h38v39v45v39h-38h-46h-38v-39v-45v-39zM237 27v-45h-46v45h46zM153 83h38h46h38v39v46v38h-38h-23v-38h23v-46h-46v84h-38v-84v-39zM153 373h27v-54h-27v-39h27h39v39v54
h56v39h-122v-39zM153 224h84h38v39v83h-38v-83h-84v-39zM153 430h38h22h38h24v38h-24v46v38h-38h-22h-38v-38v-46v-38zM213 514v-46h-22v46h22zM153 570h42h38h42v39h-42v45h42v38h-42h-38h-42v-38h42v-45h-42v-39z" />
    <glyph glyph-name="Yacute" unicode="&#xdd;" 
d="M100 745h228v-995h-228v995zM153 -197h38h84v38h-84v46h84v38h-84h-38v-38v-46v-38zM153 -57h38h46h38v39v45v39h-38h-46h-38v-39v-45v-39zM237 27v-45h-46v45h46zM153 83h38h46h38v39v46v38h-38h-23v-38h23v-46h-46v84h-38v-84v-39zM153 373h27v-54h-27v-39h27h39v39v54
h56v39h-122v-39zM153 224h84h38v39v83h-38v-83h-84v-39zM153 430h38h22h38h24v38h-24v46v38h-38h-22h-38v-38v-46v-38zM213 514v-46h-22v46h22zM153 570h42h38h42v39h-42v45h42v38h-42h-38h-42v-38h42v-45h-42v-39z" />
    <glyph glyph-name="Thorn" unicode="&#xde;" 
d="M100 745h228v-995h-228v995zM153 -197h38h84v38h-84v46h84v38h-84h-38v-38v-46v-38zM153 -57h38h46h38v39v45v39h-38h-46h-38v-39v-45v-39zM237 27v-45h-46v45h46zM153 83h38h46h38v39v46v38h-38h-23v-38h23v-46h-46v84h-38v-84v-39zM153 373h27v-54h-27v-39h27h39v39v54
h56v39h-122v-39zM153 224h84h38v39v83h-38v-83h-84v-39zM153 430h38h22h38h24v38h-24v46v38h-38h-22h-38v-38v-46v-38zM213 514v-46h-22v46h22zM153 570h42h38h42v39h-42v45h42v38h-42h-38h-42v-38h42v-45h-42v-39z" />
    <glyph glyph-name="germandbls" unicode="&#xdf;" 
d="M100 745h228v-995h-228v995zM153 -197h38h84v38h-84v46h84v38h-84h-38v-38v-46v-38zM153 -57h38h46h38v39v45v39h-38h-46h-38v-39v-45v-39zM237 27v-45h-46v45h46zM153 83h38h46h38v39v46v38h-38h-23v-38h23v-46h-46v84h-38v-84v-39zM153 373h27v-54h-27v-39h27h39v39v54
h56v39h-122v-39zM153 224h84h38v39v83h-38v-83h-84v-39zM153 430h38h22h38h24v38h-24v46v38h-38h-22h-38v-38v-46v-38zM213 514v-46h-22v46h22zM153 570h42h38h42v39h-42v45h42v38h-42h-38h-42v-38h42v-45h-42v-39z" />
    <glyph glyph-name="agrave" unicode="&#xe0;" 
d="M100 745h228v-995h-228v995zM153 -197h38h84v38h-84v46h84v38h-84h-38v-38v-46v-38zM153 -57h38h46h38v39v45v39h-38h-46h-38v-39v-45v-39zM237 27v-45h-46v45h46zM153 83h38h46h38v39v46v38h-38h-23v-38h23v-46h-46v84h-38v-84v-39zM153 373h27v-54h-27v-39h27h39v39v54
h56v39h-122v-39zM153 224h84h38v39v83h-38v-83h-84v-39zM153 430h38h22h38h24v38h-24v46v38h-38h-22h-38v-38v-46v-38zM213 514v-46h-22v46h22zM153 570h42h38h42v39h-42v45h42v38h-42h-38h-42v-38h42v-45h-42v-39z" />
    <glyph glyph-name="aacute" unicode="&#xe1;" 
d="M100 745h228v-995h-228v995zM153 -197h38h84v38h-84v46h84v38h-84h-38v-38v-46v-38zM153 -57h38h46h38v39v45v39h-38h-46h-38v-39v-45v-39zM237 27v-45h-46v45h46zM153 83h38h46h38v39v46v38h-38h-23v-38h23v-46h-46v84h-38v-84v-39zM153 373h27v-54h-27v-39h27h39v39v54
h56v39h-122v-39zM153 224h84h38v39v83h-38v-83h-84v-39zM153 430h38h22h38h24v38h-24v46v38h-38h-22h-38v-38v-46v-38zM213 514v-46h-22v46h22zM153 570h42h38h42v39h-42v45h42v38h-42h-38h-42v-38h42v-45h-42v-39z" />
    <glyph glyph-name="acircumflex" unicode="&#xe2;" 
d="M100 745h228v-995h-228v995zM153 -197h38h84v38h-84v46h84v38h-84h-38v-38v-46v-38zM153 -57h38h46h38v39v45v39h-38h-46h-38v-39v-45v-39zM237 27v-45h-46v45h46zM153 83h38h46h38v39v46v38h-38h-23v-38h23v-46h-46v84h-38v-84v-39zM153 373h27v-54h-27v-39h27h39v39v54
h56v39h-122v-39zM153 224h84h38v39v83h-38v-83h-84v-39zM153 430h38h22h38h24v38h-24v46v38h-38h-22h-38v-38v-46v-38zM213 514v-46h-22v46h22zM153 570h42h38h42v39h-42v45h42v38h-42h-38h-42v-38h42v-45h-42v-39z" />
    <glyph glyph-name="atilde" unicode="&#xe3;" 
d="M100 745h228v-995h-228v995zM153 -197h38h84v38h-84v46h84v38h-84h-38v-38v-46v-38zM153 -57h38h46h38v39v45v39h-38h-46h-38v-39v-45v-39zM237 27v-45h-46v45h46zM153 83h38h46h38v39v46v38h-38h-23v-38h23v-46h-46v84h-38v-84v-39zM153 373h27v-54h-27v-39h27h39v39v54
h56v39h-122v-39zM153 224h84h38v39v83h-38v-83h-84v-39zM153 430h38h22h38h24v38h-24v46v38h-38h-22h-38v-38v-46v-38zM213 514v-46h-22v46h22zM153 570h42h38h42v39h-42v45h42v38h-42h-38h-42v-38h42v-45h-42v-39z" />
    <glyph glyph-name="adieresis" unicode="&#xe4;" 
d="M100 745h228v-995h-228v995zM153 -197h38h84v38h-84v46h84v38h-84h-38v-38v-46v-38zM153 -57h38h46h38v39v45v39h-38h-46h-38v-39v-45v-39zM237 27v-45h-46v45h46zM153 83h38h46h38v39v46v38h-38h-23v-38h23v-46h-46v84h-38v-84v-39zM153 373h27v-54h-27v-39h27h39v39v54
h56v39h-122v-39zM153 224h84h38v39v83h-38v-83h-84v-39zM153 430h38h22h38h24v38h-24v46v38h-38h-22h-38v-38v-46v-38zM213 514v-46h-22v46h22zM153 570h42h38h42v39h-42v45h42v38h-42h-38h-42v-38h42v-45h-42v-39z" />
    <glyph glyph-name="aring" unicode="&#xe5;" 
d="M100 745h228v-995h-228v995zM153 -197h38h84v38h-84v46h84v38h-84h-38v-38v-46v-38zM153 -57h38h46h38v39v45v39h-38h-46h-38v-39v-45v-39zM237 27v-45h-46v45h46zM153 83h38h46h38v39v46v38h-38h-23v-38h23v-46h-46v84h-38v-84v-39zM153 373h27v-54h-27v-39h27h39v39v54
h56v39h-122v-39zM153 224h84h38v39v83h-38v-83h-84v-39zM153 430h38h22h38h24v38h-24v46v38h-38h-22h-38v-38v-46v-38zM213 514v-46h-22v46h22zM153 570h42h38h42v39h-42v45h42v38h-42h-38h-42v-38h42v-45h-42v-39z" />
    <glyph glyph-name="ae" unicode="&#xe6;" 
d="M100 745h228v-995h-228v995zM153 -197h38h84v38h-84v46h84v38h-84h-38v-38v-46v-38zM153 -57h38h46h38v39v45v39h-38h-46h-38v-39v-45v-39zM237 27v-45h-46v45h46zM153 83h38h46h38v39v46v38h-38h-23v-38h23v-46h-46v84h-38v-84v-39zM153 373h27v-54h-27v-39h27h39v39v54
h56v39h-122v-39zM153 224h84h38v39v83h-38v-83h-84v-39zM153 430h38h22h38h24v38h-24v46v38h-38h-22h-38v-38v-46v-38zM213 514v-46h-22v46h22zM153 570h42h38h42v39h-42v45h42v38h-42h-38h-42v-38h42v-45h-42v-39z" />
    <glyph glyph-name="ccedilla" unicode="&#xe7;" 
d="M100 745h228v-995h-228v995zM153 -197h38h84v38h-84v46h84v38h-84h-38v-38v-46v-38zM153 -57h38h46h38v39v45v39h-38h-46h-38v-39v-45v-39zM237 27v-45h-46v45h46zM153 83h38h46h38v39v46v38h-38h-23v-38h23v-46h-46v84h-38v-84v-39zM153 373h27v-54h-27v-39h27h39v39v54
h56v39h-122v-39zM153 224h84h38v39v83h-38v-83h-84v-39zM153 430h38h22h38h24v38h-24v46v38h-38h-22h-38v-38v-46v-38zM213 514v-46h-22v46h22zM153 570h42h38h42v39h-42v45h42v38h-42h-38h-42v-38h42v-45h-42v-39z" />
    <glyph glyph-name="egrave" unicode="&#xe8;" 
d="M100 745h228v-995h-228v995zM153 -197h38h84v38h-84v46h84v38h-84h-38v-38v-46v-38zM153 -57h38h46h38v39v45v39h-38h-46h-38v-39v-45v-39zM237 27v-45h-46v45h46zM153 83h38h46h38v39v46v38h-38h-23v-38h23v-46h-46v84h-38v-84v-39zM153 373h27v-54h-27v-39h27h39v39v54
h56v39h-122v-39zM153 224h84h38v39v83h-38v-83h-84v-39zM153 430h38h22h38h24v38h-24v46v38h-38h-22h-38v-38v-46v-38zM213 514v-46h-22v46h22zM153 570h42h38h42v39h-42v45h42v38h-42h-38h-42v-38h42v-45h-42v-39z" />
    <glyph glyph-name="eacute" unicode="&#xe9;" 
d="M100 745h228v-995h-228v995zM153 -197h38h84v38h-84v46h84v38h-84h-38v-38v-46v-38zM153 -57h38h46h38v39v45v39h-38h-46h-38v-39v-45v-39zM237 27v-45h-46v45h46zM153 83h38h46h38v39v46v38h-38h-23v-38h23v-46h-46v84h-38v-84v-39zM153 373h27v-54h-27v-39h27h39v39v54
h56v39h-122v-39zM153 224h84h38v39v83h-38v-83h-84v-39zM153 430h38h22h38h24v38h-24v46v38h-38h-22h-38v-38v-46v-38zM213 514v-46h-22v46h22zM153 570h42h38h42v39h-42v45h42v38h-42h-38h-42v-38h42v-45h-42v-39z" />
    <glyph glyph-name="ecircumflex" unicode="&#xea;" 
d="M100 745h228v-995h-228v995zM153 -197h38h84v38h-84v46h84v38h-84h-38v-38v-46v-38zM153 -57h38h46h38v39v45v39h-38h-46h-38v-39v-45v-39zM237 27v-45h-46v45h46zM153 83h38h46h38v39v46v38h-38h-23v-38h23v-46h-46v84h-38v-84v-39zM153 373h27v-54h-27v-39h27h39v39v54
h56v39h-122v-39zM153 224h84h38v39v83h-38v-83h-84v-39zM153 430h38h22h38h24v38h-24v46v38h-38h-22h-38v-38v-46v-38zM213 514v-46h-22v46h22zM153 570h42h38h42v39h-42v45h42v38h-42h-38h-42v-38h42v-45h-42v-39z" />
    <glyph glyph-name="edieresis" unicode="&#xeb;" 
d="M100 745h228v-995h-228v995zM153 -197h38h84v38h-84v46h84v38h-84h-38v-38v-46v-38zM153 -57h38h46h38v39v45v39h-38h-46h-38v-39v-45v-39zM237 27v-45h-46v45h46zM153 83h38h46h38v39v46v38h-38h-23v-38h23v-46h-46v84h-38v-84v-39zM153 373h27v-54h-27v-39h27h39v39v54
h56v39h-122v-39zM153 224h84h38v39v83h-38v-83h-84v-39zM153 430h38h22h38h24v38h-24v46v38h-38h-22h-38v-38v-46v-38zM213 514v-46h-22v46h22zM153 570h42h38h42v39h-42v45h42v38h-42h-38h-42v-38h42v-45h-42v-39z" />
    <glyph glyph-name="igrave" unicode="&#xec;" 
d="M100 745h228v-995h-228v995zM153 -197h38h84v38h-84v46h84v38h-84h-38v-38v-46v-38zM153 -57h38h46h38v39v45v39h-38h-46h-38v-39v-45v-39zM237 27v-45h-46v45h46zM153 83h38h46h38v39v46v38h-38h-23v-38h23v-46h-46v84h-38v-84v-39zM153 373h27v-54h-27v-39h27h39v39v54
h56v39h-122v-39zM153 224h84h38v39v83h-38v-83h-84v-39zM153 430h38h22h38h24v38h-24v46v38h-38h-22h-38v-38v-46v-38zM213 514v-46h-22v46h22zM153 570h42h38h42v39h-42v45h42v38h-42h-38h-42v-38h42v-45h-42v-39z" />
    <glyph glyph-name="iacute" unicode="&#xed;" 
d="M100 745h228v-995h-228v995zM153 -197h38h84v38h-84v46h84v38h-84h-38v-38v-46v-38zM153 -57h38h46h38v39v45v39h-38h-46h-38v-39v-45v-39zM237 27v-45h-46v45h46zM153 83h38h46h38v39v46v38h-38h-23v-38h23v-46h-46v84h-38v-84v-39zM153 373h27v-54h-27v-39h27h39v39v54
h56v39h-122v-39zM153 224h84h38v39v83h-38v-83h-84v-39zM153 430h38h22h38h24v38h-24v46v38h-38h-22h-38v-38v-46v-38zM213 514v-46h-22v46h22zM153 570h42h38h42v39h-42v45h42v38h-42h-38h-42v-38h42v-45h-42v-39z" />
    <glyph glyph-name="icircumflex" unicode="&#xee;" 
d="M100 745h228v-995h-228v995zM153 -197h38h84v38h-84v46h84v38h-84h-38v-38v-46v-38zM153 -57h38h46h38v39v45v39h-38h-46h-38v-39v-45v-39zM237 27v-45h-46v45h46zM153 83h38h46h38v39v46v38h-38h-23v-38h23v-46h-46v84h-38v-84v-39zM153 373h27v-54h-27v-39h27h39v39v54
h56v39h-122v-39zM153 224h84h38v39v83h-38v-83h-84v-39zM153 430h38h22h38h24v38h-24v46v38h-38h-22h-38v-38v-46v-38zM213 514v-46h-22v46h22zM153 570h42h38h42v39h-42v45h42v38h-42h-38h-42v-38h42v-45h-42v-39z" />
    <glyph glyph-name="idieresis" unicode="&#xef;" 
d="M100 745h228v-995h-228v995zM153 -197h38h84v38h-84v46h84v38h-84h-38v-38v-46v-38zM153 -57h38h46h38v39v45v39h-38h-46h-38v-39v-45v-39zM237 27v-45h-46v45h46zM153 83h38h46h38v39v46v38h-38h-23v-38h23v-46h-46v84h-38v-84v-39zM153 373h27v-54h-27v-39h27h39v39v54
h56v39h-122v-39zM153 224h84h38v39v83h-38v-83h-84v-39zM153 430h38h22h38h24v38h-24v46v38h-38h-22h-38v-38v-46v-38zM213 514v-46h-22v46h22zM153 570h42h38h42v39h-42v45h42v38h-42h-38h-42v-38h42v-45h-42v-39z" />
    <glyph glyph-name="eth" unicode="&#xf0;" 
d="M100 745h228v-995h-228v995zM153 -197h38h84v38h-84v46h84v38h-84h-38v-38v-46v-38zM153 -57h38h46h38v39v45v39h-38h-46h-38v-39v-45v-39zM237 27v-45h-46v45h46zM153 83h38h46h38v39v46v38h-38h-23v-38h23v-46h-46v84h-38v-84v-39zM153 373h27v-54h-27v-39h27h39v39v54
h56v39h-122v-39zM153 224h84h38v39v83h-38v-83h-84v-39zM153 430h38h22h38h24v38h-24v46v38h-38h-22h-38v-38v-46v-38zM213 514v-46h-22v46h22zM153 570h42h38h42v39h-42v45h42v38h-42h-38h-42v-38h42v-45h-42v-39z" />
    <glyph glyph-name="ntilde" unicode="&#xf1;" 
d="M100 745h228v-995h-228v995zM153 -197h38h84v38h-84v46h84v38h-84h-38v-38v-46v-38zM153 -57h38h46h38v39v45v39h-38h-46h-38v-39v-45v-39zM237 27v-45h-46v45h46zM153 83h38h46h38v39v46v38h-38h-23v-38h23v-46h-46v84h-38v-84v-39zM153 373h27v-54h-27v-39h27h39v39v54
h56v39h-122v-39zM153 224h84h38v39v83h-38v-83h-84v-39zM153 430h38h22h38h24v38h-24v46v38h-38h-22h-38v-38v-46v-38zM213 514v-46h-22v46h22zM153 570h42h38h42v39h-42v45h42v38h-42h-38h-42v-38h42v-45h-42v-39z" />
    <glyph glyph-name="ograve" unicode="&#xf2;" 
d="M100 745h228v-995h-228v995zM153 -197h38h84v38h-84v46h84v38h-84h-38v-38v-46v-38zM153 -57h38h46h38v39v45v39h-38h-46h-38v-39v-45v-39zM237 27v-45h-46v45h46zM153 83h38h46h38v39v46v38h-38h-23v-38h23v-46h-46v84h-38v-84v-39zM153 373h27v-54h-27v-39h27h39v39v54
h56v39h-122v-39zM153 224h84h38v39v83h-38v-83h-84v-39zM153 430h38h22h38h24v38h-24v46v38h-38h-22h-38v-38v-46v-38zM213 514v-46h-22v46h22zM153 570h42h38h42v39h-42v45h42v38h-42h-38h-42v-38h42v-45h-42v-39z" />
    <glyph glyph-name="oacute" unicode="&#xf3;" 
d="M100 745h228v-995h-228v995zM153 -197h38h84v38h-84v46h84v38h-84h-38v-38v-46v-38zM153 -57h38h46h38v39v45v39h-38h-46h-38v-39v-45v-39zM237 27v-45h-46v45h46zM153 83h38h46h38v39v46v38h-38h-23v-38h23v-46h-46v84h-38v-84v-39zM153 373h27v-54h-27v-39h27h39v39v54
h56v39h-122v-39zM153 224h84h38v39v83h-38v-83h-84v-39zM153 430h38h22h38h24v38h-24v46v38h-38h-22h-38v-38v-46v-38zM213 514v-46h-22v46h22zM153 570h42h38h42v39h-42v45h42v38h-42h-38h-42v-38h42v-45h-42v-39z" />
    <glyph glyph-name="ocircumflex" unicode="&#xf4;" 
d="M100 745h228v-995h-228v995zM153 -197h38h84v38h-84v46h84v38h-84h-38v-38v-46v-38zM153 -57h38h46h38v39v45v39h-38h-46h-38v-39v-45v-39zM237 27v-45h-46v45h46zM153 83h38h46h38v39v46v38h-38h-23v-38h23v-46h-46v84h-38v-84v-39zM153 373h27v-54h-27v-39h27h39v39v54
h56v39h-122v-39zM153 224h84h38v39v83h-38v-83h-84v-39zM153 430h38h22h38h24v38h-24v46v38h-38h-22h-38v-38v-46v-38zM213 514v-46h-22v46h22zM153 570h42h38h42v39h-42v45h42v38h-42h-38h-42v-38h42v-45h-42v-39z" />
    <glyph glyph-name="otilde" unicode="&#xf5;" 
d="M100 745h228v-995h-228v995zM153 -197h38h84v38h-84v46h84v38h-84h-38v-38v-46v-38zM153 -57h38h46h38v39v45v39h-38h-46h-38v-39v-45v-39zM237 27v-45h-46v45h46zM153 83h38h46h38v39v46v38h-38h-23v-38h23v-46h-46v84h-38v-84v-39zM153 373h27v-54h-27v-39h27h39v39v54
h56v39h-122v-39zM153 224h84h38v39v83h-38v-83h-84v-39zM153 430h38h22h38h24v38h-24v46v38h-38h-22h-38v-38v-46v-38zM213 514v-46h-22v46h22zM153 570h42h38h42v39h-42v45h42v38h-42h-38h-42v-38h42v-45h-42v-39z" />
    <glyph glyph-name="odieresis" unicode="&#xf6;" 
d="M100 745h228v-995h-228v995zM153 -197h38h84v38h-84v46h84v38h-84h-38v-38v-46v-38zM153 -57h38h46h38v39v45v39h-38h-46h-38v-39v-45v-39zM237 27v-45h-46v45h46zM153 83h38h46h38v39v46v38h-38h-23v-38h23v-46h-46v84h-38v-84v-39zM153 373h27v-54h-27v-39h27h39v39v54
h56v39h-122v-39zM153 224h84h38v39v83h-38v-83h-84v-39zM153 430h38h22h38h24v38h-24v46v38h-38h-22h-38v-38v-46v-38zM213 514v-46h-22v46h22zM153 570h42h38h42v39h-42v45h42v38h-42h-38h-42v-38h42v-45h-42v-39z" />
    <glyph glyph-name="divide" unicode="&#xf7;" 
d="M100 745h228v-995h-228v995zM153 -197h38h84v38h-84v46h84v38h-84h-38v-38v-46v-38zM153 -57h38h46h38v39v45v39h-38h-46h-38v-39v-45v-39zM237 27v-45h-46v45h46zM153 83h38h46h38v39v46v38h-38h-23v-38h23v-46h-46v84h-38v-84v-39zM153 373h27v-54h-27v-39h27h39v39v54
h56v39h-122v-39zM153 224h84h38v39v83h-38v-83h-84v-39zM153 430h38h22h38h24v38h-24v46v38h-38h-22h-38v-38v-46v-38zM213 514v-46h-22v46h22zM153 570h42h38h42v39h-42v45h42v38h-42h-38h-42v-38h42v-45h-42v-39z" />
    <glyph glyph-name="oslash" unicode="&#xf8;" 
d="M100 745h228v-995h-228v995zM153 -197h38h84v38h-84v46h84v38h-84h-38v-38v-46v-38zM153 -57h38h46h38v39v45v39h-38h-46h-38v-39v-45v-39zM237 27v-45h-46v45h46zM153 83h38h46h38v39v46v38h-38h-23v-38h23v-46h-46v84h-38v-84v-39zM153 373h27v-54h-27v-39h27h39v39v54
h56v39h-122v-39zM153 224h84h38v39v83h-38v-83h-84v-39zM153 430h38h22h38h24v38h-24v46v38h-38h-22h-38v-38v-46v-38zM213 514v-46h-22v46h22zM153 570h42h38h42v39h-42v45h42v38h-42h-38h-42v-38h42v-45h-42v-39z" />
    <glyph glyph-name="ugrave" unicode="&#xf9;" 
d="M100 745h228v-995h-228v995zM153 -197h38h84v38h-84v46h84v38h-84h-38v-38v-46v-38zM153 -57h38h46h38v39v45v39h-38h-46h-38v-39v-45v-39zM237 27v-45h-46v45h46zM153 83h38h46h38v39v46v38h-38h-23v-38h23v-46h-46v84h-38v-84v-39zM153 373h27v-54h-27v-39h27h39v39v54
h56v39h-122v-39zM153 224h84h38v39v83h-38v-83h-84v-39zM153 430h38h22h38h24v38h-24v46v38h-38h-22h-38v-38v-46v-38zM213 514v-46h-22v46h22zM153 570h42h38h42v39h-42v45h42v38h-42h-38h-42v-38h42v-45h-42v-39z" />
    <glyph glyph-name="uacute" unicode="&#xfa;" 
d="M100 745h228v-995h-228v995zM153 -197h38h84v38h-84v46h84v38h-84h-38v-38v-46v-38zM153 -57h38h46h38v39v45v39h-38h-46h-38v-39v-45v-39zM237 27v-45h-46v45h46zM153 83h38h46h38v39v46v38h-38h-23v-38h23v-46h-46v84h-38v-84v-39zM153 373h27v-54h-27v-39h27h39v39v54
h56v39h-122v-39zM153 224h84h38v39v83h-38v-83h-84v-39zM153 430h38h22h38h24v38h-24v46v38h-38h-22h-38v-38v-46v-38zM213 514v-46h-22v46h22zM153 570h42h38h42v39h-42v45h42v38h-42h-38h-42v-38h42v-45h-42v-39z" />
    <glyph glyph-name="ucircumflex" unicode="&#xfb;" 
d="M100 745h228v-995h-228v995zM153 -197h38h84v38h-84v46h84v38h-84h-38v-38v-46v-38zM153 -57h38h46h38v39v45v39h-38h-46h-38v-39v-45v-39zM237 27v-45h-46v45h46zM153 83h38h46h38v39v46v38h-38h-23v-38h23v-46h-46v84h-38v-84v-39zM153 373h27v-54h-27v-39h27h39v39v54
h56v39h-122v-39zM153 224h84h38v39v83h-38v-83h-84v-39zM153 430h38h22h38h24v38h-24v46v38h-38h-22h-38v-38v-46v-38zM213 514v-46h-22v46h22zM153 570h42h38h42v39h-42v45h42v38h-42h-38h-42v-38h42v-45h-42v-39z" />
    <glyph glyph-name="udieresis" unicode="&#xfc;" 
d="M100 745h228v-995h-228v995zM153 -197h38h84v38h-84v46h84v38h-84h-38v-38v-46v-38zM153 -57h38h46h38v39v45v39h-38h-46h-38v-39v-45v-39zM237 27v-45h-46v45h46zM153 83h38h46h38v39v46v38h-38h-23v-38h23v-46h-46v84h-38v-84v-39zM153 373h27v-54h-27v-39h27h39v39v54
h56v39h-122v-39zM153 224h84h38v39v83h-38v-83h-84v-39zM153 430h38h22h38h24v38h-24v46v38h-38h-22h-38v-38v-46v-38zM213 514v-46h-22v46h22zM153 570h42h38h42v39h-42v45h42v38h-42h-38h-42v-38h42v-45h-42v-39z" />
    <glyph glyph-name="yacute" unicode="&#xfd;" 
d="M100 745h228v-995h-228v995zM153 -197h38h84v38h-84v46h84v38h-84h-38v-38v-46v-38zM153 -57h38h46h38v39v45v39h-38h-46h-38v-39v-45v-39zM237 27v-45h-46v45h46zM153 83h38h46h38v39v46v38h-38h-23v-38h23v-46h-46v84h-38v-84v-39zM153 373h27v-54h-27v-39h27h39v39v54
h56v39h-122v-39zM153 224h84h38v39v83h-38v-83h-84v-39zM153 430h38h22h38h24v38h-24v46v38h-38h-22h-38v-38v-46v-38zM213 514v-46h-22v46h22zM153 570h42h38h42v39h-42v45h42v38h-42h-38h-42v-38h42v-45h-42v-39z" />
    <glyph glyph-name="thorn" unicode="&#xfe;" 
d="M100 745h228v-995h-228v995zM153 -197h38h84v38h-84v46h84v38h-84h-38v-38v-46v-38zM153 -57h38h46h38v39v45v39h-38h-46h-38v-39v-45v-39zM237 27v-45h-46v45h46zM153 83h38h46h38v39v46v38h-38h-23v-38h23v-46h-46v84h-38v-84v-39zM153 373h27v-54h-27v-39h27h39v39v54
h56v39h-122v-39zM153 224h84h38v39v83h-38v-83h-84v-39zM153 430h38h22h38h24v38h-24v46v38h-38h-22h-38v-38v-46v-38zM213 514v-46h-22v46h22zM153 570h42h38h42v39h-42v45h42v38h-42h-38h-42v-38h42v-45h-42v-39z" />
    <glyph glyph-name="ydieresis" unicode="&#xff;" 
d="M100 745h228v-995h-228v995zM153 -197h38h84v38h-84v46h84v38h-84h-38v-38v-46v-38zM153 -57h38h46h38v39v45v39h-38h-46h-38v-39v-45v-39zM237 27v-45h-46v45h46zM153 83h38h46h38v39v46v38h-38h-23v-38h23v-46h-46v84h-38v-84v-39zM153 373h27v-54h-27v-39h27h39v39v54
h56v39h-122v-39zM153 224h84h38v39v83h-38v-83h-84v-39zM153 430h38h22h38h24v38h-24v46v38h-38h-22h-38v-38v-46v-38zM213 514v-46h-22v46h22zM153 570h42h38h42v39h-42v45h42v38h-42h-38h-42v-38h42v-45h-42v-39z" />
    <glyph glyph-name="Lslash" unicode="&#x141;" 
d="M100 745h228v-995h-228v995zM153 -197h38h84v38h-84v46h84v38h-84h-38v-38v-46v-38zM153 -57h38h46h38v39v45v39h-38h-46h-38v-39v-45v-39zM237 27v-45h-46v45h46zM153 83h38h46h38v39v46v38h-38h-23v-38h23v-46h-46v84h-38v-84v-39zM153 373h27v-54h-27v-39h27h39v39v54
h56v39h-122v-39zM153 224h84h38v39v83h-38v-83h-84v-39zM153 430h38h22h38h24v38h-24v46v38h-38h-22h-38v-38v-46v-38zM213 514v-46h-22v46h22zM153 570h42h38h42v39h-42v45h42v38h-42h-38h-42v-38h42v-45h-42v-39z" />
    <glyph glyph-name="OE" unicode="&#x152;" 
d="M100 745h228v-995h-228v995zM153 -197h38h84v38h-84v46h84v38h-84h-38v-38v-46v-38zM153 -57h38h46h38v39v45v39h-38h-46h-38v-39v-45v-39zM237 27v-45h-46v45h46zM153 83h38h46h38v39v46v38h-38h-23v-38h23v-46h-46v84h-38v-84v-39zM153 373h27v-54h-27v-39h27h39v39v54
h56v39h-122v-39zM153 224h84h38v39v83h-38v-83h-84v-39zM153 430h38h22h38h24v38h-24v46v38h-38h-22h-38v-38v-46v-38zM213 514v-46h-22v46h22zM153 570h42h38h42v39h-42v45h42v38h-42h-38h-42v-38h42v-45h-42v-39z" />
    <glyph glyph-name="oe" unicode="&#x153;" 
d="M100 745h228v-995h-228v995zM153 -197h38h84v38h-84v46h84v38h-84h-38v-38v-46v-38zM153 -57h38h46h38v39v45v39h-38h-46h-38v-39v-45v-39zM237 27v-45h-46v45h46zM153 83h38h46h38v39v46v38h-38h-23v-38h23v-46h-46v84h-38v-84v-39zM153 373h27v-54h-27v-39h27h39v39v54
h56v39h-122v-39zM153 224h84h38v39v83h-38v-83h-84v-39zM153 430h38h22h38h24v38h-24v46v38h-38h-22h-38v-38v-46v-38zM213 514v-46h-22v46h22zM153 570h42h38h42v39h-42v45h42v38h-42h-38h-42v-38h42v-45h-42v-39z" />
    <glyph glyph-name="Scaron" unicode="&#x160;" 
d="M100 745h228v-995h-228v995zM153 -197h38h84v38h-84v46h84v38h-84h-38v-38v-46v-38zM153 -57h38h46h38v39v45v39h-38h-46h-38v-39v-45v-39zM237 27v-45h-46v45h46zM153 83h38h46h38v39v46v38h-38h-23v-38h23v-46h-46v84h-38v-84v-39zM153 373h27v-54h-27v-39h27h39v39v54
h56v39h-122v-39zM153 224h84h38v39v83h-38v-83h-84v-39zM153 430h38h22h38h24v38h-24v46v38h-38h-22h-38v-38v-46v-38zM213 514v-46h-22v46h22zM153 570h42h38h42v39h-42v45h42v38h-42h-38h-42v-38h42v-45h-42v-39z" />
    <glyph glyph-name="scaron" unicode="&#x161;" 
d="M100 745h228v-995h-228v995zM153 -197h38h84v38h-84v46h84v38h-84h-38v-38v-46v-38zM153 -57h38h46h38v39v45v39h-38h-46h-38v-39v-45v-39zM237 27v-45h-46v45h46zM153 83h38h46h38v39v46v38h-38h-23v-38h23v-46h-46v84h-38v-84v-39zM153 373h27v-54h-27v-39h27h39v39v54
h56v39h-122v-39zM153 224h84h38v39v83h-38v-83h-84v-39zM153 430h38h22h38h24v38h-24v46v38h-38h-22h-38v-38v-46v-38zM213 514v-46h-22v46h22zM153 570h42h38h42v39h-42v45h42v38h-42h-38h-42v-38h42v-45h-42v-39z" />
    <glyph glyph-name="Ydieresis" unicode="&#x178;" 
d="M100 745h228v-995h-228v995zM153 -197h38h84v38h-84v46h84v38h-84h-38v-38v-46v-38zM153 -57h38h46h38v39v45v39h-38h-46h-38v-39v-45v-39zM237 27v-45h-46v45h46zM153 83h38h46h38v39v46v38h-38h-23v-38h23v-46h-46v84h-38v-84v-39zM153 373h27v-54h-27v-39h27h39v39v54
h56v39h-122v-39zM153 224h84h38v39v83h-38v-83h-84v-39zM153 430h38h22h38h24v38h-24v46v38h-38h-22h-38v-38v-46v-38zM213 514v-46h-22v46h22zM153 570h42h38h42v39h-42v45h42v38h-42h-38h-42v-38h42v-45h-42v-39z" />
    <glyph glyph-name="Zcaron" unicode="&#x17d;" 
d="M100 745h228v-995h-228v995zM153 -197h38h84v38h-84v46h84v38h-84h-38v-38v-46v-38zM153 -57h38h46h38v39v45v39h-38h-46h-38v-39v-45v-39zM237 27v-45h-46v45h46zM153 83h38h46h38v39v46v38h-38h-23v-38h23v-46h-46v84h-38v-84v-39zM153 373h27v-54h-27v-39h27h39v39v54
h56v39h-122v-39zM153 224h84h38v39v83h-38v-83h-84v-39zM153 430h38h22h38h24v38h-24v46v38h-38h-22h-38v-38v-46v-38zM213 514v-46h-22v46h22zM153 570h42h38h42v39h-42v45h42v38h-42h-38h-42v-38h42v-45h-42v-39z" />
    <glyph glyph-name="zcaron" unicode="&#x17e;" 
d="M100 745h228v-995h-228v995zM153 -197h38h84v38h-84v46h84v38h-84h-38v-38v-46v-38zM153 -57h38h46h38v39v45v39h-38h-46h-38v-39v-45v-39zM237 27v-45h-46v45h46zM153 83h38h46h38v39v46v38h-38h-23v-38h23v-46h-46v84h-38v-84v-39zM153 373h27v-54h-27v-39h27h39v39v54
h56v39h-122v-39zM153 224h84h38v39v83h-38v-83h-84v-39zM153 430h38h22h38h24v38h-24v46v38h-38h-22h-38v-38v-46v-38zM213 514v-46h-22v46h22zM153 570h42h38h42v39h-42v45h42v38h-42h-38h-42v-38h42v-45h-42v-39z" />
    <glyph glyph-name="florin" unicode="&#x192;" 
d="M100 745h228v-995h-228v995zM153 -197h38h84v38h-84v46h84v38h-84h-38v-38v-46v-38zM153 -57h38h46h38v39v45v39h-38h-46h-38v-39v-45v-39zM237 27v-45h-46v45h46zM153 83h38h46h38v39v46v38h-38h-23v-38h23v-46h-46v84h-38v-84v-39zM153 373h27v-54h-27v-39h27h39v39v54
h56v39h-122v-39zM153 224h84h38v39v83h-38v-83h-84v-39zM153 430h38h22h38h24v38h-24v46v38h-38h-22h-38v-38v-46v-38zM213 514v-46h-22v46h22zM153 570h42h38h42v39h-42v45h42v38h-42h-38h-42v-38h42v-45h-42v-39z" />
    <glyph glyph-name="circumflex" unicode="&#x2c6;" 
d="M100 745h228v-995h-228v995zM153 -197h38h84v38h-84v46h84v38h-84h-38v-38v-46v-38zM153 -57h38h46h38v39v45v39h-38h-46h-38v-39v-45v-39zM237 27v-45h-46v45h46zM153 83h38h46h38v39v46v38h-38h-23v-38h23v-46h-46v84h-38v-84v-39zM153 373h27v-54h-27v-39h27h39v39v54
h56v39h-122v-39zM153 224h84h38v39v83h-38v-83h-84v-39zM153 430h38h22h38h24v38h-24v46v38h-38h-22h-38v-38v-46v-38zM213 514v-46h-22v46h22zM153 570h42h38h42v39h-42v45h42v38h-42h-38h-42v-38h42v-45h-42v-39z" />
    <glyph glyph-name="caron" unicode="&#x2c7;" 
d="M100 745h228v-995h-228v995zM153 -197h38h84v38h-84v46h84v38h-84h-38v-38v-46v-38zM153 -57h38h46h38v39v45v39h-38h-46h-38v-39v-45v-39zM237 27v-45h-46v45h46zM153 83h38h46h38v39v46v38h-38h-23v-38h23v-46h-46v84h-38v-84v-39zM153 373h27v-54h-27v-39h27h39v39v54
h56v39h-122v-39zM153 224h84h38v39v83h-38v-83h-84v-39zM153 430h38h22h38h24v38h-24v46v38h-38h-22h-38v-38v-46v-38zM213 514v-46h-22v46h22zM153 570h42h38h42v39h-42v45h42v38h-42h-38h-42v-38h42v-45h-42v-39z" />
    <glyph glyph-name="breve" unicode="&#x2d8;" 
d="M100 745h228v-995h-228v995zM153 -197h38h84v38h-84v46h84v38h-84h-38v-38v-46v-38zM153 -57h38h46h38v39v45v39h-38h-46h-38v-39v-45v-39zM237 27v-45h-46v45h46zM153 83h38h46h38v39v46v38h-38h-23v-38h23v-46h-46v84h-38v-84v-39zM153 373h27v-54h-27v-39h27h39v39v54
h56v39h-122v-39zM153 224h84h38v39v83h-38v-83h-84v-39zM153 430h38h22h38h24v38h-24v46v38h-38h-22h-38v-38v-46v-38zM213 514v-46h-22v46h22zM153 570h42h38h42v39h-42v45h42v38h-42h-38h-42v-38h42v-45h-42v-39z" />
    <glyph glyph-name="ring" unicode="&#x2da;" 
d="M100 745h228v-995h-228v995zM153 -197h38h84v38h-84v46h84v38h-84h-38v-38v-46v-38zM153 -57h38h46h38v39v45v39h-38h-46h-38v-39v-45v-39zM237 27v-45h-46v45h46zM153 83h38h46h38v39v46v38h-38h-23v-38h23v-46h-46v84h-38v-84v-39zM153 373h27v-54h-27v-39h27h39v39v54
h56v39h-122v-39zM153 224h84h38v39v83h-38v-83h-84v-39zM153 430h38h22h38h24v38h-24v46v38h-38h-22h-38v-38v-46v-38zM213 514v-46h-22v46h22zM153 570h42h38h42v39h-42v45h42v38h-42h-38h-42v-38h42v-45h-42v-39z" />
    <glyph glyph-name="ogonek" unicode="&#x2db;" 
d="M100 745h228v-995h-228v995zM153 -197h38h84v38h-84v46h84v38h-84h-38v-38v-46v-38zM153 -57h38h46h38v39v45v39h-38h-46h-38v-39v-45v-39zM237 27v-45h-46v45h46zM153 83h38h46h38v39v46v38h-38h-23v-38h23v-46h-46v84h-38v-84v-39zM153 373h27v-54h-27v-39h27h39v39v54
h56v39h-122v-39zM153 224h84h38v39v83h-38v-83h-84v-39zM153 430h38h22h38h24v38h-24v46v38h-38h-22h-38v-38v-46v-38zM213 514v-46h-22v46h22zM153 570h42h38h42v39h-42v45h42v38h-42h-38h-42v-38h42v-45h-42v-39z" />
    <glyph glyph-name="tilde" unicode="&#x2dc;" 
d="M100 745h228v-995h-228v995zM153 -197h38h84v38h-84v46h84v38h-84h-38v-38v-46v-38zM153 -57h38h46h38v39v45v39h-38h-46h-38v-39v-45v-39zM237 27v-45h-46v45h46zM153 83h38h46h38v39v46v38h-38h-23v-38h23v-46h-46v84h-38v-84v-39zM153 373h27v-54h-27v-39h27h39v39v54
h56v39h-122v-39zM153 224h84h38v39v83h-38v-83h-84v-39zM153 430h38h22h38h24v38h-24v46v38h-38h-22h-38v-38v-46v-38zM213 514v-46h-22v46h22zM153 570h42h38h42v39h-42v45h42v38h-42h-38h-42v-38h42v-45h-42v-39z" />
    <glyph glyph-name="hungarumlaut" unicode="&#x2dd;" 
d="M100 745h228v-995h-228v995zM153 -197h38h84v38h-84v46h84v38h-84h-38v-38v-46v-38zM153 -57h38h46h38v39v45v39h-38h-46h-38v-39v-45v-39zM237 27v-45h-46v45h46zM153 83h38h46h38v39v46v38h-38h-23v-38h23v-46h-46v84h-38v-84v-39zM153 373h27v-54h-27v-39h27h39v39v54
h56v39h-122v-39zM153 224h84h38v39v83h-38v-83h-84v-39zM153 430h38h22h38h24v38h-24v46v38h-38h-22h-38v-38v-46v-38zM213 514v-46h-22v46h22zM153 570h42h38h42v39h-42v45h42v38h-42h-38h-42v-38h42v-45h-42v-39z" />
    <glyph glyph-name="endash" unicode="&#x2013;" 
d="M100 745h228v-995h-228v995zM153 -197h38h84v38h-84v46h84v38h-84h-38v-38v-46v-38zM153 -57h38h46h38v39v45v39h-38h-46h-38v-39v-45v-39zM237 27v-45h-46v45h46zM153 83h38h46h38v39v46v38h-38h-23v-38h23v-46h-46v84h-38v-84v-39zM153 373h27v-54h-27v-39h27h39v39v54
h56v39h-122v-39zM153 224h84h38v39v83h-38v-83h-84v-39zM153 430h38h22h38h24v38h-24v46v38h-38h-22h-38v-38v-46v-38zM213 514v-46h-22v46h22zM153 570h42h38h42v39h-42v45h42v38h-42h-38h-42v-38h42v-45h-42v-39z" />
    <glyph glyph-name="emdash" unicode="&#x2014;" 
d="M100 745h228v-995h-228v995zM153 -197h38h84v38h-84v46h84v38h-84h-38v-38v-46v-38zM153 -57h38h46h38v39v45v39h-38h-46h-38v-39v-45v-39zM237 27v-45h-46v45h46zM153 83h38h46h38v39v46v38h-38h-23v-38h23v-46h-46v84h-38v-84v-39zM153 373h27v-54h-27v-39h27h39v39v54
h56v39h-122v-39zM153 224h84h38v39v83h-38v-83h-84v-39zM153 430h38h22h38h24v38h-24v46v38h-38h-22h-38v-38v-46v-38zM213 514v-46h-22v46h22zM153 570h42h38h42v39h-42v45h42v38h-42h-38h-42v-38h42v-45h-42v-39z" />
    <glyph glyph-name="dagger" unicode="&#x2020;" 
d="M100 745h228v-995h-228v995zM153 -197h38h84v38h-84v46h84v38h-84h-38v-38v-46v-38zM153 -57h38h46h38v39v45v39h-38h-46h-38v-39v-45v-39zM237 27v-45h-46v45h46zM153 83h38h46h38v39v46v38h-38h-23v-38h23v-46h-46v84h-38v-84v-39zM153 373h27v-54h-27v-39h27h39v39v54
h56v39h-122v-39zM153 224h84h38v39v83h-38v-83h-84v-39zM153 430h38h22h38h24v38h-24v46v38h-38h-22h-38v-38v-46v-38zM213 514v-46h-22v46h22zM153 570h42h38h42v39h-42v45h42v38h-42h-38h-42v-38h42v-45h-42v-39z" />
    <glyph glyph-name="daggerdbl" unicode="&#x2021;" 
d="M100 745h228v-995h-228v995zM153 -197h38h84v38h-84v46h84v38h-84h-38v-38v-46v-38zM153 -57h38h46h38v39v45v39h-38h-46h-38v-39v-45v-39zM237 27v-45h-46v45h46zM153 83h38h46h38v39v46v38h-38h-23v-38h23v-46h-46v84h-38v-84v-39zM153 373h27v-54h-27v-39h27h39v39v54
h56v39h-122v-39zM153 224h84h38v39v83h-38v-83h-84v-39zM153 430h38h22h38h24v38h-24v46v38h-38h-22h-38v-38v-46v-38zM213 514v-46h-22v46h22zM153 570h42h38h42v39h-42v45h42v38h-42h-38h-42v-38h42v-45h-42v-39z" />
    <glyph glyph-name="bullet" unicode="&#x2022;" 
d="M100 745h228v-995h-228v995zM153 -197h38h84v38h-84v46h84v38h-84h-38v-38v-46v-38zM153 -57h38h46h38v39v45v39h-38h-46h-38v-39v-45v-39zM237 27v-45h-46v45h46zM153 83h38h46h38v39v46v38h-38h-23v-38h23v-46h-46v84h-38v-84v-39zM153 373h27v-54h-27v-39h27h39v39v54
h56v39h-122v-39zM153 224h84h38v39v83h-38v-83h-84v-39zM153 430h38h22h38h24v38h-24v46v38h-38h-22h-38v-38v-46v-38zM213 514v-46h-22v46h22zM153 570h42h38h42v39h-42v45h42v38h-42h-38h-42v-38h42v-45h-42v-39z" />
    </font>
</defs>
</svg>
